<svg xmlns="http://www.w3.org/2000/svg" viewBox="0 0 39.12 50.19"><defs><style>.cls-1{fill:#91cc85;}.cls-2{fill:#80b05a;}.cls-3{fill:#43454a;}</style></defs><title>Asset 1</title><g id="Layer_2" data-name="Layer 2"><g id="Layer_1-2" data-name="Layer 1"><path class="cls-1" d="M13.56.35a.17.17 0 0 1 .14.29c-.75.85-2.63 3.39-1.07 6.24a6.5 6.5 0 0 0 5.51 3.21.17.17 0 0 1 .1.31c-1.28.88-5.19 3.11-8.22.34C5.85 6.94 9.64.66 13.56.35z"/><path class="cls-2" d="M13.7.25c-.23 0 .1.07-.15 0a.1.1 0 0 1 .15 0z"/><path class="cls-2" d="M13.1.34a4 4 0 0 1-.68.28 1.5 1.5 0 0 0-.67.34s0-.1-.14 0a10.2 10.2 0 0 1-1.43 1c-.1.06-.12.22-.2.3s-.11.18-.11.24-.08 0-.14 0v.09c0 .23-.28.34-.35.6-.16.37-.38.81-.54 1.22 0 0 0-.06-.08 0s0 .18 0 .3 0 .21-.09.33c0 .12-.1.13 0 .23H8.6c.09.07-.08.13-.05.23 0 .08-.05.11-.05.19 0 .17-.09.26 0 .27-.08 0 0-.17-.1-.09v1.72c0 .07 0 .11-.06.13s.06.21.12.25 0 0 0 .08.11.09.1.21h-.08s.1.21.16.31 0 0-.06 0 .08.22.16.3h-.06c0 .19.11 0 .14.17h-.06c.14.09.18.33.3.43a3.13 3.13 0 0 0 .28.4c0 .06-.1 0 0 .18.07-.06.18.21.21.07a1.45 1.45 0 0 0 .29.34c-.07 0 0 .13-.12 0v.1s-.05-.08-.07 0a1.55 1.55 0 0 1 .22.19 1.15 1.15 0 0 1 .39.15c-.09 0 0 .11-.09.08h.31v.1h.08s.2.13.17.22-.09 0-.05 0 .11 0 .21.09c.05 0 .2.07.16 0s0 .06-.06 0a.43.43 0 0 1 .27.08h-.07l.46.08h-.1c.17.13.41.1.54.21v-.05s.07.09.14.08.08 0 .14 0a2.51 2.51 0 0 1 .65.08s.13-.07.18-.07v.06h.17-.26s.2-.08.16 0 .19-.06.28 0-.08.08 0 .08h.22c0-.06.12 0 .07-.06s.2 0 .19 0v.07c.06 0 .09-.08.14-.12s.14 0 .2-.1.31 0 .38 0a.64.64 0 0 1 .28-.11v.05s.08 0 .14-.05.15 0 .24 0 0-.11 0-.14.24-.15.37-.09c0 0-.12.09 0 .1s.15-.13.29-.13l-.06-.07c.08 0 .17-.13.19 0s.17 0 .12-.11c.25 0 .5-.27.7-.19 0 0 .11-.05.07-.09s-.05.07-.09 0v-.05c.07 0 .13 0 .1.06.15 0 .13-.23.23-.25s0 0 .06 0a.23.23 0 0 0 0-.07c.07 0 .12 0 .18.06s.09-.06 0-.09h.16c-.12 0 0 0 0 0a.09.09 0 0 0 .08 0 .71.71 0 0 0-.18 0 .23.23 0 0 0 .17 0h-.07.13s-.09 0 0 0 .2 0 .14-.06-.28 0-.19 0h.15a.25.25 0 0 0 .06-.08h-.13.06-.47s.15-.19 0-.13a.14.14 0 0 0-.13.12h-.21a.53.53 0 0 1-.27-.1h-.08c-.26-.09-.58-.1-.76-.27.08 0 0-.05 0-.08s-.06-.08-.11 0 0 .07 0 .12a1 1 0 0 1-.46-.21s-.06-.13-.16-.15v-.07s-.08.08-.14 0a.09.09 0 0 0 0-.06c-.1 0-.26 0-.33-.11v-.1h-.07c-.13-.14-.22-.2-.23-.29a1.88 1.88 0 0 1-.94-.61c0-.09-.08 0-.11-.06s0-.11.09-.08c-.06-.13-.16-.09-.24-.15s.07 0 0 .06-.1-.17-.17-.14S13 8 13 8h-.08c0-.13.26.08.28-.07h-.06c0-.1.2.09.09-.06s-.2 0-.18 0c-.12-.12-.18 0-.29-.11s.1.12.12 0-.13-.12-.16-.2c0 .09-.07.07-.12 0s.09 0 0-.1-.14-.09-.11 0-.05-.14-.15-.16.2 0 .16-.11c0 .05-.17-.11-.21 0 0-.06 0-.09.08-.07s-.21-.12-.11-.21h-.07v-.13s-.18-.18-.09-.21-.09-.17-.12-.09.1.09 0 .18c0-.1-.08-.14-.13-.18s0-.11-.1-.12h-.07c-.08-.13.09-.07 0-.2l.08.09v-.14h-.18v-.12l.1.08s.05-.09 0-.2-.13-.15-.14 0v-.1c0-.12-.05 0-.11-.07s0-.2.08-.29l.11.09v-.12c.09.08 0-.05.13 0a.3.3 0 0 0-.05-.15c-.1.16-.18-.14-.29-.09 0-.21.25-.15.07-.35 0 0-.11-.06-.08.07 0-.13-.11-.08-.06-.24 0 .11.11-.12.18 0v.11s.11 0 .11-.12 0-.18-.07-.17 0 .12-.06.07.07-.18 0-.25c0 .1-.06.12-.1.12a1.2 1.2 0 0 1 0-.12c0-.19-.07-.06 0-.24l.22-.02c.07.05-.06.26.06.24s0-.16 0-.27V4s.16-.06.1-.24 0 0-.08 0v-.37c.07 0 .06-.21.11-.06a.42.42 0 0 0 0 .39c.11 0 0 .14.06.19 0-.15.12-.12.19-.13a.2.2 0 0 0 0-.1h-.13a.77.77 0 0 0 0-.42s.1 0 .09.05a2 2 0 0 1 .18-.55c-.14.08 0-.2-.06-.15s-.15.14-.18.07 0 0 .07 0 .13-.08.07-.19c0 .18.1.08.16.14 0-.13 0 0 .09-.09a2 2 0 0 1 .09-.42c.15-.12.2-.39.29-.53s.12 0 .18 0-.12 0 0-.09c0-.05.2-.2.12-.31l.05.09V1.2s.07 0 .06.06.11-.16.16-.25h-.08c.07-.17.19-.22.28-.36v-.1c0 .05.12 0 .1-.06a2.43 2.43 0 0 1-.05.28c-.07 0 0-.1-.07-.1s-.15.13-.12.18 0-.05 0-.1v.17s.06 0 0-.07a.41.41 0 0 1-.1.2c0-.07-.06 0-.06 0s0 .14-.08.22-.09.22-.18.32a.46.46 0 0 1 0-.27c-.08.06-.05.08-.13.14a.37.37 0 0 1 0 .25v.25a3.66 3.66 0 0 0-.31.56c.05.13-.08.32-.08.45s-.1.47-.2.56c0 .39 0 .73-.06 1.12l-.07-.07c.05.07 0 0 0 .12.06-.08.07.1.13.14a.79.79 0 0 0 .13.54c.13.13.08.33.14.52a.15.15 0 0 0 0 .13c.12.07.12.13.23.25a1.85 1.85 0 0 1 .13.4 10.85 10.85 0 0 0 .84 1v.06a10.4 10.4 0 0 0 1 .81l-.09.06c.08.09.24.12.25 0 .08.09.27.1.29.21s.15 0 .24.06a1.3 1.3 0 0 0 .49.23v.08s.28.14.24 0c.2.15.54.11.74.26h.08l.31.09a1.72 1.72 0 0 0 .54.06c.05 0-.14 0 0 .06s0 0 .18 0h.11a.75.75 0 0 1 .51.25.51.51 0 0 1 .11.47c0 .21-.36.52-.81.77s-.66.36-.94.51c-.14.17-.45.1-.54.29-.05 0-.17.05-.15 0-.12.12-.42.09-.61.24-.23 0-.4.14-.65.15 0 0 .06 0 .06-.06s-.19.16-.26 0 0 .06 0 .06a14 14 0 0 1-1.63.19c-.39-.09 0-.18-.33-.13s-.17-.16-.26-.11-.06 0-.07.07c-.23-.07-.26-.17-.46-.16-.25.05-.48-.08-.69-.05a5.92 5.92 0 0 1-2.82-2.3 5.44 5.44 0 0 1-.83-3.5 1.11 1.11 0 0 0 .12-.61v-.26a8.2 8.2 0 0 1 .38-1.27c0 .07 0 .13.06 0V4.1c0-.06 0-.14-.05-.09a7.11 7.11 0 0 1 2.08-2.7c.21-.16.52-.39.75-.58A10.63 10.63 0 0 1 13.53 0a.7.7 0 0 1-.43.34z"/><path class="cls-2" d="M13.88.47c0 .07-.08.18-.11.08s.07-.09.11-.08zm-1.69 2.06v-.09s-.01.06 0 .09zm-.25.63v-.25zm-.29.59c0 .05-.06 0 0 0s-.01-.02 0 0zm.07.06a.15.15 0 0 1-.05.1s-.01-.13.05-.1zm-.12 1.42v.14s-.06-.16 0-.14zm.18.64v.05h-.05zm3.96 5.52l.05-.04.01.04h-.06zm-4.48-.09c-.06 0 0-.05 0-.06s-.06.02 0 .06zM9.28 9.77l.01.02-.07.04.06-.06z"/><path class="cls-3" d="M22.49 18.56c.24-.24-.2.06.14-.18a.21.21 0 0 1-.14.18z"/><path class="cls-3" d="M23.26 19.14c1 .56 1.85 1.74 2.84 2.44.11.09-.13.08.13.27a17.93 17.93 0 0 1 3.16 3.08h-.09c.18.21.51.33.7.54h-.07s.4.33.53.36 0 .14.09.27h.18c.48.15.79.77 1.33 1.11h-.07c.82.58 1.71 1.46 2.56 2.18-.06 0-.13 0-.1.08s.38.18.61.37c0 .17.44.28.65.56.26.1.24.31.48.36l.06.17c.18 0 .22.31.43.4.15.08.16.23.32.27a.51.51 0 0 0 .45-.18s.06-.08 0-.11 0 0 0 .11-.13.16 0 .14l.06-.06.68-.66a.42.42 0 0 0 .18-.38c0-.16-.14-.26-.24-.36l-1.63-1.7c-.08-.15-.14-.24-.14-.29a4.32 4.32 0 0 0-.52-.44s0-.11-.07-.17c-.15-.22-.29-.12-.45-.37.1.06.15.07.16 0a4 4 0 0 1-.67-.56s.1.06.12 0c-.29-.16-.39-.44-.63-.6h.12c-.26-.38-.19 0-.42-.32.08.05.07 0 .11 0a7.49 7.49 0 0 1-1-.87c-.28-.28-.54-.6-.88-.88-.09-.13.15-.07-.16-.36-.08.1-.53-.48-.46-.19a7.15 7.15 0 0 0-.78-.86c.15.08 0-.24.21 0l-.1-.22c.06 0 .15.18.15.08a6.75 6.75 0 0 1-.52-.49 3.22 3.22 0 0 1-.85-.53c.18.12 0-.19.13-.1l-.61-.28c-.11-.1.05-.1-.12-.23h-.16s-.45-.42-.4-.56.19.16.1 0-.23-.18-.42-.37c-.11-.14-.41-.35-.32-.16s0-.09.12.07a1.88 1.88 0 0 1-.57-.45c.08.05.1 0 .15 0a7.19 7.19 0 0 1-.93-.72s.18 0 .2.1c-.31-.44-.84-.7-1.05-1.11.06 0 0 .09 0 .07-.17-.19-.1-.24-.24-.34 0 0-.16-.14-.28-.25s0 0 .09.05A7.73 7.73 0 0 1 24.15 16s-.32-.15-.41-.25h.09c0-.12-.3-.3-.26-.37-.25-.13.77.69.47.48 0-.12-.44-.28-.31-.3-.18-.18-.41-.29-.52-.52 0 .06.22.07.07-.07s-.09 0-.29-.17h-.14c0 .06-.22-.08-.15 0 0-.09-.35 0-.34-.12v-.1c-.13 0-.19.14-.25.21s-.05 0-.05 0c0 .15-.22.1-.28.33-.27.19-.61.57-.79.6a2.38 2.38 0 0 1-.51.58s.09-.11.07-.14c-.16.09-.17.15-.27.28a3.52 3.52 0 0 0-.51.28c-.15.21 0 .21 0 .26-.27 0-.44.56-.75.65 0-.07.21-.31 0-.19s-.26.4-.57.6h.15c-.17.06-.34.43-.4.31-.06.12-.34.27-.23.33-.51.34-1 1.06-1.45 1.15 0 .07-.22.21-.14.22s.11-.17.18-.18 0 .09 0 .11c-.16.11-.27.2-.21 0-.36.23-.17.45-.59.78 0-.05-.06 0-.17.07l-.15.27c-.26.22-.22 0-.29 0-.12.14-.29.29-.31.39l-.24.07c.17-.05-.07.14-.12.22v-.08s-.19.16-.26.24.23-.11.32-.18c0 .09-.15.19-.21.3 0-.09-.26.16-.37.26s-.08.19-.12.22-.2.18-.15 0 .12-.06.17-.15-.15 0-.27.19.15.09-.13.28a.69.69 0 0 0 .06-.18l-.25.18v.07s-.32.34-.31.46a4.31 4.31 0 0 1-.39.28 1.11 1.11 0 0 0-.39.42 1.44 1.44 0 0 0-.3.35c-.22.13-.26-.16-.4.1s-.19.38-.08.34c-.37.27-.65.72-1 .92 0 .07 0 .05-.07.16a9.93 9.93 0 0 1-1.45 1.29c.12-.16 0-.07-.08-.09-.07.16-.19.08-.15.21s.07.08.23 0a4.62 4.62 0 0 1-.91.82c.1-.05.06 0 0 .1-.06-.1-.28.09-.42.27v.07H7.4c0 .07 0 .17-.18.27a.12.12 0 0 0-.1 0 1.92 1.92 0 0 1-.52.62l-.22.07c-.07.08-.16.25 0 .14a2.9 2.9 0 0 1-.71.46c-.06.1-.12.2-.2.3v.13a.17.17 0 0 0 .1.2s.2.19.31.3l.38.39h-.05c.13.2.15 0 .24.16-.06 0 0 .13-.12.11.09.16.18.06.24 0s-.06 0 0-.06.13 0 .1-.08a.27.27 0 0 1 .05.16v-.07s.07.06.05.13-.15.28 0 .33a.92.92 0 0 0 .11-.19c.18 0-.3.4.05.16v-.08c.08-.16.06-.29-.05-.24.27-.28 0-.3.31-.59.13 0-.26.25-.14.26s.29-.32.45-.42c-.18.11-.12-.08 0-.19s0 .17.2 0c0-.08.19-.31 0-.17 0-.18.28-.2.34-.39.14 0-.1.38.19.18-.1 0 .25-.38 0-.36.12-.07.18 0 .14.08.19-.09.25-.45.42-.36v-.11l.21-.1c.13-.12.34-.47.42-.36 0 0 .34-.31.16-.28s-.17.24-.36.24c.2 0 .26-.25.34-.37h.05c.05-.07.21-.2.21-.27s0 .07.08 0v-.12c.23-.26.16.05.39-.19l-.15.22s.17-.07.27-.2 0-.24 0-.32.12 0 .21-.18l-.12.23s.21 0 .4-.19.22-.38 0-.24c.09-.09.26-.17.22-.06.2-.21-.08 0 .07-.24.11 0 .39-.19.59-.26l-.11.27.13-.12c-.1.23.14 0 .11.14a1.09 1.09 0 0 0 .25-.29c-.37.11.14-.43 0-.48.33-.35.47.08.68-.43-.09 0 0-.22-.19 0 .23-.18 0-.25.35-.43-.15.22.31-.07.09.25 0-.06-.18.11-.21.16.13 0 .08.13.31-.07s.31-.31.23-.34-.2.2-.18 0c.25-.27.39-.21.4-.43-.17.16-.27.13-.31.09l.18-.21v.08c.35-.26 0-.16.35-.43h.22c0 .14-.49.37-.32.45.21-.18.22-.3.44-.44l-.12.15c.08-.06.29 0 .5-.32.12-.17 0-.08 0-.13.31-.31.37-.44.58-.64 0 .13.38-.32.23 0a1.63 1.63 0 0 0-.66.66c.21 0-.27.21-.25.38.26-.23.34-.12.45-.09a.78.78 0 0 0 .16-.2c0-.09-.12 0-.18-.07a2.61 2.61 0 0 0 .66-.74c.13-.06.15 0 0 .15a12.88 12.88 0 0 1 1.06-.93c-.31.09.35-.35.12-.31s-.42.2-.36.06 0 0 .1 0c.09-.18.3-.1.36-.32-.29.32.05.18.07.32.19-.25 0 .07.27-.14a8.63 8.63 0 0 1 .68-.78A6.65 6.65 0 0 0 19 21c.19-.09.17.09.34 0s-.23 0 .09-.18c.07-.1.57-.4.54-.6v.18a.47.47 0 0 0 .12-.15s.12 0 .05.1c.24-.09.35-.34.54-.51h-.17c.28-.34.55-.47.84-.77v.07l.15-.2c0 .1.21 0 .26-.15l-.36.57c-.16.09.08-.2-.05-.18s-.39.29-.39.39a.61.61 0 0 0 .18-.21c.11 0-.06.19-.1.32.05-.06.16-.1.15-.14a1.71 1.71 0 0 1-.38.42c.1-.15-.11 0-.09-.05 0 .08-.11.27-.37.46s-.39.45-.68.67a1.5 1.5 0 0 1 .27-.53c-.2.12-.19.17-.39.29a.9.9 0 0 1-.21.49h-.06c-.18.21-.11.29-.38.5-.46.37-.92.77-1.26 1.06h-.06c-.09.28-.58.6-.79.87-.47.33-.88.88-1.18 1-.72.71-1.34 1.34-2.14 2l.06-.19c-.09.18-.13 0-.26.17.21-.08-.12.25-.17.38a4.74 4.74 0 0 0-1.05 1h-.06A4.48 4.48 0 0 1 11 29a.55.55 0 0 0-.29.14 3.56 3.56 0 0 1-.51.7 9.23 9.23 0 0 1-.87.68 11.58 11.58 0 0 1-1 1l-1.11 1a.93.93 0 0 1-1 .24l-.09-.14a2.52 2.52 0 0 1-.47-.36L5.38 32l-.32-.3-.39-.39a.92.92 0 0 1 0-1.33l.43-.42.28-.3v.17c.25-.18.48-.51.36-.53.25-.18.51-.58.73-.63s.23-.31.41-.51a8.84 8.84 0 0 0 1.07-1l-.11.09c0 .07 0 .12.13 0s.62-.53.34-.5c.53-.36 1-1.07 1.56-1.4-.07 0 0-.11.06-.18a11 11 0 0 0 1.16-1.08c.08 0 0 .15.12 0s0 0 .06-.18c.59-.68 1.39-1.19 2-1.77 1-1.07 2.13-2.08 3.14-3 .25-.42.89-.66 1-1.06.1-.05.32-.28.3-.17.21-.32.82-.65 1.13-1.11a.37.37 0 0 0-.09.11c.45-.32.72-.72 1.19-1.07 0 .05-.1.13-.09.17.21-.1.28-.47.48-.43s0-.12 0-.07c.24-.2.47-.42.71-.64a2.34 2.34 0 0 1 1-.68 1.82 1.82 0 0 1 1.36.12 4 4 0 0 1 .86.73c.58.75-.16.24.44.69 0 .07.07 0 .06 0 .23.17.18.45.38.54 0-.13.13.06.18 0 .35.46.36.61.73.88h-.06c.47.28.84.78 1.27 1l6 6.1L36 26.78l1.37 1.43 1.47 1.58a1.12 1.12 0 0 1 .32.82 1.41 1.41 0 0 1-.69.94l-.24.21-.39.38-.06.05v-.07c0 .07-.17.23-.39.28s-.46 0-.53.06a1.26 1.26 0 0 1-.6-.37l-.34-.32-.56-.52-1.15-1.07c.13.11.26.1.11 0l-.21-.09c-.11-.08-.26-.15-.18 0-2.06-1.8-3.86-3.81-5.83-5.63-.43-.47-1.12-1.06-1.64-1.51a45.6 45.6 0 0 0-4.23-4.22 1.77 1.77 0 0 1 1.03.41z"/><path class="cls-3" d="M22.19 18.84c-.09 0-.29.14-.2 0 .01-.02.19-.05.2 0zm-5.13 3.8h-.1s.08-.14.14-.16-.03.11-.04.16zm-1.23 1.05c0-.05.22-.32.37-.46zm-1.27.86c-.13.06-.12 0 0-.1s.01.05 0 .1zm0 .15a.49.49 0 0 1-.22.12s.19-.21.22-.12zM12 26.78c-.06.06-.16.2-.25.21.1.01.25-.3.25-.21zm-1.08 1.08a.31.31 0 0 0-.09.09c-.08 0 0 0 0-.1zm7.92-10.11l-.1.13-.02-.05.12-.08zm8.45 1.57c.14.1 0 .12.06.14s.08-.01-.06-.14zm4.72 4.57l-.04-.04.09-.06-.05.1zm-22.7 6.89c0-.24-.09.13 0-.15a.12.12 0 0 1 0 .15zm26.17.63A22.18 22.18 0 0 1 35.6 34c0 .1-.15 0-.11.19a8.66 8.66 0 0 1-.13 3.06v-.06c0 .19.1.42.08.62 0 0 0-.06-.08 0s0 .36.09.44-.1.07-.14.17l.09.12c.22.32 0 .77.08 1.2 0 0 0-.06-.06 0a19.85 19.85 0 0 1 .09 2.26s-.09-.06-.13 0 .12.28.14.49.09.36 0 .6c.1.18-.07.27.06.41l-.08.11c.14.08-.08.26 0 .41v.34c0 .3-.05.48.06.47-.09.1 0-.29-.17-.13a27.09 27.09 0 0 1 0 3c0 .11-.06.19-.1.21a2.13 2.13 0 0 0 .07.47s-.06.06-.06.12.12.2.07.4c0-.08-.06-.11-.11-.08a2.1 2.1 0 0 1 .09.65s0-.11-.06-.12a.73.73 0 0 1 0 .33.78.78 0 0 0-.32 0v-.06c-.34-.08 0 .14-.33.09.07 0 0 0 0-.07a3.63 3.63 0 0 1-.91.12 7 7 0 0 0-.86 0c-.11 0 0-.16-.25-.13 0 .13-.49.05-.32.2a3.44 3.44 0 0 0-.81 0c.11 0-.12-.16.09-.17l-.16-.08c0-.05.16 0 .11 0a3.26 3.26 0 0 1-.5 0 1.73 1.73 0 0 1-.68.24c.15-.05-.08-.14 0-.17l-.43.25c-.1 0 0-.1-.17-.07 0 0-.06.06-.1.08s-.43 0-.47-.1.17 0 .05-.07-.2 0-.39 0c-.13 0-.37.05-.23.13s0-.08.1 0a1 1 0 0 1-.5.1c.06 0 .06-.05.08-.09a3.62 3.62 0 0 1-.81.17c0 .06.11-.11.15-.08-.37-.08-.76.12-1.06 0v.07c-.18 0-.17-.1-.28-.06s-.14 0-.26 0h.07a3.74 3.74 0 0 1-1.2 0s-.23.13-.32.12v-.08c-.08 0-.29 0-.31-.06-.19.1.72-.08.47 0-.07-.07-.35.13-.3 0-.18 0-.35.09-.51 0 0 0 .14-.11 0-.11s-.07 0-.27.06h-.13c0 .08-.22 0-.13.08 0-.06-.36 0-.34-.09v-.1c-.11 0-.18.11-.26.15 0 .16-.26 0-.39.11-.23-.05-.58 0-.68-.1a1.17 1.17 0 0 1-.53.07s.09 0 .11-.05-.16 0-.27 0-.25-.09-.39-.15-.11.13-.13.18c-.16-.15-.49.1-.69 0 .06 0 .25-.08.11-.11s-.32.11-.57 0l.06.13c-.11-.08-.38.07-.35-.06-.09 0-.3 0-.27.08-.42-.11-1 .06-1.28-.16-.06 0-.21 0-.18.06s.14 0 .18 0a.07.07 0 0 0-.07.05c-.13 0-.23 0-.11-.14-.29-.08-.3.21-.67.16 0-.05 0-.07-.12-.06l-.2.09c-.24 0-.14-.12-.14-.2s-.28 0-.34.08l-.15-.11c.11.08-.1.05-.16.07h.06-.25s.17.08.25.09-.17 0-.25.07-.21-.06-.31-.07-.13.08-.17.07-.19 0-.1-.07.09 0 .16 0-.07-.11-.23-.05 0 .17-.2.11c.06 0 .07-.06.12-.09h-.21V50s-.32 0-.37.12a2.13 2.13 0 0 1-.33-.06.55.55 0 0 0-.4 0 .71.71 0 0 0-.32.05c-.17-.06-.06-.29-.25-.2s-.28.14-.2.19c-.32-.05-.67.07-1 0 0 0 0 .05-.11.07a4.79 4.79 0 0 1-1.35-.06c.13 0 0-.08 0-.12s-.13-.07-.17 0 0 .1.13.13a3.3 3.3 0 0 1-.52 0 2.64 2.64 0 0 1-.6-.05c.1 0 0 .05-.12.08.08-.09-.1-.12-.33-.1v-.11h-.07l.07-.22c0-.07-.14 0-.08-.31a.25.25 0 0 0 .07-.1 4.26 4.26 0 0 1-.09-.43.57.57 0 0 1 0-.3l.1-.14c0-.07-.07-.2-.1-.07.06-.3.07-.49.15-.58a4.92 4.92 0 0 1 0-1.79h.05c0-.16-.09-.08-.05-.19 0 .05.11-.12.17 0 .05-.23-.09-.29-.11-.44s0 .12 0 .09.05-.31 0-.35.11 0 .16 0v-.14c.12-.17.21.39.36.21v-.13c.11-.12.12.34.16 0-.05-.14-.2-.26-.24-.13 0-.29-.24-.13-.23-.45.06-.09 0 .25.1.19s0-.29 0-.43c0 .15-.14 0-.16-.07s.1.1.11-.12c-.06 0-.1-.24-.14-.07-.13-.08 0-.23-.07-.36.09-.07.22.23.26 0-.09 0-.12-.3-.26-.17 0-.1.1-.11.15 0 .06-.14-.16-.34 0-.38h-.09s.05-.11.1-.18-.13-.39 0-.38c0 0 0-.32-.1-.21s.07.2-.06.29c.11-.12 0-.25 0-.35h.05c0-.06 0-.2-.07-.23s.07 0 .08 0l-.08-.06c0-.24.14-.06.12-.29l.06.18s.06-.12 0-.23-.16-.13-.22-.16.08-.06 0-.19l.09.17s.12-.12.12-.29-.13-.29-.18-.11c0-.09 0-.21.1-.14 0-.2-.08 0-.13-.15s.12-.29.19-.43l.13.18v-.12c.1.16.08-.08.18 0a.54.54 0 0 0 0-.26c-.17.24-.23-.27-.39-.2 0-.33.38-.21.13-.55 0 .06-.16-.11-.11.1 0-.21-.16-.14-.09-.38.06.18.16-.19.25.07-.05 0 0 .14 0 .18s.16 0 .16-.19 0-.3-.1-.28 0 .2-.08.11c0-.26.1-.3-.05-.4 0 .16-.08.2-.14.2v-.19h.06c0-.3-.11-.09-.09-.38L8.49 38c.1.07 0 .42.12.37 0-.19-.08-.25 0-.43v.13c0-.07.22-.14.09-.41s-.06 0-.12 0c0-.3-.08-.39-.09-.59.12 0 0-.35.13-.13a.8.8 0 0 0 .05.65c.14-.11 0 .24.12.3 0-.24.14-.23.23-.27a.4.4 0 0 0 0-.17c-.09 0-.08.06-.17.06a1.29 1.29 0 0 0-.11-.68c0-.09.13-.06.14 0a6.2 6.2 0 0 1 0-1c-.14.2 0-.34-.15-.21s-.13.31-.19.22.06 0 .09 0 .12-.2 0-.33c0 .3.17.06.28.11-.06-.21.08 0 .08-.2a4.26 4.26 0 0 1-.13-.71 3.2 3.2 0 0 0 0-1c.06-.14.18 0 .2-.2s-.13.13-.08-.13c0-.08.08-.48-.09-.56l.13.08v-.13s.08-.06.11 0c.09-.16 0-.34 0-.51l-.13.16a6.1 6.1 0 0 1 0-.79h.08v-.17c.08 0 .12-.12.06-.21l.19.45c0 .12-.09-.14-.17-.06a.36.36 0 0 0 0 .38.31.31 0 0 0 0-.19c.11 0 .1.12.18.2s0-.13 0-.14a.85.85 0 0 1 .06.39c0-.12-.07.06-.1 0s.12.18.1.4.07.41 0 .66a.88.88 0 0 1-.25-.34v.34a.58.58 0 0 1 .23.34h-.12c0 .19.14.19.12.43v1.14h-.11c.15.17.06.58.12.81-.07.4.07.86-.05 1.07a17.1 17.1 0 0 1 .08 2l-.1-.13c.08.13-.06.08 0 .21.08-.15.11.18.17.27a2.31 2.31 0 0 0 .08 1h-.12a2.17 2.17 0 0 1 0 1 .3.3 0 0 0-.09.21 1.84 1.84 0 0 1 .18.59 4.47 4.47 0 0 1-.07.76c.16.79.06 1.6.16 2.42l-.08.06c.18.8 0 1.77.11 2.45L9.5 48c0 .21 0 .49.14.43 0 .21.07.57 0 .56s.07.07.09.1v.05a.26.26 0 0 0 .12 0h.05s-.05.09.05.1.56 0 .41-.13c.44.1 1-.08 1.45.05 0 0 .07-.06.12-.09a5.3 5.3 0 0 0 1.1 0c.06 0-.1.08.06.08s0-.06.12-.09a16.9 16.9 0 0 1 1.83.07c1-.09 2.06 0 3-.06.32-.13.76.13 1-.06.08 0 .29 0 .24.08.26-.09.72.09 1.1 0a.18.18 0 0 0-.09 0c.38.08.71 0 1.11 0 0 0-.11 0-.13.06.15.07.36-.14.45 0 .09 0 .06-.08 0-.08a24.32 24.32 0 0 0 2.71-.08c.65.1 0 .28.55.15 0 0 0-.06 0 0 .2 0 .31.18.45.1-.06-.1.09-.06.1-.12.4.07.48.16.79.08v.05c.37-.15.79-.07 1.1-.24l5.94-.15h1.18v-1.23c0-.66 0-1.32.08-2a1.75 1.75 0 0 0 .1-1s0 .05 0 0 0-.36-.11-.41v-2.16c0 .12.1.18.1 0l.05-.06c0-.1-.07-.2-.11-.1-.07-1.9.19-3.76.2-5.61a11.26 11.26 0 0 0 0-1.55 22 22 0 0 0 .24-4.14 1.05 1.05 0 0 1 .39.81zm-26.16-.35c-.06.05-.09.22-.17.08s.12-.14.17-.08z"/><path class="cls-3" d="M8.73 35.47v.08s-.05-.11 0-.15-.02.04 0 .07zM8.7 36.6c-.05 0-.09-.26-.1-.4zm-.21 1.05c0 .09-.07.07-.07-.06s.04.03.07.06zm.12.07a.26.26 0 0 1-.06.17s-.03-.2.06-.17zM8.46 40v.22s-.08-.22 0-.22zm.07 1.06a.15.15 0 0 0 0 .09c0 .06-.06 0-.07-.06zm11.26 8.99l-.11.03.02-.05.09.02zm8.45-.05c.11 0 .08 0 .1.06s.04-.06-.1-.06zm4.56-.21l-.04.01.01-.11.03.1zm-14.42-.19c0 .1.09-.05 0 .07s-.04-.04 0-.07zm7.93-.27c-.27-.33 0-.76-.17-1.12 0 0 .15 0 .11-.08a1.67 1.67 0 0 1 .08-1.32c0-.08-.11-.18-.09-.26s0 0 .08 0 0-.15-.1-.19.1 0 .13-.07h-.09c-.22-.14 0-.33-.1-.52h.06a3.82 3.82 0 0 1-.16-1 .18.18 0 0 0 .13 0c-.1 0-.12-.12-.14-.21s-.09-.15 0-.26c-.11-.08.06-.11-.07-.18h.08c-.14 0 .07-.11 0-.18v-.15c0-.13 0-.21-.07-.2.09 0 0 .13.17.05a5.08 5.08 0 0 1-.09-1.31s.06-.08.1-.09 0-.16-.08-.2.06 0 .06-.05-.12-.09-.07-.17a.1.1 0 0 0 .11 0c-.09-.07-.07-.17-.1-.26s0 0 .07 0 0-.17 0-.26h.06c.08-.13-.14 0-.09-.16s0 0 .07 0-.08-.28-.12-.39a1.31 1.31 0 0 0 0-.37s.16 0 .13-.11-.05-.21-.2-.14c0-.1.05-.25 0-.29s.14-.1.17 0l.05-.09c.06 0 0 .08.06 0s-.12-.16-.13-.21-.28 0-.37-.07c.08 0 .07-.13.12-.12a.9.9 0 0 0-.28.09v-.09l-.07.06s-.13 0-.12-.14.07 0 0-.07-.09 0-.16 0-.15.05-.09.12 0-.08 0 0a.23.23 0 0 1-.21.1v-.09a.88.88 0 0 1-.35.17c0 .06 0-.11.06-.08-.16-.08-.33.12-.46 0v.07s-.07-.1-.12-.06-.06 0-.11 0a.73.73 0 0 1-.52 0s-.1.13-.14.12v-.08s-.13 0-.13-.06c-.08.1.31-.08.2 0s-.15.13-.13 0-.15.09-.22 0 .06-.11 0-.11 0 0-.12.06h-.05c0 .08-.1 0-.06.08 0-.06-.16 0-.15-.09v-.1l-.11.15c0 .16-.11 0-.17.11-.1-.05-.25 0-.29-.1s-.14.1-.23.07 0 0 0-.05-.07 0-.12 0-.11-.09-.17-.15 0 .13-.06.18c-.07-.15-.21.1-.3 0s.11-.08 0-.11-.14.11-.25 0v.13c0-.08-.16.07-.15-.06 0 0-.13 0-.12.08-.18-.11-.44.06-.55-.16 0 0-.09 0-.08.06s.06 0 .08 0 0 0 0 .05-.1 0 0-.14c-.12-.08-.13.21-.29.16 0-.05 0-.07-.05-.06l-.09.09c-.1 0-.06-.12-.06-.2s-.12 0-.15.08l-.07-.11c0 .08 0 .05-.07.07s-.08 0-.1 0 .07.07.1.09-.08 0-.1.08-.06-.06-.08-.06 0 .08 0 .08v-.06s0-.1-.07 0 .06.16 0 .13a.78.78 0 0 0 0-.09h-.07v.07c0 .08-.06.07 0 .15s-.07 0-.1 0c-.06 0-.07 0 0 .1s0 .05 0 .09-.27-.11-.21 0S19 40 19 40s.05.14-.07.29H19c0 .2.09.42-.06.58 0-.06-.08 0-.12 0s-.07.06 0 .07.18.06.18.06a.44.44 0 0 1 0 .37h.08s-.13.08-.09.15h.07-.07s.14 0 .08.09H19c.06.07.15.17.09.24L19 42s.07.09.1 0c-.06.13-.07.21-.15.25a1 1 0 0 1 .2.79h-.05c0 .07.09 0 .05.08s-.11.05-.17 0c-.05.1.09.13.11.19s0-.05 0 0-.05.14 0 .15a.22.22 0 0 1-.16 0v.06c-.12.07-.21-.17-.36-.09v.06c-.11.05-.12-.15-.16 0s.2.11.24.06c0 .12.24.06.23.19s0-.11-.1-.08 0 .13 0 .18.14 0 .16 0-.1 0-.11.05.1.11.14 0 0 .1.07.15c-.09 0-.22-.1-.26 0s.12.13.26.08a.12.12 0 0 1-.15 0c-.06.06.16.14 0 .16h.09l-.1.08c0 .05.13.17 0 .16 0 0 0 .14.1.09s-.07-.09.06-.13c-.11.05 0 .11 0 .15h.16s0 .08.07.1a.06.06 0 0 0-.08 0h.08c0 .1-.14 0-.12.13l-.06-.08s-.06.05 0 .1l.22.07c0 .06-.08 0 0 .08l-.14-.03s-.12 0-.12.13.13.12.17 0a.07.07 0 0 1-.1.06c0 .09.08 0 .13.06s-.12.13-.19.18l-.13-.08v.05c-.1-.07-.08 0-.18 0s0 .08 0 .11.23.12.39.09c0 .14-.38.09-.13.24h.11c0 .09.16.06.09.16-.06-.08-.16.08-.25 0s0-.06 0-.08-.16 0-.16.08 0 .13.1.12 0-.08.08 0-.1.13.05.17c0-.07.08-.09.14-.09v.08h-.06c0 .13.11 0 .09.16l-.12.06c-.1 0 0-.18-.12-.16 0 .08.08.11 0 .19v-.06s-.22.06-.09.17.06 0 .12 0 .08.17.09.25 0 .15-.13.06a.18.18 0 0 0-.05-.28c-.14 0 0-.1-.12-.13s-.14.1-.23.12 0 .06 0 .07.08 0 .17 0A.3.3 0 0 0 19 47h-.14a1.16 1.16 0 0 1 0 .42c.14-.09 0 .15.15.09s.13-.13.19-.09-.06 0-.09 0-.12.09 0 .14c0-.13-.17 0-.28 0 .06.09-.08 0-.08.09a1 1 0 0 1 .13.31c-.1.13 0 .32 0 .44s-.18 0-.2.08.13-.06.08.06-.08.21.09.24h-.13v.06h-.11v.22h.08c.06.13 0 .22 0 .34h-.08v.07c-.08 0-.12.05-.06.09l-.19-.19c0-.05.09.06.17 0s0-.14 0-.16v.08l-.18-.09v.06a.2.2 0 0 1-.06-.17c0 .05.07 0 .1 0s-.12-.08-.1-.17-.07-.18 0-.29a.47.47 0 0 1 .21.17v-.14s-.18-.06-.23-.15h.07c0-.08-.14-.08-.12-.18a3.67 3.67 0 0 0 0-.49h.07c-.15-.07-.06-.25-.12-.35s-.07-.37.05-.46a3.22 3.22 0 0 1-.08-.88l.1.05c-.08-.06.06 0 0-.09s-.11-.08-.17-.12 0-.32-.08-.44h.07c-.13-.12 0-.27 0-.43s.1 0 .09-.09-.11-.13-.18-.25a.89.89 0 0 1 .07-.33c-.16-.34-.06-.69-.16-1h.08c-.18-.34 0-.76-.11-1.06h.14a.13.13 0 0 0-.14-.19c0-.09-.07-.23 0-.29s.15-.31.15-.39a.8.8 0 0 0 0-.44h.1s0-.24-.13-.18c.1-.19-.08-.44.05-.63 0 0-.06 0-.09-.05a1.4 1.4 0 0 1 .07-.32 1.73 1.73 0 0 0 .08-.35s0 .09.09 0-.05 0 0-.11c.15-.46.66-.61 1-.71a2.33 2.33 0 0 1 .79-.1h.65c.14-.13.33.13.44-.06 0 0 .13 0 .1.08.11-.09.31.09.47 0 .16.08.31 0 .48 0l-.05.06s.16-.14.19 0v-.08a4.56 4.56 0 0 0 1.17-.08c.28.1 0 .28.24.15 0 0 0-.06 0 0s.13.18.19.1 0-.06 0-.12c.17.07.21.16.34.08v.05c.16-.15.34-.07.48-.24h.68a1.6 1.6 0 0 1 1 .37 1.62 1.62 0 0 1 .56.92 1.71 1.71 0 0 1 0 .28v3c-.14.2-.14.22-.08.44s0 .15.12.18v.93c0-.05-.11-.08-.1 0l.07.06s.07.09.11 0c.1.82-.13 1.62-.1 2.42a2.1 2.1 0 0 0 0 .67 4.17 4.17 0 0 0-.17 1.78.55.55 0 0 1-.44-.29z"/><path class="cls-3" d="M18.36 49.48c.06 0 .09-.09.17 0s-.11.01-.17 0zm.64-1.9s.05 0 0 .06 0-.05 0-.06zm0-.49c.05 0 .09.11.1.17zm.2-.45h.07s-.05.01-.07 0zm-.12-.03s0-.06.06-.07.03.08-.06.07zm.15-.98v-.1s.08.11 0 .1zm-.08-.46h.07zm2.18-5.57l-.05.02.01-.05.04.03zm3.67 0zm1.05.78v-.02l.11.01-.11.01z"/><path class="cls-1" d="M37.66 15.49l-1.83-.38a.66.66 0 0 0-.59.17l-1.35 1.29-.2-1.86a.66.66 0 0 0-.34-.51l-1.64-.89 1.7-.76a.66.66 0 0 0 .38-.48l.34-1.84 1.25 1.38a.66.66 0 0 0 .57.21l1.85-.25-.93 1.62a.66.66 0 0 0 0 .61z"/><path class="cls-2" d="M37.58 15.61c.08 0 0-.07.06 0s-.04.03-.06 0zm.05-.4c-.28-.15-.26-.54-.49-.74 0 0 .1 0 0-.09a.88.88 0 0 1-.24-.38.56.56 0 0 1 0-.51s-.05-.13 0-.18 0-.11 0-.16.07 0 .11 0v-.07c-.09-.17.14-.22.14-.39a3.29 3.29 0 0 1 .26-.69.36.36 0 0 0 .13 0c-.09 0-.08 0-.07-.08s-.06 0 0-.13c-.11 0 .12-.12 0 0l.08-.07c-.2.13 0-.06-.12 0h-.08c-.12 0-.11 0-.19.08 0-.07.12 0 .17-.15a4.74 4.74 0 0 1-1 .21s-.07 0-.08-.06-.13 0-.15.08-.06.1-.13.07a.07.07 0 0 0 0-.08c0 .07-.13.07-.21.08s-.13 0-.21 0c-.07-.09-.07.08-.14 0s-.22-.11-.29-.15c-.07-.06-.12-.15-.21-.2s.09-.07 0-.13-.14-.1-.18 0c0-.07-.11-.2-.16-.2s0-.12.1-.07v-.09s0 .06.05 0-.13-.08-.15-.12-.15.08-.2 0 0-.15 0-.15a.37.37 0 0 0-.1.16v-.11a.2.2 0 0 1 0 .08.36.36 0 0 1-.1-.21v-.08h-.06v.14s0-.12 0 0v.08a.43.43 0 0 1 0 .1v-.15l.05.4c0 .07-.05-.14 0-.12s0 .26 0 .22.05.06 0 0-.06 0 0 0 0 0 0 .07a.33.33 0 0 1 0 .3s.07.09.07.12h-.05s0 .1-.06.1 0-.25 0-.16.07.13 0 .1 0 .13 0 .17-.07-.06-.07 0v.1c.05 0 0 .07 0 .05s0 .13-.08.1h-.07s.06.07.09.12c.11 0 0 .11 0 .2s-.17.24-.25.22a.28.28 0 0 1-.18.19v-.06s-.07 0-.1.07-.1 0-.16 0 0 .1 0 .14-.12.13-.22.07.06-.08 0-.09S33.06 13 33 13l.06.07c-.06 0-.09.1-.12 0s-.11 0-.05.09c-.11 0-.08.08-.3 0a.21.21 0 0 1-.14 0c-.14 0 .15.1.06.1h-.09.08a1.5 1.5 0 0 1-.3 0H32h.08c-.05 0 0 0 0 0a.17.17 0 0 0 .1 0h.15-.06.04s-.13 0 0 0h.17-.12.31a.07.07 0 0 0 .07 0s-.15.16-.07.12.11-.06.12-.09.21.05.24.17 0 0 .06 0 .32.1.38.26c-.05 0 0 0 0 .08s0 .07.08 0 0-.06 0-.11c.14 0 .31.21.31.3s0 0 .06 0 0 .12 0 .18v.07s.11 0 .09.09c.06.08.13.16.1.22l-.07.06s.06.06.07 0c0 .1 0 .17-.09.21a.7.7 0 0 1 .19.43s.06 0 0 0-.07.06-.11.08.06 0 .08 0 0 .07 0 0l-.1.12c-.07.13-.14.1-.23.24-.06.12-.09 0-.1.12s.13-.09.16-.16.15-.19.15-.14 0 0-.06.07 0 0 0 .05a.87.87 0 0 1 .1-.18c0 .07-.06.1-.06.14a1 1 0 0 0 .08-.17c.08-.17 0 .07 0-.07-.05.14-.13.28-.15.38l.1-.23v-.13l-.08.22c0 .07.1-.26 0 0v-.13.13s.06-.18 0 0a.27.27 0 0 0 0-.14v-.13.06a.29.29 0 0 0 0-.08.63.63 0 0 0 0 .08v-.09.18s0 .05 0 0a1.82 1.82 0 0 0 0-.21s0 .07 0 0v.16a.26.26 0 0 0 0-.14.19.19 0 0 1 0 .06v-.09a.23.23 0 0 0 .11.09v.09c0 .08 0 0 .09.1s0-.05 0-.08 0-.18-.14-.25c.06-.1.24.15.2-.06 0 0-.05-.11-.08 0s0-.11 0-.14.12 0 .11.14-.05 0-.06 0 .07.08.12 0 .07-.08 0-.12 0 .05-.07 0 .12 0 .07-.12-.09 0-.12 0v-.06c.09 0 0-.08 0-.14h.09c0 .07-.13.08 0 .15s0-.1.09-.12.13.08.19-.07 0 0 0-.08a1.21 1.21 0 0 1 .27-.2c0 .08.19 0 .09.07-.06 0-.3.05-.29.16s-.11.05-.07.16c.09-.07.14 0 .19.07s0 0 0-.06 0 0-.08-.1a.79.79 0 0 0 .28-.18.05.05 0 0 1 0 .1.59.59 0 0 1 .4 0c0-.11.12 0 .09-.09s-.08-.11 0-.15 0 0 0 .07 0 .1.11 0c-.1 0 0 .12-.08.19s0 .05.06.07a.82.82 0 0 1 .26 0c.08.09.25.05.34.07s0 .13 0 .15 0-.1.05 0 .15.09.2 0v.17h.17v-.06h.27v.05h.06s0 .09.06.06l-.18.1s.06-.06 0-.12-.1-.06-.13 0 0 0 .07 0-.06.06-.09.11a.16.16 0 0 1-.14 0v-.07s-.08.07-.15 0-.15 0-.23 0a.34.34 0 0 1 .16-.12s-.06 0-.1-.06-.07.12-.15.13v-.05c-.07 0-.08.09-.16.06a3.19 3.19 0 0 0-.37-.11v-.05c-.08.09-.2 0-.29 0h-.27s-.23.28-.44.43v-.08c0 .07-.05 0-.07 0s0 .1 0 .15-.16.16-.25.32c-.06.19-.23.24-.35.33s0-.06-.08 0a1.61 1.61 0 0 1-.22.39.76.76 0 0 1-.26.17l-.16.21c-.08-.25-.09-.68-.18-1l.05-.08a2 2 0 0 1-.13-.63 1.4 1.4 0 0 0-.06-.4h.1c0-.08 0-.16-.11-.14s-.07-.19 0-.21-.06 0-.08 0 0-.1-.08-.12 0 0 0-.06-.09-.09-.12 0c-.1-.13-.33-.12-.42-.27h-.06a1.25 1.25 0 0 1-.16-.12.83.83 0 0 0-.27-.13s.09 0 0-.06 0 0-.11 0a7.09 7.09 0 0 1-.89-.54l-.45-.21c.38-.19.85-.38 1.24-.57.1-.15.48-.11.52-.28h.1s.25 0 .33-.17c.13 0 .24-.13.33-.12.05 0 0-.12.08 0s0-.05 0 0a.17.17 0 0 0 .1-.17v-.46c.11-.2.2 0 .14-.16s.15-.07.1-.15 0-.06-.07-.07c.09-.2.15-.19.13-.39-.06-.28 0-.44 0-.79l.12-.74 1.75 1.8.16.19h.13c.36-.05.53-.07 1.3-.14.24.07.23.07.59 0 0 0-.05 0 0 0s.22 0 .36-.13l.53-.07-.4.73c0-.06-.06-.05-.09 0v.05s0 .09.08 0c-.13.27-.3.56-.46.83l-.18.28-.14.2-.14.2-.1.14a.13.13 0 0 0 0 .13 1.5 1.5 0 0 0 .22.43 3.61 3.61 0 0 0 .5 1.32.4.4 0 0 1 .26.42zm-.15.39s-.06-.08 0-.12.02.09 0 .12z"/><path class="cls-2" d="M36.1 14.88h.05s-.04-.01-.05 0zm-.44-.09s.13-.07.21-.06zm-.58.04c-.06 0-.06 0 0-.06s0 .03 0 .06zm.02.09a.14.14 0 0 1-.1 0s.07-.06.1 0zm-.68.48s0 .06-.06 0 .03-.04.06 0zm-.07.15a.17.17 0 0 1 0-.05zm-1.29-2.54l-.03.03-.01-.03h.04zm1.22-2.12zm.72.45l-.01-.01.06-.05-.05.06z"/><path class="cls-1" d="M3.33 16.41l1.15 1.28a.6.6 0 0 0 .53.2l1.7-.22-.86 1.48a.6.6 0 0 0 0 .56l.73 1.55-1.7-.36a.6.6 0 0 0-.54.15l-1.25 1.18-.18-1.71a.6.6 0 0 0-.31-.47l-1.5-.82 1.57-.69A.6.6 0 0 0 3 18.1z"/><path class="cls-2" d="M3.46 16.35c-.06 0 0 .07-.05 0s.06-.03.05 0zm-.27.28c.14.27-.1.54 0 .82H3.1a.75.75 0 0 1 0 .46.5.5 0 0 1-.28.37s0 .13-.09.15-.08.07-.08.12 0-.05-.09-.07v.08c0 .19-.22.09-.31.22a2.76 2.76 0 0 1-.56.37.44.44 0 0 0-.14 0c.09 0 .06.07 0 .1s0 .06-.1.07c.12 0-.16 0 0 0h-.1c.24 0-.05 0 .1.05h.06c.12 0 .07.07.19 0h-.23a4.09 4.09 0 0 1 .87.4v.1h.16v.06h.13a.07.07 0 0 0-.06.06h.2s.08.1.15.13H2.8c0 .11.1 0 .11.07s0 0-.05 0 .11.2.14.27a1 1 0 0 0 0 .27s-.11 0-.09.09.05.15.15.09 0 .18 0 .22-.11.08-.12 0v.07s0-.06 0 0 .05.13 0 .17.16 0 .18.05-.09.13-.11.12a.46.46 0 0 0 .17-.09s-.06.1 0 .11a.25.25 0 0 1 .05-.06.35.35 0 0 1 0 .22v.07c0 .06 0 0 .08-.12s0 .12 0 0v-.06l.05-.07-.06.14.18-.34v.12s.12-.23.15-.14 0-.08 0-.06 0 .07 0 0v-.06s.06-.18.15-.19a.15.15 0 0 1 0-.13s.06-.07.1 0-.12.2-.1.1 0-.14.06-.07 0-.12.11-.12 0 .09.05.05 0 0 0-.09.06 0 0-.07.06-.1.12 0v-.09c-.06-.1.1-.06.11-.16s.26-.09.32 0a.26.26 0 0 1 .24 0h-.05.11s.06.08.1.13.05-.08.07-.12c0 .12.16 0 .2.07s-.09 0-.05.07.11-.06.18 0v-.09c0 .06.12 0 .09.06s0 0 0-.05c.07.09.1 0 .24.17a.26.26 0 0 1 .1.12c.11.08-.08-.17 0-.12s.06.07.07.06l-.05-.08a1.67 1.67 0 0 1 .23.2v-.06l.16.11c-.02.1 0 .1.01.1a.2.2 0 0 0-.09 0L6 20.8c.11.08.06 0 .06 0l-.1-.08h.07s.12.07 0 0-.18-.11-.14-.1l.1.07h-.08c-.09-.05 0-.06-.14-.11s0 0-.06-.06 0 0-.06 0h.14-.16v-.06a.16.16 0 0 1 0-.15h-.06s-.19-.25-.14-.4h.08s0-.07-.06-.05-.07 0-.06.09a.43.43 0 0 1-.07-.4h-.05s.09-.08.08-.16h.06s-.09-.06 0-.12h.06v-.22h.08s0-.08-.05-.05.12-.11.19-.1a.56.56 0 0 1 0-.3.08.08 0 0 1 0-.07s-.07 0 0 0a.94.94 0 0 1 .14 0h-.07s.06 0 0 0h.16c.14-.07.18 0 .34-.08.13-.07.07 0 .16 0s-.17 0-.23.05-.24.07-.22 0 0 0 .1 0a1 1 0 0 1-.18.09c.06 0 .11-.05.13-.08l-.17.09c-.16.09.05 0-.07 0 .13-.09.27-.15.34-.22l-.22.13h-.11l.21-.39c.05 0-.23.15 0 0l-.11.08.1-.09s-.16.11 0 0a.3.3 0 0 0-.11.09s.08-.06 0 0c.09-.09 0 0-.06 0l-.06.06.06-.07-.06.07s.09-.12.06-.09l.05-.05-.13.18s0-.07 0 0v-.16a.32.32 0 0 0-.07.13.23.23 0 0 1 0-.07v.1a.28.28 0 0 0 0-.14v-.22h-.06v.28s-.1-.26-.18-.07v.08s0 .12-.11.08-.07-.1 0-.18 0 0 .06 0 0-.11-.07-.1-.09 0-.08.08.06 0 0 .05-.1-.06-.12.05.07 0 .07.09h-.05c-.1 0 0 .08-.11.08l-.05-.08c0-.07.14 0 .1-.1s-.07.06-.13 0-.05-.15-.18-.06 0 0 0 .08a1.16 1.16 0 0 1-.32 0c0-.07-.16-.08 0-.11s.26.13.31 0 .11 0 .14-.09-.1-.1-.11-.17 0 0-.06 0 0 .06 0 .13a.68.68 0 0 0-.31 0 .05.05 0 0 1 .17.02.54.54 0 0 1-.29-.25c0 .11-.09-.06-.12 0s0 .13-.06.14 0 0 0-.05 0-.11-.07-.08c.09 0 .1-.07.17-.11s0 0 0-.08A.72.72 0 0 1 4 17.5c0-.12-.16-.18-.21-.24s.09-.1.07-.14 0 .09-.07 0-.01-.12-.12-.12h.09s0-.05.06 0-.08-.07-.12-.11v.06c-.1 0-.1-.12-.17-.18h-.06v-.08h.19c0 .05-.08 0-.1.07s0 .1.09.07 0 0-.06 0h.14a.14.14 0 0 1 .11.06v.05h.14s.12.06.16.13a.33.33 0 0 1-.19 0v.1S4 17 4.08 17h.15a2.7 2.7 0 0 0 .21.29c.12 0 .15.11.23.13s.17.07.18.17.32-.08.56-.09v.08c0-.06 0 0 .07 0s0-.08.07-.13.25 0 .41-.11v.05c.16-.12.3-.05.44-.05s0 .07 0 .06a1.61 1.61 0 0 1 .4-.18.59.59 0 0 1 .28 0l.24-.07c-.06.22-.3.55-.4.83h-.09a1.64 1.64 0 0 1-.25.56 1.29 1.29 0 0 0-.19.35l-.16.11a.09.09 0 0 0 0 .17c-.06 0-.05.19-.12.15s0 .05 0 .07v.11h-.07s0 .11.11 0c0 .15.19.27.16.43h.07a1.65 1.65 0 0 0 .22.48h-.05l.1.06a5.84 5.84 0 0 1 .36.88c.08.13.16.27.23.4-.39-.06-.83-.18-1.22-.25-.15.06-.41-.19-.54-.07s-.16 0-.12-.08-.21-.11-.34-.05c-.09-.07-.25 0-.31-.09 0-.05-.05.1-.07 0s0 .06 0 .06a.13.13 0 0 0-.15.06l-.27.33c-.2.09-.14-.14-.2 0s-.19 0-.19.08v.11c-.17.1-.21 0-.3.21V22c-.11.26-.27.32-.42.63l-.49.49-.21-2.32v-.23l-.1-.05-.4-.22-.71-.42c-.12-.18-.12-.17-.44-.3h.07c-.15 0-.19-.09-.35-.09L0 19.18l.69-.32c-.05 0 0 .07.09 0v-.06s0-.07-.06-.06a10.28 10.28 0 0 1 1.37-.59l.21-.07h.14a.08.08 0 0 0 .12-.08 1.26 1.26 0 0 0 .07-.43A3.06 3.06 0 0 0 3 16.34a.39.39 0 0 1 .19.29z"/><path class="cls-2" d="M3.53 16.41s0 .09-.07.1.04-.08.07-.1zm.6 1.31s-.01.01 0 0zm.29.28s-.14 0-.19-.07zm.45.34s0 .05 0 0-.01.02 0 0zm.05-.08a.13.13 0 0 1 .09 0s-.11.06-.09 0zm.76.02s0 .05 0 0zm.06-.07v.05zm-.35 2.52l.04-.01-.01.03-.03-.02zm-2.04.88v-.07s-.02.09 0 .07zm-.31-.68l.01.01h-.08l.07-.01z"/></g></g></svg>