<svg xmlns="http://www.w3.org/2000/svg" width="23" height="53" viewBox="0 0 23 53"><g fill="none"><path fill="#43454A" d="M12.09 25c.35-.37-.25.13.22-.26-.04.11-.118.202-.22.26z"/><path fill="#43454A" d="M12.89 24c.92-1.38 2.55-2.82 3.52-4.36.12-.17.07.12.33-.28.91-1.49 2.37-3.8 3.32-5.72v.13c.165-.416.31-.84.43-1.27 0 0 0 .14.05.06.05-.08.21-.75.2-.95-.01-.2.13-.13.21-.34v-.26c0-.7.29-1.64.23-2.58 0 0 0 .14.05.07.016-.803-.06-1.605-.23-2.39-.276-.81-.7-1.563-1.25-2.22h.11c-.286-.202-.548-.437-.78-.7-.08-.21-.6-.47-1-.82-.35-.17-.44-.37-.75-.45-.053-.063-.11-.123-.17-.18-.21 0-.45-.34-.78-.39-.222-.102-.45-.193-.68-.27-.62-.18-1-.26-1-.18-.21-.12.62.09.3-.1-1.083-.12-2.177-.12-3.26 0-1.086.066-2.15.32-3.15.75-.146.055-.296.095-.45.12-.293.168-.568.366-.82.59.06 0-.14 0-.24.11-.34.21-.27.35-.62.6.11-.13.13-.2.07-.19-.23.3-.59.64-.87 1 0-.06.1-.14.07-.15-.26.41-.61.63-.82 1L5 4.38c-.47.5 0 .23-.41.67.07-.12 0-.1 0-.13-.316.57-.593 1.162-.83 1.77-.233.57-.388 1.17-.46 1.78-.07.23-.14-.1-.19.53.1 0 0 1.06.13.7-.052.57-.03 1.146.07 1.71-.08-.23-.1.28-.18-.16v.34c-.05 0 0-.35-.08-.23l.21 1.06c.17.39.38.73.62 1.34-.15-.28-.06.21-.15 0 .18.27.38.52.57.77.19.25-.07.08.1.36 0 0 .1.09.16.17.06.08.43.81.38.94-.05.13-.19-.31-.11-.07s.23.36.44.71c.12.25.45.66.35.38-.1-.28 0 .1-.13-.16.238.268.45.56.63.87-.09-.11-.11-.08-.16-.11.37.41.72.88 1.1 1.35 0 0-.21-.13-.24-.22.39.69 1 1.24 1.36 1.82-.07-.08 0-.09 0-.08.23.3.16.34.34.51 0 0 .21.23.38.42.17.19 0 .07-.12-.1.605.633 1.172 1.3 1.7 2 .198.127.377.282.53.46h-.1c.08.16.42.48.39.54.33.25-1.06-1.14-.66-.76 0 .15.58.51.43.48.27.256.514.537.73.84-.06-.09-.28-.17-.07.06.36.4.13.1.43.41l.2.19c.06 0 .31.37.23.17 0 .09.55.55.43.59h-.12c.146.126.307.234.48.32v.09c0 .01.37.41.64.54.353.355.687.73 1 1.12.305.232.586.493.84.78-.07-.05-.15-.13-.19-.13.117.158.26.297.42.41.148.24.308.475.48.7.28.25.25.1.31.1.13.34.78.73 1 1.14-.1-.09-.41-.37-.23-.11.18.26.53.46.84.93V32c.11.23.57.6.44.63.15.12.37.54.42.43.57.748 1.037 1.57 1.39 2.44.09.1.21.41.23.32.02-.09-.18-.25-.18-.34.06.1.1.11.12.11.11.27.19.48 0 .27.21.6.47.5.73 1.29-.06 0-.05 0 0 .27s.14.27.22.41c.14.52 0 .32-.08.35.054.25.13.494.23.73v.35c0-.26.09.22.11.35v-.13c-.06.168-.1.343-.12.52.03-.185.03-.375 0-.56 0 .14.06.37.11.56-.07-.06 0 .47 0 .69-.004.125.013.25.05.37 0 0 0 .42-.07.22.012-.116.012-.234 0-.35-.077.155-.105.33-.08.5 0 .27.16-.05.06.44.01-.09.01-.18 0-.27l-.09.46h.07c0 .06 0 0 0 0s-.1.71 0 .84c-.063.237-.14.47-.23.7-.11.273-.187.56-.23.85-.08.22-.147.443-.2.67-.2.33-.29 0-.38.44-.09.44-.14.6 0 .48-.303.647-.678 1.258-1.12 1.82-.01.088-.044.17-.1.24-.573.84-1.31 1.555-2.17 2.1.22-.2 0-.07-.05-.1-.16.2-.27.12-.28.26-.01.14.06.08.31-.07-.487.412-1.033.75-1.62 1 .16-.06.06 0-.06.1 0-.11-.41.09-.72.25v.08h-.23c-.11.07-.09.17-.43.24-.038-.016-.082-.016-.12 0-.36.213-.75.365-1.16.45h-.33c-.16.05-.42.16-.13.12-.427.092-.865.122-1.3.09-1.365.304-2.787.224-4.11-.23h.05c-.33-.15-.2 0-.43-.1.12 0-.23-.18.06-.14-.325-.125-.66-.222-1-.29-.07 0 .26.08.17.12-.09.04-.62-.36-.74-.32-.12.04 0-.1.1-.1l-.29-.12c-.28-.27.85.26.56-.05l-.25-.12c-.19-.21.7.25.1-.1-.28-.12-.58-.14-.36 0-.56-.31-.37 0-.95-.39-.12-.15.47.32.4.18-.23-.24-.56-.36-.76-.58.23.24 0 .13-.22 0-.23-.28.23.1-.13-.26-.1 0-.46-.32-.2 0-.23 0-.35-.41-.6-.56 0-.18.49.27.16-.18 0 .13-.52-.49-.43-.17-.12-.2-.08-.25.06-.15-.15-.28-.55-.59-.45-.76L2 48.22c0-.1-.06-.24-.09-.41-.03-.17-.41-.81-.28-.81 0-.08-.2-.69-.22-.44-.02.25.18.42.14.67-.036-.27-.124-.533-.26-.77-.04-.174-.094-.344-.16-.51 0 .1.07 0 .06-.07l-.1-.13c-.11-.54.1-.15 0-.67 0 .13.06.26.1.39v-.52c-.08-.09-.17-.27-.22-.35 0-.3.07-.14 0-.43l.1.38c0 .06.09-.26.09-.66s-.12-.65-.16-.25c0-.2.05-.48.09-.32 0-.45-.07.06-.1-.33 0-.16.15-.64.25-.93l.08.41v-.26c.06.35.08-.17.16 0 .014-.19.014-.38 0-.57-.22.51-.13-.62-.28-.49.1-.73.4-.39.35-1.18-.06.11-.09-.26-.15.2.12-.44-.07-.34.12-.85 0 .4.24-.38.18.2 0 0-.12.3-.12.39.09-.17.12.07.24-.38.05-.28.16-.65.08-.61-.08.04-.11.42-.14.22.13-.55.28-.6.22-.87-.1.34-.2.41-.25.38l.09-.41v.09c.26-.62 0-.22.2-.83l.21-.25c0 .17-.36.87-.18.81.077-.307.178-.608.3-.9l-.08.29c.21-.223.35-.5.41-.8.08-.3 0-.1-.06-.12.26-.62.29-.82.48-1.22.05.12.36-.67.23-.2-.277.39-.474.833-.58 1.3.21-.17-.22.48-.16.66.21-.49.32-.42.42-.46.05-.116.09-.237.12-.36 0-.09-.12.09-.2.06.23-.447.424-.912.58-1.39.13-.16.17-.07.06.14.314-.636.675-1.247 1.08-1.83-.34.3.38-.64.14-.45s-.47.5-.4.3c.07-.2 0 0 .12 0 .1-.28.33-.32.41-.61-.33.56.06.19.07.34.22-.41 0 .06.31-.32s.51-.89.79-1.32c.45-.47 1-1.31 1.32-1.76.23-.21.19 0 .4-.22.21-.22-.27.15.12-.26v.06c.09-.15.71-.75.71-1v.21c.067-.072.124-.153.17-.24 0 0 .14 0 0 .1.267-.255.51-.537.72-.84l-.22.13c.4-.52.74-.79 1.16-1.26v.06l.23-.3c0 .11.26-.1.35-.28l-.56.81c-.22.17.14-.27 0-.2-.227.156-.412.366-.54.61.097-.095.182-.202.25-.32.12 0-.11.26-.18.42.08-.09.21-.19.21-.23-.157.232-.334.45-.53.65.14-.22-.14.06-.09 0 0 .08-.18.37-.51.7-.33.33-.52.71-.88 1.11.09-.27.218-.526.38-.76-.25.24-.24.29-.49.53-.052.25-.154.49-.3.7h-.06c-.135.278-.296.542-.48.79-.56.68-1.09 1.42-1.48 2h-.07c-.11.38-.67 1-.87 1.51-.51.69-.87 1.63-1.16 2-.6 1.323-1.084 2.695-1.45 4.1v-.27c0 .29-.1.16-.15.43.14-.29 0 .39 0 .59-.13.662-.16 1.34-.09 2.01h-.06c.08.62 0 1.35 0 2.11-.036.15-.036.31 0 .46.16.39.18.61.39 1.17.13.516.3 1.02.51 1.51.922 1.39 2.238 2.473 3.78 3.11l.08.12c.83.274 1.684.47 2.55.59.805.112 1.622.092 2.42-.06l-.11.15c.44 0 1-.23.86-.29.45-.06 1.06-.34 1.35-.34.295-.103.577-.24.84-.41.662-.242 1.285-.58 1.85-1l-.18.11c-.07.07 0 .12.14 0s1-.66.63-.59c.792-.603 1.492-1.317 2.08-2.12-.08 0 0-.15.07-.25.45-.617.82-1.29 1.1-2 .07-.11 0 .22.12-.08s0 0 0-.25c.47-1.175.77-2.41.89-3.67.024-1.023-.118-2.043-.42-3.02-.334-.984-.773-1.93-1.31-2.82-.45-.51-.77-1.41-1.25-1.74-.08-.15-.37-.5-.25-.44-.4-.38-.92-1.24-1.53-1.76.045.052.095.1.15.14-.49-.64-1-1.1-1.59-1.76.07.05.19.16.23.16-.19-.28-.64-.48-.66-.71-.02-.23-.15 0-.06 0-1.27-1.38-2.75-2.8-4-4.29-.84-1.12.13-.23-.67-1 0-.09-.09 0-.07 0-.31-.3-.31-.62-.56-.79 0 .15-.17-.12-.21-.09-.29-.487-.624-.946-1-1.37h.07C7.54 21 7 20.2 6.51 19.74 5.17 17.97 4.05 16.042 3.18 14c-.83-2.1-.997-4.403-.48-6.6.298-1.083.797-2.1 1.47-3 .66-.886 1.422-1.692 2.27-2.4.88-.725 1.902-1.26 3-1.57 1.085-.296 2.206-.44 3.33-.43 1 .14 1.11.08 2.29.23h-.05.46c.162.095.343.154.53.17 1.558.558 2.938 1.52 4 2.79-.19-.2-.35-.24-.12 0l.26.22v.06c.15.16.34.33.23.13.75.88 1.246 1.948 1.43 3.09.033.536.033 1.074 0 1.61 0 .52-.07 1-.15 1.56-.143 1.046-.405 2.073-.78 3.06-.39 1-.82 1.88-1.28 2.8-.46.92-1.12 2.07-1.7 3C16 21.21 14 23.12 12 25.51c.174-.566.48-1.084.89-1.51z"/><path fill="#43454A" d="M11.65 25.4c-.11 0-.39.27-.23 0 .06.03.23-.06.23 0zm-6.47 6.99s-.09.1-.12.12c-.03.02.09-.22.17-.28-.07.1-.04.1-.05.16zm-1.34 2.07c.087-.282.212-.55.37-.8-.13.26-.21.54-.37.8zm-1.19 1.99c-.11.17-.11.11 0-.14.02-.01 0 .08 0 .14zm.03.19c-.05.12-.116.23-.2.33 0 0 .15-.42.2-.33zm-1.5 4.83c0 .17-.024.337-.07.5.04-.13.02-.6.07-.5zm-.09 2.36c-.01.066-.01.134 0 .2 0 .14-.05 0-.06-.13l.06-.07zM18.11 31.66l.17.18h-.05M6.26 17.86c-.16-.19-.06-.17-.07-.2.13.18-.09-.04.07.2zM3.22 8.88l-.01.07-.09-.04"/><path fill="#91CC85" d="M12.16 13.91c-.51-.976-1.315-1.767-2.3-2.26-.46-.232-.983-.31-1.49-.22-.406.16-.754.44-1 .8-.6 1.41.11 3.37 1 4.83 1.04 1.704 2.244 3.305 3.59 4.78 2.545-2.174 4.447-5.003 5.5-8.18.286-.594.286-1.286 0-1.88-.588-.59-1.48-.753-2.24-.41-1.237.518-2.285 1.405-3 2.54"/><path fill="#80B05A" d="M12.55 13.69c-1.07-1.76-3-3.25-4.89-1.89-3.27 2.37 2.23 8.41 3.88 10.26.27-.13.53-.28.78-.45 1.34-1.18 8.57-9.79 4.49-10.59-1.87-.37-4.12 1.91-5 3.12.16-.22.61-.23.78-.45.643-.913 1.463-1.688 2.41-2.28l-.76.44c.82-.35 2.2-.79 2.84.16.64.95-.28 2.76-.73 3.73-1.126 2.42-2.752 4.573-4.77 6.32l.78-.45c-1.66-1.86-7.1-7.81-3.91-10.24l-.78.45c1.69-.8 3.36 1 4.14 2.31l.78-.45-.04.01z"/><path fill="#43454A" d="M4.08 43.86c-.06 1.2.255 2.387.9 3.4 3 4.46 9.11 2.4 10.63 1.46 1.526-.89 2.667-2.316 3.2-4 .238-.628.156-1.333-.22-1.89-.443-.423-1.028-.665-1.64-.68-1.63-.19-4.32.64-6.44 1.23s-4.57.87-6.39-.31c-.12.15 0 .46 0 .81"/><path fill="#43454A" d="M4.21 43.95c0-.14-.05.08 0-.09.022.026.022.064 0 .09z"/><path fill="#43454A" d="M4.14 43.47c-.08-.17-.07-.53.14-.32.277.19.59.324.92.39.06 0 0 .08.09.1.5 0 1.22.21 1.81.32.11 0 .25-.07.37-.06.12.01 0 0 0 0s.22 0 .26-.07c.04-.07 0 .06.11.08l.06-.06c.18-.15.46 0 .71-.14.4-.14.91-.22 1.35-.36v.08c0 .01.14-.11.26-.16s.19-.11.34-.11c.08-.09.16 0 .23-.11h.08c0-.1.16 0 .23-.06h.2c.17-.07.28-.05.26-.12-.02-.07-.16.07 0 .13.566-.22 1.148-.397 1.74-.53h.14c.09-.027.178-.064.26-.11h.08c.08 0 .1-.1.22-.1 0 0-.05.06 0 .08.104-.066.22-.113.34-.14 0 0 .24 0 .35-.1.19 0 0-.1.2-.1v.05c.167-.083.346-.14.53-.17.16 0 .33 0 .51-.08s0 .1.16.07c0-.09.29-.05.18-.14.163.013.327.013.49 0-.07 0 .07.1-.05.11l.09.05h-.07c.096-.013.194-.013.29 0 .127-.075.273-.113.42-.11-.09 0 0 .1 0 .1l.29-.11c.06 0 0 .07.09.07h.07c.07 0 .27.06.26.15-.01.09-.1 0 0 0s.12 0 .23.06c.06 0 .22.08.17 0-.05-.08 0 .05-.07 0 .116.004.226.05.31.13h-.08c.18.06.34.172.46.32 0 0-.1 0-.1-.05.11.22.32.42.29.64v.36c0 .08 0 0 0 0 .074.25.074.52 0 .77v.22s0 .18-.09.18.06-.45.07-.28c.01.17 0 .24 0 .18 0 .11 0 .22-.08.31s0-.11-.06 0 0 0 0 .17v.08s-.05.13 0 .09c.05-.04-.06.22-.13.17h-.05v.19c.09.05-.08.14 0 .25.08.11-.18.31-.26.34-.02.11-.07.213-.14.3v-.07c0-.01-.05.08-.08.15-.03.07-.14.09-.21.14-.07.05 0 .11 0 .13-.14 0-.13.28-.29.32 0 0 .06-.15 0-.1-.06.05-.07.2-.21.28h.09c-.08 0-.12.2-.17.13-.05-.07-.15.11-.08.16-.23.14-.43.46-.65.45 0 0-.1.08-.06.1.04.02 0-.08.08-.07-.07 0-.13.07-.11 0-.17.07-.06.22-.26.33h-.08l-.07.12c-.13.07-.11 0-.15-.06-.04-.06-.14.1-.15.16h-.12c.08 0 0 .06-.06.09 0 0-.1 0-.13.07s.12 0 .17 0c.05 0-.08.07-.11.12-.03.05-.13 0-.19.06s0 .08-.07.09c-.07.01-.11 0-.08 0H15.58c-.07 0 .06.09-.08.12v-.08h-.13s-.17.1-.18.16c-.067.005-.133.005-.2 0-.085.007-.164.046-.22.11-.063.02-.12.055-.17.1-.11 0-.1-.17-.19-.07s-.13.14-.08.16c-.19 0-.38.17-.57.14l-.05.06c-.258.1-.533.15-.81.15.08 0 0 0 0-.08s-.09 0-.1.05c-.01.05 0 .07.09.07-.165.065-.344.09-.52.07v.05c0 .05-.12-.07-.21 0h-.07s0 .1-.13.07c-.102.062-.22.09-.34.08l-.09-.06s-.12.05 0 .07c-.18 0-.3 0-.36-.08-.366.128-.76.16-1.14.09-.1 0-.06.05-.12 0s-.07-.07 0-.11H9.68c-.03 0-.19-.06-.22 0s0-.07 0-.1H9c-.09-.1.26-.09.16-.2h-.03c-.06-.08.21 0 0-.1S9 50 9 50.06c-.18 0-.11.14-.3.09-.19-.05.15 0 .13 0h-.26c.08 0 0 .09-.07.09s.08 0-.06-.08-.17 0-.06.08c-.07.08-.14-.06-.23 0s.18-.09 0-.16-.2 0-.15.12c.05.12 0-.08 0-.1 0-.02-.23 0-.22-.09l-.08-.1c-.07 0-.26 0-.22-.09.04-.09-.18-.08-.15 0s.13 0 .15.12c0-.1-.15-.06-.21-.07 0 0-.11-.05-.15 0-.04.05 0 0 0-.05h-.06c-.15 0 0-.1-.13-.15h.12s0-.07-.12-.09l-.16.08c-.09 0 0-.06-.11-.06h.13s0-.09-.12-.16-.2 0-.12.06c.08.06-.1-.1 0-.11-.11-.06 0 .05-.12 0s-.11-.17-.15-.26h.14-.06c.12 0 0-.07.07-.09-.043-.036-.095-.06-.15-.07.06.17-.23 0-.25.12-.18-.11.06-.27-.2-.3 0 0-.12 0 0 .1-.09-.1-.13 0-.22-.12.11 0 0-.16.14-.09 0 0 0 .08.07.09.07.01.07-.07 0-.16s-.14-.12-.17-.07c-.03.05.09.08 0 .09-.09.01-.09-.17-.21-.15.08.06.06.12 0 .15l-.1-.07c-.12-.15-.09 0-.22-.13v-.23c.07 0 .16.22.21.12.05-.1-.15-.08-.2-.19l.07.05s.14-.18-.02-.18h-.07c-.13-.14-.19-.16-.28-.26.08 0-.13-.18 0-.11.13.07.18.29.27.3.09.01.08.13.18.1-.09-.12 0-.17 0-.23-.025-.027-.056-.047-.09-.06-.05 0 0 .06-.06.1-.078-.125-.188-.225-.32-.29 0-.06 0-.08.09 0-.127-.165-.225-.35-.29-.55 0 .15-.12-.18-.15-.07-.03.11 0 .21 0 .18v-.05c0-.05 0-.15-.1-.19.11.16.11 0 .19 0-.09-.1 0 0 0-.13-.1-.11-.184-.236-.25-.37-.04-.206-.1-.407-.18-.6 0-.09.11-.05.1-.14-.01-.09-.07.1-.06-.07 0 0 0-.29-.12-.32h.09v-.08c0-.03 0 0 .07 0s0-.2-.05-.3v.07c-.064-.15-.114-.303-.15-.46v-.1s.07-.08 0-.13l.14.26c0 .08-.07-.08-.11 0-.044.067-.044.153 0 .22.012-.036.012-.074 0-.11.07 0 .07.07.12.11.05.04 0-.08 0-.08.037.068.057.143.06.22 0-.07 0 0-.06 0s.09.1.09.23.08.23.09.38c-.074-.05-.133-.12-.17-.2v.2c0 .1.13.06.18.17 0 .1.11.09.13.22.043.217.11.428.2.63.13.05.18.28.29.38.11.1.32.39.33.53l.4.44c.14.14.29.26.43.41H6c.09 0 0 .06.07.11s.12 0 .18 0c.1.18.35.25.5.31.18 0 .3.21.49.3.01.05.044.09.09.11.116-.02.234-.02.35 0 .1.06.29.13.39.2.452.104.91.18 1.37.23v.06c.47-.05 1 .06 1.41 0v.09c.13 0 .28 0 .25-.11.13 0 .3-.07.39 0 .09.07.15-.06.25-.08.196 0 .39-.028.58-.08h-.06v.06s.33 0 .22-.13c.26 0 .57-.17.83-.16l.05-.07c.217.004.433-.027.64-.09 0 0 0 .07.05 0s0 0 0-.07c.32-.17.7-.21 1-.37.488-.297.953-.63 1.39-1 .08-.18.38-.23.39-.43 0 0 .12-.11.13-.06.06-.15.32-.27.39-.48.17-.14.23-.33.39-.49v.08c0 .02 0-.22.15-.21.15.01 0-.06 0 0 .282-.427.476-.907.57-1.41.15-.33.18 0 .17-.27 0 0 .14-.15.1-.23-.04-.08 0-.05-.07-.06.06-.21.11-.26 0-.42-.11-.18-.13-.39-.3-.46-.302-.383-.762-.608-1.25-.61-.54-.073-1.09-.073-1.63 0-1.128.18-2.246.416-3.35.71-.203-.025-.41.014-.59.11 0 0-.2.06-.21.14l-1.26.35c.07 0 .09-.09 0-.07l-.07.17c-.06 0-.11.07 0 .08-1.132.292-2.307.38-3.47.26l-1-.14c-.25-.093-.493-.2-.73-.32-.075-.03-.145-.072-.21-.12l-.14-.1c-.07-.08-.11 0-.09.07-.005.07-.005.14 0 .21 0 0-.15-.03-.22-.39z"/><path fill="#43454A" d="M4.22 44.12s0 .13-.1.06.07-.07.1-.06zm.2 2.67v.05c0 .05-.06 0-.06-.08s.04.02.06.03zm.33.62s-.14-.1-.19-.18l.19.18zm.3.59c0 .06 0 .06-.05 0s0 0 .05 0zm.09 0c.012.036.012.074 0 .11 0 0-.05-.11 0-.11zm.97 1.08s.11 0 .11.09-.16-.07-.11-.09zm.58.34h-.05.05zM17.63 47.34l-.03.06-.02-.03M18.59 42.48c-.07 0 0-.06 0-.07 0-.01-.07.01 0 .07zM15.82 42.06h.02v.06"/></g></svg>