<svg xmlns="http://www.w3.org/2000/svg" width="23" height="53" viewBox="0 0 23 53">
  <g fill="none" transform="translate(0 -1)">
    <path fill="#43454A" d="M12.09,26 C12.44,25.63 11.84,26.13 12.31,25.74 C12.2701147,25.8501847 12.1920632,25.9424274 12.09,26 Z"/>
    <path fill="#43454A" d="M12.89,25 C13.81,23.62 15.44,22.18 16.41,20.64 C16.53,20.47 16.48,20.76 16.74,20.36 C17.65,18.87 19.11,16.56 20.06,14.64 L20.06,14.77 C20.225457,14.3544824 20.3689878,13.9305658 20.49,13.5 C20.49,13.5 20.49,13.64 20.54,13.56 C20.59,13.48 20.75,12.81 20.74,12.61 C20.73,12.41 20.87,12.48 20.95,12.27 L20.95,12.01 C20.95,11.31 21.24,10.37 21.18,9.43 C21.18,9.43 21.18,9.57 21.23,9.5 C21.2464949,8.69710142 21.1693069,7.89501807 21,7.11 C20.7238968,6.29920431 20.3000902,5.54652376 19.75,4.89 C19.81,4.89 19.9,4.89 19.86,4.89 C19.573566,4.68791503 19.3117831,4.45298167 19.08,4.19 C19,3.98 18.48,3.72 18.08,3.37 L18.08,3.37 C17.73,3.2 17.64,3 17.33,2.92 C17.2767414,2.85687044 17.2199857,2.79677616 17.16,2.74 C16.95,2.74 16.71,2.4 16.38,2.35 L16.38,2.35 C16.1584598,2.24758966 15.9314496,2.15745327 15.7,2.08 L15.7,2.08 C15.08,1.9 14.7,1.82 14.7,1.9 C14.49,1.78 15.32,1.99 15,1.8 C13.9166442,1.68003623 12.8233558,1.68003623 11.74,1.8 C10.6544618,1.86550497 9.58858351,2.11928552 8.59,2.55 C8.44448924,2.60525521 8.2937028,2.64546493 8.14,2.67 C7.84706982,2.8378906 7.57227653,3.03560772 7.32,3.26 C7.38,3.26 7.18,3.26 7.08,3.37 C6.74,3.58 6.81,3.72 6.46,3.97 C6.57,3.84 6.59,3.77 6.53,3.78 C6.3,4.08 5.94,4.42 5.66,4.78 C5.66,4.72 5.76,4.64 5.73,4.63 C5.47,5.04 5.12,5.26 4.91,5.63 L5,5.38 C4.53,5.88 5,5.61 4.59,6.05 C4.66,5.93 4.59,5.95 4.59,5.92 C4.27446969,6.49098279 3.99719335,7.08228293 3.76,7.69 C3.76,7.69 3.76,7.69 3.76,7.69 C3.52703004,8.2598519 3.37229109,8.85862435 3.3,9.47 C3.23,9.7 3.16,9.37 3.11,10 C3.21,10 3.11,11.06 3.24,10.7 C3.18786365,11.2705939 3.21140095,11.8455766 3.31,12.41 C3.23,12.18 3.21,12.69 3.13,12.25 L3.13,12.59 C3.08,12.59 3.13,12.24 3.05,12.36 L3.26,13.42 C3.43,13.81 3.64,14.15 3.88,14.76 C3.73,14.48 3.82,14.97 3.73,14.76 C3.91,15.03 4.11,15.28 4.3,15.53 C4.49,15.78 4.23,15.61 4.4,15.89 C4.4,15.89 4.5,15.98 4.56,16.06 C4.62,16.14 4.99,16.87 4.94,17 C4.89,17.13 4.75,16.69 4.83,16.93 C4.91,17.17 5.06,17.29 5.27,17.64 L5.27,17.64 C5.39,17.89 5.72,18.3 5.62,18.02 C5.52,17.74 5.62,18.12 5.49,17.86 C5.72844467,18.1282994 5.9394924,18.4197462 6.12,18.73 C6.03,18.62 6.01,18.65 5.96,18.62 C6.33,19.03 6.68,19.5 7.06,19.97 C7.06,19.97 6.85,19.84 6.82,19.75 C7.21,20.44 7.82,20.99 8.18,21.57 C8.11,21.49 8.18,21.48 8.18,21.49 C8.41,21.79 8.34,21.83 8.52,22 C8.52,22 8.73,22.23 8.9,22.42 C9.07,22.61 8.9,22.49 8.78,22.32 C9.38476909,22.9533183 9.95238446,23.6211011 10.48,24.32 C10.678165,24.4466518 10.8567243,24.6016279 11.01,24.78 L10.91,24.78 C10.99,24.94 11.33,25.26 11.3,25.32 C11.63,25.57 10.24,24.18 10.64,24.56 C10.64,24.71 11.22,25.07 11.07,25.04 C11.3397403,25.295911 11.5842025,25.5772101 11.8,25.88 C11.74,25.79 11.52,25.71 11.73,25.94 C12.09,26.34 11.86,26.04 12.16,26.35 L12.36,26.54 C12.42,26.54 12.67,26.91 12.59,26.71 C12.59,26.8 13.14,27.26 13.02,27.3 L12.9,27.3 C13.045871,27.4264741 13.2071505,27.5339937 13.38,27.62 C13.38,27.62 13.38,27.7 13.38,27.71 C13.38,27.72 13.75,28.12 14.02,28.25 C14.3733537,28.6049637 14.7071781,28.9788471 15.02,29.37 C15.325069,29.601625 15.6064428,29.8629007 15.86,30.15 C15.79,30.1 15.71,30.02 15.67,30.02 C15.7870286,30.178374 15.9288524,30.316821 16.09,30.43 C16.2379863,30.6713479 16.3981947,30.9049851 16.57,31.13 C16.85,31.38 16.82,31.23 16.88,31.23 C17.01,31.57 17.66,31.96 17.88,32.37 C17.78,32.28 17.47,32 17.65,32.26 C17.83,32.52 18.18,32.72 18.49,33.19 L18.49,33 C18.6,33.23 19.06,33.6 18.93,33.63 C19.08,33.75 19.3,34.17 19.35,34.06 C19.9194937,34.8080894 20.3869278,35.6286213 20.74,36.5 C20.83,36.6 20.95,36.91 20.97,36.82 C20.99,36.73 20.79,36.57 20.79,36.48 C20.85,36.58 20.89,36.59 20.91,36.59 C21.02,36.86 21.1,37.07 20.91,36.86 C21.12,37.46 21.38,37.36 21.64,38.15 C21.58,38.15 21.59,38.15 21.64,38.42 C21.69,38.69 21.78,38.69 21.86,38.83 C22,39.35 21.86,39.15 21.78,39.18 C21.8337933,39.4299577 21.9107938,39.6743505 22.01,39.91 L22.01,40.26 C22.01,40 22.1,40.48 22.12,40.61 L22.12,40.48 C22.060131,40.6481404 22.0198646,40.8226278 22,41 C22.0295472,40.8145026 22.0295472,40.6254974 22,40.44 C22,40.58 22.06,40.81 22.11,41 C22.04,40.94 22.11,41.47 22.11,41.69 C22.1058473,41.8152622 22.1227487,41.940333 22.16,42.06 C22.16,42.06 22.16,42.48 22.09,42.28 C22.1018319,42.1636333 22.1018319,42.0463667 22.09,41.93 C22.0131567,42.084669 21.9852515,42.2590763 22.01,42.43 C22.01,42.7 22.17,42.38 22.07,42.87 C22.0785758,42.7802043 22.0785758,42.6897957 22.07,42.6 L21.98,43.06 L22.05,43.06 C22.05,43.12 22.05,43.06 22.05,43.06 C22.05,43.06 21.95,43.77 22.05,43.9 C21.9865487,44.1374701 21.9097602,44.3711743 21.82,44.6 L21.82,44.6 C21.7098614,44.873198 21.632651,45.1585407 21.59,45.45 L21.59,45.45 C21.5101466,45.6691831 21.4433627,45.8929092 21.39,46.12 C21.19,46.45 21.1,46.12 21.01,46.56 C20.92,47 20.87,47.16 21.01,47.04 C20.7073729,47.6874353 20.331591,48.2980809 19.89,48.86 C19.8804393,48.9479518 19.8457189,49.0312808 19.79,49.1 C19.2171725,49.9404291 18.4787537,50.655028 17.62,51.2 C17.84,51 17.62,51.13 17.57,51.1 C17.41,51.3 17.3,51.22 17.29,51.36 C17.28,51.5 17.35,51.44 17.6,51.29 C17.1128749,51.7022343 16.5668351,52.0392959 15.98,52.29 C16.14,52.23 16.04,52.29 15.92,52.39 C15.92,52.28 15.51,52.48 15.2,52.64 L15.2,52.72 L14.97,52.72 C14.86,52.79 14.88,52.89 14.54,52.96 C14.5015148,52.944432 14.4584852,52.944432 14.42,52.96 C14.0607636,53.1728789 13.6688164,53.3249274 13.26,53.41 L12.93,53.41 C12.77,53.46 12.51,53.57 12.8,53.53 C12.3732099,53.6220814 11.9354074,53.6523909 11.5,53.62 C10.1350126,53.9239224 8.71255533,53.8443201 7.39,53.39 L7.44,53.39 C7.11,53.24 7.24,53.39 7.01,53.29 C7.13,53.29 6.78,53.11 7.07,53.15 C6.74540264,53.0254206 6.41088622,52.9284109 6.07,52.86 C6,52.86 6.33,52.94 6.24,52.98 C6.15,53.02 5.62,52.62 5.5,52.66 C5.38,52.7 5.5,52.56 5.6,52.56 L5.31,52.44 C5.03,52.17 6.16,52.7 5.87,52.39 L5.62,52.27 C5.43,52.06 6.32,52.52 5.72,52.17 C5.44,52.05 5.14,52.03 5.36,52.17 C4.8,51.86 4.99,52.17 4.41,51.78 C4.29,51.63 4.88,52.1 4.81,51.96 C4.58,51.72 4.25,51.6 4.05,51.38 C4.28,51.62 4.05,51.51 3.83,51.38 C3.6,51.1 4.06,51.48 3.7,51.12 C3.6,51.12 3.24,50.8 3.5,51.12 C3.27,51.12 3.15,50.71 2.9,50.56 C2.9,50.38 3.39,50.83 3.06,50.38 C3.06,50.51 2.54,49.89 2.63,50.21 C2.51,50.01 2.55,49.96 2.69,50.06 C2.54,49.78 2.14,49.47 2.24,49.3 L2,49.22 C2,49.12 1.94,48.98 1.91,48.81 C1.88,48.64 1.5,48 1.63,48 C1.63,47.92 1.43,47.31 1.41,47.56 C1.39,47.81 1.59,47.98 1.55,48.23 C1.51404955,47.95891 1.42574517,47.6973931 1.29,47.46 L1.29,47.46 C1.24985863,47.2861391 1.19636664,47.1156334 1.13,46.95 C1.13,47.05 1.2,46.95 1.19,46.88 L1.09,46.75 C0.98,46.21 1.19,46.6 1.09,46.08 C1.09,46.21 1.15,46.34 1.19,46.47 C1.19,46.38 1.19,46.2 1.19,45.95 C1.11,45.86 1.02,45.68 0.97,45.6 C0.97,45.3 1.04,45.46 0.97,45.17 L1.07,45.55 C1.07,45.61 1.16,45.29 1.16,44.89 C1.16,44.49 1.04,44.24 1,44.64 C1,44.44 1.05,44.16 1.09,44.32 C1.09,43.87 1.02,44.38 0.99,43.99 C0.99,43.83 1.14,43.35 1.24,43.06 L1.32,43.47 L1.32,43.21 C1.38,43.56 1.4,43.04 1.48,43.21 C1.49355472,43.0202418 1.49355472,42.8297582 1.48,42.64 C1.26,43.15 1.35,42.02 1.2,42.15 C1.3,41.42 1.6,41.76 1.55,40.97 C1.49,41.08 1.46,40.71 1.4,41.17 C1.52,40.73 1.33,40.83 1.52,40.32 C1.52,40.72 1.76,39.94 1.7,40.52 C1.7,40.52 1.58,40.82 1.58,40.91 C1.67,40.74 1.7,40.98 1.82,40.53 C1.87,40.25 1.98,39.88 1.9,39.92 C1.82,39.96 1.79,40.34 1.76,40.14 C1.89,39.59 2.04,39.54 1.98,39.27 C1.88,39.61 1.78,39.68 1.73,39.65 L1.82,39.24 L1.82,39.33 C2.08,38.71 1.82,39.11 2.02,38.5 L2.23,38.25 C2.23,38.42 1.87,39.12 2.05,39.06 C2.12723807,38.7528864 2.22752233,38.4520337 2.35,38.16 L2.27,38.45 C2.47851051,38.2267254 2.62051224,37.9496488 2.68,37.65 C2.76,37.35 2.68,37.55 2.62,37.53 C2.88,36.91 2.91,36.71 3.1,36.31 C3.15,36.43 3.46,35.64 3.33,36.11 C3.05322043,36.5010678 2.85613967,36.9428006 2.75,37.41 C2.96,37.24 2.53,37.89 2.59,38.07 C2.8,37.58 2.91,37.65 3.01,37.61 C3.06020152,37.4936449 3.10034815,37.373205 3.13,37.25 C3.13,37.16 3.01,37.34 2.93,37.31 C3.16051642,36.8630728 3.35448296,36.3982219 3.51,35.92 C3.64,35.76 3.68,35.85 3.57,36.06 C3.88440815,35.4242173 4.24539208,34.8125501 4.65,34.23 C4.31,34.53 5.03,33.59 4.79,33.78 C4.55,33.97 4.32,34.28 4.39,34.08 C4.46,33.88 4.39,34.08 4.51,34.08 C4.61,33.8 4.84,33.76 4.92,33.47 C4.59,34.03 4.98,33.66 4.99,33.81 C5.21,33.4 4.99,33.87 5.3,33.49 C5.61,33.11 5.81,32.6 6.09,32.17 C6.54,31.7 7.09,30.86 7.41,30.41 C7.64,30.2 7.6,30.41 7.81,30.19 C8.02,29.97 7.54,30.34 7.93,29.93 L7.93,29.99 C8.02,29.84 8.64,29.24 8.64,28.99 L8.64,29.2 C8.70688008,29.1277475 8.76403069,29.0470643 8.81,28.96 C8.81,28.96 8.95,28.96 8.81,29.06 C9.07737843,28.8046796 9.3185765,28.5232818 9.53,28.22 L9.31,28.35 C9.71,27.83 10.05,27.56 10.47,27.09 L10.47,27.15 L10.7,26.85 C10.7,26.96 10.96,26.75 11.05,26.57 L10.49,27.38 C10.27,27.55 10.63,27.11 10.49,27.18 C10.2629506,27.3362568 10.0775644,27.5456745 9.95,27.79 C10.0474532,27.6951586 10.131557,27.5875057 10.2,27.47 C10.32,27.47 10.09,27.73 10.02,27.89 C10.1,27.8 10.23,27.7 10.23,27.66 C10.0731426,27.8920919 9.89576386,28.1096318 9.7,28.31 C9.84,28.09 9.56,28.37 9.61,28.31 C9.61,28.39 9.43,28.68 9.1,29.01 C8.77,29.34 8.58,29.72 8.22,30.12 C8.30996695,29.8499207 8.4379167,29.5940212 8.6,29.36 C8.35,29.6 8.36,29.65 8.11,29.89 C8.05826761,30.1411889 7.95621793,30.3793049 7.81,30.59 L7.75,30.59 C7.61473781,30.8675904 7.45405127,31.1320536 7.27,31.38 C6.71,32.06 6.18,32.8 5.79,33.38 L5.72,33.38 C5.61,33.76 5.05,34.38 4.85,34.89 C4.34,35.58 3.98,36.52 3.69,36.89 C3.09106895,38.2129925 2.60598029,39.5846225 2.24,40.99 L2.24,40.72 C2.24,41.01 2.14,40.88 2.09,41.15 C2.23,40.86 2.09,41.54 2.09,41.74 C1.9612294,42.4019179 1.93090233,43.0792223 2,43.75 L1.94,43.75 C2.02,44.37 1.94,45.1 1.94,45.86 C1.90425417,46.01125 1.90425417,46.16875 1.94,46.32 C2.1,46.71 2.12,46.93 2.33,47.49 C2.4605895,48.0057959 2.63110383,48.5106521 2.84,49 C3.76194502,50.3901741 5.07824622,51.4731626 6.62,52.11 L6.7,52.23 C7.53023725,52.5039895 8.38379171,52.7014786 9.25,52.82 C10.0545433,52.9320661 10.8719988,52.9117986 11.67,52.76 L11.56,52.91 C12,52.91 12.56,52.68 12.42,52.62 C12.87,52.56 13.48,52.28 13.77,52.28 C14.0650608,52.1766306 14.3469852,52.0390246 14.61,51.87 C15.2716415,51.6275753 15.8947546,51.2907574 16.46,50.87 L16.28,50.98 C16.21,51.05 16.28,51.1 16.42,50.98 C16.56,50.86 17.42,50.32 17.05,50.39 C17.8418312,49.7872131 18.5424036,49.0731682 19.13,48.27 C19.05,48.27 19.13,48.12 19.2,48.02 C19.6509896,47.4033103 20.020696,46.7311169 20.3,46.02 C20.37,45.91 20.3,46.24 20.42,45.94 C20.54,45.64 20.42,45.94 20.42,45.69 C20.8898464,44.5152672 21.1895378,43.2794608 21.31,42.02 C21.3342183,40.9972455 21.1923763,39.9773341 20.89,39 C20.5561081,38.0155885 20.1168957,37.0701083 19.58,36.18 L19.58,36.18 C19.13,35.67 18.81,34.77 18.33,34.44 C18.25,34.29 17.96,33.94 18.08,34 C17.68,33.62 17.16,32.76 16.55,32.24 C16.5950675,32.2916864 16.645332,32.3385999 16.7,32.38 C16.21,31.74 15.7,31.28 15.11,30.62 C15.18,30.67 15.3,30.78 15.34,30.78 C15.15,30.5 14.7,30.3 14.68,30.07 C14.66,29.84 14.53,30.07 14.62,30.07 C13.35,28.69 11.87,27.27 10.62,25.78 C9.78,24.66 10.75,25.55 9.95,24.78 C9.95,24.69 9.86,24.78 9.88,24.78 C9.57,24.48 9.57,24.16 9.32,23.99 C9.32,24.14 9.15,23.87 9.11,23.9 C8.82104129,23.4125393 8.48618772,22.9537899 8.11,22.53 L8.18,22.53 C7.54,22 7,21.2 6.51,20.74 C5.16921547,18.9701957 4.05084528,17.0424345 3.18,15 C2.35080297,12.900401 2.18331788,10.5974811 2.7,8.4 C2.99847982,7.31702261 3.49706795,6.2994958 4.17,5.4 C4.83022588,4.51399655 5.59209793,3.70849305 6.44,3 C7.32053412,2.27463376 8.34209871,1.74001496 9.44,1.43 C10.524952,1.13425291 11.6455098,0.989556261 12.77,1 C13.77,1.14 13.88,1.08 15.06,1.23 C15.01,1.23 14.94,1.23 15.01,1.23 C15.08,1.23 15.26,1.23 15.47,1.23 C15.6317853,1.32546671 15.8128696,1.38355038 16,1.4 C17.5575569,1.9580521 18.9382632,2.92109478 20,4.19 C19.81,3.99 19.65,3.95 19.88,4.19 L20.14,4.41 L20.14,4.47 C20.29,4.63 20.48,4.8 20.37,4.6 C21.1212404,5.479228 21.6159766,6.54827352 21.8,7.69 C21.833264,8.22615122 21.833264,8.76384878 21.8,9.3 C21.8,9.82 21.73,10.3 21.65,10.86 C21.5068282,11.9062681 21.2451472,12.9328628 20.87,13.92 C20.48,14.92 20.05,15.8 19.59,16.72 C19.13,17.64 18.47,18.79 17.89,19.72 C16,22.21 14,24.12 12,26.51 C12.1739155,25.9437351 12.4788221,25.4264216 12.89,25 Z"/>
    <path fill="#43454A" d="M11.65 26.4C11.54 26.4 11.26 26.67 11.42 26.4 11.48 26.43 11.65 26.34 11.65 26.4zM5.18 33.39C5.18 33.39 5.09 33.49 5.06 33.51 5.03 33.53 5.15 33.29 5.23 33.23 5.16 33.33 5.19 33.33 5.18 33.39zM3.84 35.46C3.92711776 35.1780311 4.05155409 34.9089796 4.21 34.66 4.08 34.92 4 35.2 3.84 35.46zM2.65 37.45C2.54 37.62 2.54 37.56 2.65 37.31 2.67 37.3 2.65 37.39 2.65 37.45zM2.68 37.64C2.63141529 37.7599904 2.56389017 37.8714068 2.48 37.97 2.48 37.97 2.63 37.55 2.68 37.64zM1.18 42.47C1.17962533 42.6390824 1.15607273 42.8073153 1.11 42.97 1.15 42.84 1.13 42.37 1.18 42.47zM1.09 44.83C1.08130517 44.8963832 1.08130517 44.9636168 1.09 45.03 1.09 45.17 1.04 45.03 1.03 44.9L1.09 44.83z"/>
    <polygon fill="#43454A" points="18.11 32.66 18.28 32.84 18.23 32.84"/>
    <path fill="#43454A" d="M6.26,18.86 C6.1,18.67 6.2,18.69 6.19,18.66 C6.32,18.84 6.1,18.62 6.26,18.86 Z"/>
    <polygon fill="#43454A" points="3.22 9.88 3.21 9.95 3.12 9.91"/>
    <path fill="#91CC85" d="M12.16,14.91 C11.6493908,13.9340473 10.8447598,13.14341 9.86,12.65 C9.4000249,12.417996 8.87739686,12.3408294 8.37,12.43 C7.96409187,12.5905378 7.615724,12.8692321 7.37,13.23 C6.77,14.64 7.48,16.6 8.37,18.06 C9.41147243,19.7641874 10.613617,21.3648145 11.96,22.84 C14.5054547,20.6663305 16.4074909,17.8374838 17.46,14.66 C17.7455501,14.0658621 17.7455501,13.3741379 17.46,12.78 C16.8716214,12.1900992 15.9791785,12.0267503 15.22,12.37 C13.9828539,12.8884422 12.9353824,13.7753014 12.22,14.91"/>
    <path fill="#80B05A" d="M12.55,14.69 C11.48,12.93 9.55,11.44 7.66,12.8 C4.39,15.17 9.89,21.21 11.54,23.06 C11.8107147,22.9293898 12.0714226,22.7789815 12.32,22.61 C13.66,21.43 20.89,12.82 16.81,12.02 C14.94,11.65 12.69,13.93 11.81,15.14 C11.97,14.92 12.42,14.91 12.59,14.69 C13.2333624,13.7769873 14.0527504,13.0017986 15,12.41 L14.24,12.85 C15.06,12.5 16.44,12.06 17.08,13.01 C17.72,13.96 16.8,15.77 16.35,16.74 C15.2235516,19.1595192 13.5979583,21.3133451 11.58,23.06 L12.36,22.61 C10.7,20.75 5.26,14.8 8.45,12.37 L7.67,12.82 C9.36,12.02 11.03,13.82 11.81,15.13 C11.81,15.13 12.59,14.68 12.59,14.68 L12.55,14.69 Z"/>
    <path fill="#43454A" d="M4.08,44.86 C4.02086152,46.0591679 4.33532367,47.247136 4.98,48.26 C7.98,52.72 14.09,50.66 15.61,49.72 C17.1359725,48.8298358 18.2765167,47.4041555 18.81,45.72 C19.0477191,45.0916277 18.9656954,44.3869695 18.59,43.83 C18.1470361,43.4070931 17.5622528,43.164622 16.95,43.15 C15.32,42.96 12.63,43.79 10.51,44.38 C8.39,44.97 5.94,45.25 4.12,44.07 C4,44.22 4.12,44.53 4.12,44.88"/>
    <path fill="#43454A" d="M4.21,44.95 C4.21,44.81 4.16,45.03 4.21,44.86 C4.2318413,44.8860246 4.2318413,44.9239754 4.21,44.95 L4.21,44.95 Z"/>
    <path fill="#43454A" d="M4.14,44.47 C4.06,44.3 4.07,43.94 4.28,44.15 C4.55689323,44.3413218 4.86996542,44.4740372 5.2,44.54 C5.26,44.54 5.2,44.62 5.29,44.64 C5.79,44.64 6.51,44.85 7.1,44.96 L7.1,44.96 C7.21,44.96 7.35,44.89 7.47,44.9 C7.59,44.91 7.47,44.9 7.47,44.9 C7.47,44.9 7.69,44.9 7.73,44.83 C7.77,44.76 7.73,44.89 7.84,44.91 L7.9,44.85 C8.08,44.7 8.36,44.85 8.61,44.71 C8.61,44.71 8.61,44.71 8.61,44.71 C9.01,44.57 9.52,44.49 9.96,44.35 C9.96,44.35 9.96,44.42 9.96,44.43 C9.96,44.44 10.1,44.32 10.22,44.27 C10.34,44.22 10.41,44.16 10.56,44.16 L10.56,44.16 C10.64,44.07 10.72,44.16 10.79,44.05 L10.87,44.05 C10.87,43.95 11.03,44.05 11.1,43.99 L11.1,43.99 C11.17,43.99 11.23,43.99 11.3,43.99 L11.3,43.99 C11.47,43.92 11.58,43.94 11.56,43.87 C11.54,43.8 11.4,43.94 11.56,44 C12.1260884,43.7805273 12.7076861,43.603374 13.3,43.47 C13.37,43.47 13.42,43.47 13.44,43.47 C13.5303761,43.4428062 13.6175488,43.4059254 13.7,43.36 C13.7,43.36 13.7,43.36 13.78,43.36 C13.86,43.36 13.88,43.26 14,43.26 C14,43.26 13.95,43.32 14,43.34 C14.1044977,43.2742419 14.2194974,43.2268891 14.34,43.2 C14.34,43.2 14.34,43.2 14.34,43.2 C14.34,43.2 14.58,43.2 14.69,43.1 L14.69,43.1 C14.88,43.1 14.69,43 14.89,43 C14.89,43 14.89,43 14.89,43.05 C15.0570242,42.9667859 15.2357351,42.9094636 15.42,42.88 C15.58,42.88 15.75,42.88 15.93,42.8 C16.11,42.72 15.93,42.9 16.09,42.87 C16.09,42.78 16.38,42.82 16.27,42.73 C16.433069,42.7431415 16.596931,42.7431415 16.76,42.73 C16.69,42.73 16.83,42.83 16.71,42.84 L16.8,42.89 C16.8,42.89 16.71,42.89 16.73,42.89 C16.8262507,42.877318 16.9237493,42.877318 17.02,42.89 C17.1471835,42.8153185 17.2925368,42.7772498 17.44,42.78 C17.35,42.78 17.44,42.88 17.44,42.88 L17.73,42.77 C17.79,42.77 17.73,42.84 17.82,42.84 C17.91,42.84 17.82,42.84 17.89,42.84 C17.96,42.84 18.16,42.9 18.15,42.99 C18.14,43.08 18.05,42.99 18.15,42.99 C18.25,42.99 18.27,42.99 18.38,43.05 L18.38,43.05 C18.44,43.05 18.6,43.13 18.55,43.05 C18.5,42.97 18.55,43.1 18.48,43.05 C18.5958262,43.0536347 18.7062266,43.0999317 18.79,43.18 C18.79,43.18 18.74,43.18 18.71,43.18 C18.8906964,43.2406483 19.0502965,43.3516745 19.17,43.5 C19.17,43.5 19.07,43.5 19.07,43.45 C19.18,43.67 19.39,43.87 19.36,44.09 C19.36,44.09 19.36,44.09 19.36,44.09 C19.36,44.09 19.36,44.21 19.36,44.28 C19.36,44.35 19.36,44.37 19.36,44.45 C19.36,44.53 19.36,44.45 19.36,44.45 C19.4341764,44.7013074 19.4341764,44.9686926 19.36,45.22 C19.36,45.22 19.36,45.38 19.36,45.44 L19.36,45.44 C19.36,45.44 19.36,45.62 19.27,45.62 C19.18,45.62 19.33,45.17 19.34,45.34 C19.35,45.51 19.34,45.58 19.34,45.52 C19.34,45.63 19.34,45.74 19.26,45.83 C19.18,45.92 19.26,45.72 19.2,45.83 C19.14,45.94 19.2,45.83 19.2,46 L19.2,46.08 C19.2,46.08 19.15,46.21 19.2,46.17 C19.25,46.13 19.14,46.39 19.07,46.34 L19.02,46.34 C19.02,46.4 19.02,46.47 19.02,46.53 L19.02,46.53 C19.11,46.58 18.94,46.67 19.02,46.78 C19.1,46.89 18.84,47.09 18.76,47.12 C18.7391629,47.2301366 18.6910268,47.3332853 18.62,47.42 C18.62,47.42 18.62,47.36 18.62,47.35 C18.62,47.34 18.57,47.43 18.54,47.5 C18.51,47.57 18.4,47.59 18.33,47.64 C18.26,47.69 18.33,47.75 18.33,47.77 C18.19,47.77 18.2,48.05 18.04,48.09 C18.04,48.09 18.1,47.94 18.04,47.99 C17.98,48.04 17.97,48.19 17.83,48.27 L17.92,48.27 C17.84,48.27 17.8,48.47 17.75,48.4 C17.7,48.33 17.6,48.51 17.67,48.56 C17.44,48.7 17.24,49.02 17.02,49.01 C17.02,49.01 16.92,49.09 16.96,49.11 C17,49.13 16.96,49.03 17.04,49.04 C16.97,49.04 16.91,49.11 16.93,49.04 C16.76,49.11 16.87,49.26 16.67,49.37 C16.67,49.37 16.67,49.37 16.59,49.37 L16.52,49.49 C16.39,49.56 16.41,49.49 16.37,49.43 C16.33,49.37 16.23,49.53 16.22,49.59 L16.1,49.59 C16.18,49.59 16.1,49.65 16.04,49.68 L16.04,49.68 C16.04,49.68 15.94,49.68 15.91,49.75 C15.88,49.82 16.03,49.75 16.08,49.75 C16.13,49.75 16,49.82 15.97,49.87 C15.94,49.92 15.84,49.87 15.78,49.93 C15.72,49.99 15.78,50.01 15.71,50.02 C15.64,50.03 15.6,50.02 15.63,50.02 C15.66,50.02 15.69,50.02 15.72,50.02 C15.75,50.02 15.65,50.02 15.58,50.02 C15.51,50.02 15.64,50.11 15.5,50.14 C15.5,50.14 15.5,50.09 15.5,50.06 L15.37,50.06 L15.37,50.06 C15.37,50.06 15.37,50.06 15.37,50.06 C15.37,50.06 15.2,50.16 15.19,50.22 C15.1234403,50.2253419 15.0565597,50.2253419 14.99,50.22 L14.99,50.22 C14.9052314,50.2269457 14.8264177,50.2663525 14.77,50.33 L14.77,50.33 C14.7071412,50.3514664 14.6493031,50.3854888 14.6,50.43 C14.49,50.43 14.5,50.26 14.41,50.36 C14.32,50.46 14.28,50.5 14.33,50.52 C14.14,50.52 13.95,50.69 13.76,50.66 C13.76,50.66 13.76,50.66 13.71,50.72 C13.4516581,50.8198685 13.1769724,50.8707362 12.9,50.87 C12.98,50.87 12.9,50.87 12.9,50.79 C12.9,50.71 12.81,50.79 12.8,50.84 C12.79,50.89 12.8,50.91 12.89,50.91 C12.7248505,50.9749362 12.5464422,50.9989527 12.37,50.98 C12.37,50.98 12.37,50.98 12.37,51.03 C12.37,51.08 12.25,50.96 12.16,51.03 L12.16,51.03 L12.09,51.03 C12.09,51.03 12.09,51.13 11.96,51.1 C11.858094,51.1622329 11.7389639,51.1902635 11.62,51.18 L11.53,51.12 C11.53,51.12 11.41,51.17 11.53,51.19 C11.35,51.19 11.23,51.19 11.17,51.11 C10.8041867,51.2381257 10.4113866,51.2691362 10.03,51.2 L10.03,51.2 C9.93,51.2 9.97,51.25 9.91,51.2 C9.85,51.15 9.84,51.13 9.91,51.09 C9.77,51.09 9.72,51.09 9.63,51.09 C9.54,51.09 9.71,51.09 9.68,51.09 C9.65,51.09 9.49,51.03 9.46,51.09 C9.43,51.15 9.46,51.02 9.46,50.99 L9,50.99 C8.91,50.89 9.26,50.9 9.16,50.79 L9.13,50.79 C9.07,50.71 9.34,50.79 9.13,50.69 C8.92,50.59 9,51 9,51.06 C8.82,51.06 8.89,51.2 8.7,51.15 C8.51,51.1 8.85,51.15 8.83,51.15 C8.81,51.15 8.65,51.15 8.57,51.15 C8.65,51.15 8.57,51.24 8.5,51.24 C8.43,51.24 8.58,51.24 8.44,51.16 C8.3,51.08 8.27,51.16 8.38,51.24 C8.31,51.32 8.24,51.18 8.15,51.24 C8.06,51.3 8.33,51.15 8.15,51.08 C7.97,51.01 7.95,51.08 8,51.2 C8.05,51.32 8,51.12 8,51.1 C8,51.08 7.77,51.1 7.78,51.01 L7.78,51.01 L7.7,50.91 C7.63,50.91 7.44,50.91 7.48,50.82 C7.52,50.73 7.3,50.74 7.33,50.82 C7.36,50.9 7.46,50.82 7.48,50.94 C7.48,50.84 7.33,50.88 7.27,50.87 L7.27,50.87 C7.27,50.87 7.16,50.82 7.12,50.87 C7.08,50.92 7.12,50.87 7.12,50.82 L7.06,50.82 C6.91,50.82 7.06,50.72 6.93,50.67 L7.05,50.67 C7.05,50.67 7.05,50.6 6.93,50.58 L6.77,50.66 C6.68,50.66 6.77,50.6 6.66,50.6 L6.79,50.6 C6.79,50.6 6.79,50.51 6.67,50.44 C6.55,50.37 6.47,50.44 6.55,50.5 C6.63,50.56 6.45,50.4 6.55,50.39 C6.44,50.33 6.55,50.44 6.43,50.39 C6.31,50.34 6.32,50.22 6.28,50.13 L6.42,50.13 L6.36,50.13 C6.48,50.13 6.36,50.06 6.43,50.04 C6.38675911,50.0043018 6.33513507,49.9802106 6.28,49.97 C6.34,50.14 6.05,49.97 6.03,50.09 C5.85,49.98 6.09,49.82 5.83,49.79 C5.83,49.79 5.71,49.79 5.83,49.89 C5.74,49.79 5.7,49.89 5.61,49.77 C5.72,49.77 5.61,49.61 5.75,49.68 C5.75,49.68 5.75,49.76 5.82,49.77 C5.89,49.78 5.89,49.7 5.82,49.61 C5.75,49.52 5.68,49.49 5.65,49.54 C5.62,49.59 5.74,49.62 5.65,49.63 C5.56,49.64 5.56,49.46 5.44,49.48 C5.52,49.54 5.5,49.6 5.44,49.63 L5.34,49.56 L5.34,49.56 C5.22,49.41 5.25,49.56 5.12,49.43 L5.12,49.2 C5.19,49.2 5.28,49.42 5.33,49.32 C5.38,49.22 5.18,49.24 5.13,49.13 L5.2,49.18 C5.2,49.18 5.34,49 5.18,49 C5.02,49 5.18,49 5.11,49 C4.98,48.86 4.92,48.84 4.83,48.74 C4.91,48.74 4.7,48.56 4.83,48.63 C4.96,48.7 5.01,48.92 5.1,48.93 C5.19,48.94 5.18,49.06 5.28,49.03 C5.19,48.91 5.28,48.86 5.28,48.8 C5.25519634,48.7731297 5.22434319,48.752561 5.19,48.74 C5.14,48.74 5.19,48.8 5.13,48.84 C5.05233803,48.7154888 4.94153079,48.6150697 4.81,48.55 C4.81,48.49 4.81,48.47 4.9,48.55 C4.77266781,48.3845511 4.67458573,48.1985334 4.61,48 C4.61,48.15 4.49,47.82 4.46,47.93 C4.43,48.04 4.46,48.14 4.46,48.11 C4.46,48.08 4.46,48.11 4.46,48.06 C4.46,48.01 4.46,47.91 4.36,47.87 C4.47,48.03 4.47,47.87 4.55,47.87 C4.46,47.77 4.55,47.87 4.55,47.74 C4.4498846,47.628878 4.36574216,47.5043472 4.3,47.37 C4.26110222,47.1642666 4.20077343,46.9631707 4.12,46.77 C4.12,46.68 4.23,46.72 4.22,46.63 C4.21,46.54 4.15,46.73 4.16,46.56 L4.16,46.56 C4.16,46.56 4.16,46.27 4.04,46.24 L4.13,46.24 C4.13,46.24 4.13,46.19 4.13,46.16 C4.13,46.13 4.13,46.16 4.2,46.16 C4.27,46.16 4.2,45.96 4.15,45.86 L4.15,45.93 C4.0863847,45.7814458 4.03618467,45.627499 4,45.47 L4,45.47 L4,45.37 C4,45.37 4.07,45.29 4,45.24 L4.14,45.5 C4.14,45.58 4.07,45.42 4.03,45.5 C3.98604391,45.5667465 3.98604391,45.6532535 4.03,45.72 C4.04219056,45.6843466 4.04219056,45.6456534 4.03,45.61 C4.1,45.61 4.1,45.68 4.15,45.72 C4.2,45.76 4.15,45.64 4.15,45.64 C4.18667882,45.7077328 4.2072128,45.783024 4.21,45.86 C4.21,45.79 4.21,45.86 4.15,45.86 C4.09,45.86 4.24,45.96 4.24,46.09 C4.24,46.22 4.32,46.32 4.33,46.47 C4.25619922,46.4200343 4.19742354,46.3508864 4.16,46.27 C4.16,46.37 4.16,46.37 4.16,46.47 C4.16,46.57 4.29,46.53 4.34,46.64 L4.34,46.64 C4.34,46.74 4.45,46.73 4.47,46.86 C4.5132581,47.0767256 4.58033177,47.2880077 4.67,47.49 L4.67,47.49 C4.8,47.54 4.85,47.77 4.96,47.87 C5.07,47.97 5.28,48.26 5.29,48.4 L5.69,48.84 C5.83,48.98 5.98,49.1 6.12,49.25 L6,49.25 C6.09,49.25 6,49.31 6.07,49.36 C6.14,49.41 6.19,49.36 6.25,49.36 C6.35,49.54 6.6,49.61 6.75,49.67 L6.75,49.67 C6.93,49.67 7.05,49.88 7.24,49.97 C7.25117462,50.0187101 7.28446728,50.0594011 7.33,50.08 C7.44575949,50.0594246 7.56424051,50.0594246 7.68,50.08 C7.78,50.14 7.97,50.21 8.07,50.28 C8.52163361,50.3841086 8.97912897,50.4609143 9.44,50.51 L9.44,50.57 C9.91,50.52 10.44,50.63 10.85,50.57 L10.85,50.66 C10.98,50.66 11.13,50.66 11.1,50.55 C11.23,50.55 11.4,50.48 11.49,50.55 C11.58,50.62 11.64,50.49 11.74,50.47 C11.9360257,50.4691744 12.1310703,50.4422717 12.32,50.39 L12.26,50.39 C12.26,50.39 12.26,50.45 12.26,50.45 C12.26,50.45 12.59,50.45 12.48,50.32 C12.74,50.32 13.05,50.15 13.31,50.16 C13.31,50.16 13.31,50.16 13.36,50.09 C13.5767195,50.0935291 13.792659,50.0631626 14,50 C14,50 14,50.07 14.05,50 C14.1,49.93 14.05,50 14.05,49.93 C14.37,49.76 14.75,49.72 15.05,49.56 C15.5384796,49.2630887 16.0032054,48.9287536 16.44,48.56 L16.44,48.56 C16.52,48.38 16.82,48.33 16.83,48.13 C16.83,48.13 16.95,48.02 16.96,48.07 C17.02,47.92 17.28,47.8 17.35,47.59 C17.52,47.45 17.58,47.26 17.74,47.1 C17.74,47.1 17.74,47.16 17.74,47.18 C17.74,47.2 17.74,46.96 17.89,46.97 C18.04,46.98 17.89,46.91 17.89,46.97 C18.1721038,46.542702 18.3659041,46.0633012 18.46,45.56 C18.61,45.23 18.64,45.56 18.63,45.29 C18.63,45.29 18.63,45.29 18.63,45.29 C18.63,45.29 18.77,45.14 18.73,45.06 C18.69,44.98 18.73,45.01 18.66,45 C18.72,44.79 18.77,44.74 18.66,44.58 L18.66,44.58 C18.55,44.4 18.53,44.19 18.36,44.12 C18.0581279,43.7367225 17.5978769,43.51212 17.11,43.51 C16.5691295,43.4368382 16.0208705,43.4368382 15.48,43.51 C14.3519595,43.689401 13.2338324,43.9263772 12.13,44.22 C11.9267095,44.1953934 11.7207653,44.2337898 11.54,44.33 C11.54,44.33 11.54,44.33 11.54,44.33 C11.54,44.33 11.34,44.39 11.33,44.47 L10.07,44.82 C10.14,44.82 10.16,44.73 10.07,44.75 L10,44.92 L10,44.92 C9.94,44.92 9.89,44.99 10,45 C8.86796357,45.2921189 7.69292779,45.380162 6.53,45.26 L5.53,45.12 C5.28070397,45.0274886 5.03696408,44.9206437 4.8,44.8 C4.72540265,44.7686439 4.654887,44.7283492 4.59,44.68 L4.45,44.58 C4.38,44.5 4.34,44.58 4.36,44.65 C4.35458751,44.7198954 4.35458751,44.7901046 4.36,44.86 C4.36,44.86 4.21,44.83 4.14,44.47 Z"/>
    <path fill="#43454A" d="M4.22 45.12C4.22 45.12 4.22 45.25 4.12 45.18 4.02 45.11 4.19 45.11 4.22 45.12zM4.42 47.79C4.42 47.79 4.42 47.79 4.42 47.84 4.42 47.89 4.36 47.84 4.36 47.76 4.36 47.68 4.4 47.78 4.42 47.79zM4.75 48.41C4.75 48.41 4.61 48.31 4.56 48.23L4.75 48.41zM5.05 49C5.05 49.06 5.05 49.06 5 49 4.95 48.94 5 49 5.05 49zM5.14 49C5.15219056 49.0356534 5.15219056 49.0743466 5.14 49.11 5.14 49.11 5.09 49 5.14 49zM6.11 50.08C6.11 50.08 6.22 50.08 6.22 50.17 6.22 50.26 6.06 50.1 6.11 50.08zM6.69 50.42C6.69 50.42 6.69 50.42 6.69 50.42 6.69 50.42 6.69 50.42 6.64 50.42L6.69 50.42z"/>
    <polygon fill="#43454A" points="17.63 48.34 17.6 48.4 17.58 48.37"/>
    <path fill="#43454A" d="M18.59,43.48 C18.52,43.48 18.59,43.42 18.59,43.41 C18.59,43.4 18.52,43.42 18.59,43.48 Z"/>
    <polygon fill="#43454A" points="15.82 43.06 15.84 43.06 15.84 43.12"/>
  </g>
</svg>
