<svg xmlns="http://www.w3.org/2000/svg" width="59" height="17" viewBox="0 0 59 17">
  <g fill="white" transform="translate(-1)">
    <path d="M51.71,3.82 C51.5,3.93 51.62,4.04 51.71,4.15 C52.0187169,4.52577166 52.3528336,4.87993543 52.71,5.21 C52.84,5.33 52.98,5.44 53.11,5.55 C53.39,5.79 53.73,5.96 54.01,6.19 C54.1514907,6.32781774 54.3277707,6.42459893 54.52,6.47 C54.78,6.47 54.83,6.69 54.89,6.9 C54.9394742,7.07045995 54.8535192,7.25096547 54.69,7.32 C54.2934571,7.58486571 53.8354486,7.74327468 53.36,7.78 C52.87,7.78 52.36,7.85 51.88,7.83 C51.56,7.83 51.43,7.97 51.42,8.29 C51.42,8.4 51.42,8.51 51.32,8.57 C51.0535747,8.80314208 50.734377,8.96788932 50.39,9.05 C49.6607403,9.09649394 48.9292597,9.09649394 48.2,9.05 C47.8726317,8.96770991 47.5373804,8.92077474 47.2,8.91 C46.94,8.91 46.75,9.04 46.71,9.32 C46.7031373,9.43990188 46.7031373,9.56009812 46.71,9.68 C46.7193572,9.81173381 46.6703741,9.94092811 46.5760319,10.033345 C46.4816896,10.125762 46.3515129,10.1720711 46.22,10.16 L45.89,10.16 C45.37,10.51 44.89,10.05 44.33,10.16 C44.1164602,10.0645884 43.8836757,10.0200855 43.65,10.03 C43.3106379,9.98778019 42.9915517,10.2005043 42.9,10.53 C42.81,10.79 42.68,10.96 42.36,10.95 C42.2403321,10.9690694 42.1251266,11.0097302 42.02,11.07 C41.450486,11.2751104 40.8423147,11.3502777 40.24,11.29 C39.8740146,11.209841 39.4928722,11.2340955 39.14,11.36 C38.7424453,11.553977 38.3352489,11.7275362 37.92,11.88 C37.4708258,12.0245475 37.0086457,12.1250214 36.54,12.18 C36.2573536,12.2359145 35.964385,12.204525 35.7,12.09 C35.57,12.04 35.51,11.9 35.35,11.88 C35.060597,11.8364836 34.8047811,11.668376 34.65,11.42 C34.53,11.23 34.43,11.03 34.31,10.84 C34.09,10.5 34.09,10.51 33.74,10.73 C33.6017683,10.8043017 33.458008,10.8678237 33.31,10.92 C33.23,10.92 33.11,10.97 33.06,11.04 C32.7756122,11.3098106 32.4336881,11.5115458 32.06,11.63 C31.58,11.88 31.2,12.26 30.74,12.52 C30.4456086,12.7048857 30.1708522,12.9193297 29.92,13.16 C29.48,13.55 28.98,13.89 28.5,14.23 C27.65,14.84 26.88,15.55 26,16.12 C25.8031262,16.2945741 25.5068738,16.2945741 25.31,16.12 C25.67,15.94 25.76,15.56 26.04,15.34 C26.48,15 26.91,14.64 27.32,14.27 C27.7440025,13.9117041 28.1880539,13.5778308 28.65,13.27 L29.84,12.44 C30.1189771,12.2242956 30.4207836,12.0398583 30.74,11.89 C31.1191778,11.6805754 31.4864118,11.4502195 31.84,11.2 C32.23,11 32.55,10.68 32.93,10.44 C33.31,10.2 33.67,9.92 33.58,9.37 C33.5465088,8.68833878 33.6554939,8.00718164 33.9,7.37 C34.016975,7.01782668 34.2117997,6.69653673 34.47,6.43 C34.67,6.18 34.91,5.98 35.13,5.75 C35.2070257,5.64242712 35.3408537,5.59125758 35.47,5.62 C35.6367354,5.6299626 35.7983195,5.68153197 35.94,5.77 C35.9779822,5.81657911 36.0348979,5.84360775 36.095,5.84360775 C36.1551021,5.84360775 36.2120178,5.81657911 36.25,5.77 L36.76,5.14 C37.1071846,4.61868385 37.5244285,4.14760204 38,3.74 C38.2,3.59 38.42,3.48 38.62,3.34 C38.9226773,3.1272888 39.2615277,2.97141763 39.62,2.88 C39.7,2.88 39.8,2.88 39.85,2.8 C40.1248441,2.53600733 40.4264763,2.30140451 40.75,2.1 C41.0034622,1.89926474 41.2745674,1.72187489 41.56,1.57 C41.72,1.48 41.92,1.46 42.07,1.36 C42.2657806,1.23197652 42.487999,1.14992665 42.72,1.12 C43.1295306,1.08539214 43.5328713,0.998001653 43.92,0.86 C44.0943141,0.754587624 44.3062992,0.731587799 44.4991649,0.797162135 C44.6920306,0.862736471 44.846064,1.01018261 44.92,1.2 C45.03,1.4 45.2,1.55 45.45,1.42 C45.7,1.29 46.15,1.04 46.45,0.84 C46.8850223,0.537622365 47.3551236,0.289140238 47.85,0.1 C48.65,-0.16 48.72,0.17 48.79,0.67 C48.7916243,0.689967021 48.7916243,0.710032979 48.79,0.73 C48.79,0.98 48.95,1.03 49.13,0.94 C49.8129607,0.677220762 50.5245494,0.495967018 51.25,0.4 C51.3667292,0.360377258 51.4932708,0.360377258 51.61,0.4 C51.8577675,0.475100535 52.1222325,0.475100535 52.37,0.4 C52.4782253,0.372056336 52.5917747,0.372056336 52.7,0.4 C53.0395658,0.554993257 53.4068671,0.640016718 53.78,0.65 C53.955346,0.648202767 54.1049585,0.776442049 54.13,0.95 C54.13,1.16 54.13,1.31 53.95,1.41 C53.7113178,1.51400662 53.4889993,1.65211359 53.29,1.82 C52.8510904,2.20844683 52.4493519,2.63696782 52.09,3.1 C51.9068871,3.30567972 51.7764811,3.55276461 51.71,3.82 L51.71,3.82 Z M37.64,8.82 C37.5,8.82 37.53,8.94 37.55,9.03 C37.635631,9.37634027 37.8366688,9.6831874 38.12,9.9 C38.4482328,10.2160993 38.8560358,10.4372805 39.3,10.54 C39.6,10.54 39.89,10.8 40.18,10.77 C40.7696754,10.6968008 41.3541627,10.5865832 41.93,10.44 C42.06,10.44 42.1,10.31 42.06,10.15 C41.9920394,9.94274001 41.8714396,9.75667173 41.71,9.61 C41.1963383,9.01647822 40.6233612,8.47700861 40,8 C39.7319746,7.84034241 39.3980254,7.84034241 39.13,8 C38.8770907,8.17631095 38.5856238,8.28946869 38.28,8.33 C38.0036438,8.40801759 37.7741627,8.60107309 37.65,8.86 L37.64,8.82 Z M51.52,1 C51.4167586,1.00616574 51.3132414,1.00616574 51.21,1 C50.4678081,0.977139813 49.737044,1.18692855 49.12,1.6 C48.8224755,1.70909124 48.5551321,1.88732013 48.34,2.12 C48.15,2.39 47.79,2.52 47.75,2.9 L47.69,2.96 C47.5,3.03 47.47,3.19 47.44,3.36 C47.4223777,3.5368217 47.3854923,3.71118926 47.33,3.88 C47.26,4.08 47.33,4.19 47.5,4.21 C47.9060087,4.32004554 48.3339913,4.32004554 48.74,4.21 C49.1502942,4.03577376 49.594834,3.95712441 50.04,3.98 C50.724641,3.95914359 51.3509887,3.58937208 51.7,3 C51.7846484,2.83090253 51.8850954,2.67018734 52,2.52 C52.3143882,2.25355276 52.5524827,1.90848818 52.69,1.52 C52.8,1.22 52.81,1.18 52.52,1.04 C52.1924727,0.96152361 51.852749,0.94793466 51.52,1 L51.52,1 Z M40.17,4.64 C40.1816145,5.04562913 40.255823,5.44702949 40.39,5.83 C40.4415383,6.07126015 40.5804395,6.28495425 40.78,6.43 C41.13,6.67 41.39,6.36 41.69,6.29 C42.27,6.14 42.64,5.62 43.2,5.45 C43.3338454,5.41118561 43.4161603,5.27688236 43.39,5.14 C43.4121729,4.87045522 43.4121729,4.59954478 43.39,4.33 C43.3462366,4.16312244 43.391594,3.98547262 43.51,3.86 C43.81863,3.4869756 43.9267786,2.98725463 43.8,2.52 C43.7455705,2.33763113 43.7911602,2.14007596 43.92,2 C44,1.94 44.1,1.87 44.04,1.75 C43.98,1.63 43.88,1.62 43.76,1.6 C43.46,1.6 43.25,1.75 43,1.84 C42.4729238,1.96422742 41.96735,2.16645694 41.5,2.44 C40.7571846,2.94441394 40.2714647,3.74786045 40.17,4.64 L40.17,4.64 Z M49.27,8.37 C49.54,8.37 49.83,8.45 50.07,8.21 C50.31,7.97 50.22,7.98 50.07,7.86 C49.7806326,7.64271624 49.5097111,7.40189716 49.26,7.14 C49.0584733,6.93034035 48.8411699,6.73643888 48.61,6.56 C48.02,6.17 47.47,5.73 46.91,5.29 C46.6636223,5.1872221 46.3863777,5.1872221 46.14,5.29 C46.0467111,5.3649817 45.9296202,5.404012 45.81,5.4 C45.49,5.45 45.17,5.5 44.81,5.57 C44.666238,5.5983476 44.5619586,5.72348287 44.56,5.87 C44.5274759,6.12769118 44.5839238,6.38876294 44.72,6.61 C44.8928645,6.97690707 45.122332,7.31435932 45.4,7.61 C45.64,7.81 45.93,7.88 46.17,8.06 C46.4587794,8.2732601 46.8112289,8.38251944 47.17,8.37 C47.869258,8.41273029 48.5703668,8.4160689 49.27,8.38 L49.27,8.37 Z M45.34,9.67 L45.65,9.67 C45.8332446,9.69344342 46.0132285,9.60736415 46.11,9.45 C46.2,9.29 46.03,9.21 45.96,9.1 C45.9569625,9.07676552 45.9569625,9.05323448 45.96,9.03 C45.8,8.45 45.26,8.2 44.86,7.84 C44.4536116,7.54941985 44.0812623,7.21397005 43.75,6.84 C43.6239709,6.6678052 43.4721948,6.51602915 43.3,6.39 C43.2146367,6.33545203 43.1053633,6.33545203 43.02,6.39 C42.5581935,6.529878 42.1097568,6.71059132 41.68,6.93 C41.4045885,7.07973472 41.1682316,7.29211344 40.99,7.55 C40.9539689,7.58568341 40.9336974,7.63428962 40.9336974,7.685 C40.9336974,7.73571038 40.9539689,7.78431659 40.99,7.82 C41.1878745,8.08965838 41.4275622,8.32597012 41.7,8.52 C42.0885101,8.84069843 42.5278992,9.09419213 43,9.27 C43.1153878,9.31142018 43.2260165,9.36505834 43.33,9.43 C43.5342303,9.54230058 43.7584263,9.61363569 43.99,9.64 C44.4373602,9.70054011 44.8898402,9.71394692 45.34,9.68 L45.34,9.67 Z M44.23,4.17 C44.2129022,4.5763361 44.4590553,4.94758343 44.84,5.09 C44.9932256,5.16418716 45.1770945,5.12741336 45.29,5 C45.3717838,4.88682943 45.5005435,4.81693135 45.64,4.81 C45.9005105,4.81592099 46.144424,4.68253077 46.28,4.46 C46.3743011,4.24586437 46.4414878,4.02078903 46.48,3.79 C46.5031884,3.61441755 46.5800206,3.45027601 46.7,3.32 C47.1281213,2.84883874 47.5036677,2.33246236 47.82,1.78 C47.94,1.59 48.06,1.34 47.82,1.13 C47.6285684,0.994358439 47.3657291,1.02452033 47.21,1.2 C46.89,1.56 46.41,1.62 46.04,1.89 C45.5267051,2.17976711 45.0667425,2.55517775 44.68,3 C44.3837644,3.3167709 44.222383,3.7363627 44.23,4.17 L44.23,4.17 Z M36.76,6.78 L36.76,7 C36.76,7.82 37.2,8.07 37.96,7.83 C38.2237298,7.6963614 38.4940782,7.57620656 38.77,7.47 C39.1226467,7.37187339 39.4594054,7.22369958 39.77,7.03 C40.07,6.87 40.11,6.69 39.95,6.39 C39.9221317,6.33186373 39.8987307,6.27168978 39.88,6.21 C39.69,5.66 39.58,5.09 39.43,4.54 C39.28,3.99 38.78,3.81 38.5,4.14 C38.22,4.47 37.89,4.69 37.62,5 C37.1404618,5.47912982 36.837329,6.10654438 36.76,6.78 L36.76,6.78 Z M51.61,7.26 C52.1064375,7.30692118 52.6069117,7.23493517 53.07,7.05 C53.44,6.9 53.49,6.72 53.21,6.45 C52.7989918,6.00748678 52.3316651,5.62084959 51.82,5.3 C51.47,5.1 51.12,4.93 50.76,4.76 C50.4957828,4.67029224 50.2190143,4.62303909 49.94,4.62 C49.3535447,4.56128524 48.7613428,4.60527738 48.19,4.75 C48.01,4.75 47.99,4.89 48.03,5.06 C48.1202587,5.3056429 48.2597818,5.53024103 48.44,5.72 C48.7383981,6.19874952 49.1690872,6.58081248 49.68,6.82 C50.2731635,7.1345983 50.9390922,7.28641625 51.61,7.26 L51.61,7.26 Z M36.36,11.81 C36.5928831,11.8546911 36.8332799,11.7881196 37.01,11.63 C37.0842479,11.5705952 37.1750808,11.5356595 37.27,11.53 C37.67,11.45 37.82,11.24 37.78,10.87 C37.78,10.66 37.59,10.58 37.46,10.47 C37.2925087,10.3561984 37.1662439,10.1913528 37.1,10 C37,9.71 36.74,9.53 36.6,9.27 C36.55,9.17 36.44,9.16 36.33,9.19 C35.92,9.28 35.61,9.64 35.16,9.65 L35.11,9.71 C34.81,10.02 34.58,10.34 34.96,10.71 C34.9652405,10.7431274 34.9652405,10.7768726 34.96,10.81 C35.1330866,11.4313308 35.7161184,11.8477821 36.36,11.81 L36.36,11.81 Z M36.25,8.29 C36.1641555,7.87172485 36.0368604,7.4630407 35.87,7.07 C35.7791424,6.85208123 35.572401,6.70468044 35.3367681,6.6898207 C35.1011351,6.67496097 34.8775141,6.79522179 34.76,7 C34.4744127,7.41554187 34.2770182,7.88520445 34.18,8.38 C34.171537,8.5016401 34.1514453,8.62219029 34.12,8.74 C34.0475225,8.98525562 34.1304993,9.24999128 34.33,9.41 C34.4,9.48 34.45,9.48 34.54,9.41 C35.0033534,9.13631448 35.492344,8.90856544 36,8.73 C36.1870821,8.67222158 36.2996349,8.48174757 36.26,8.29 L36.25,8.29 Z"/>
    <path d="M55.82,3.61 C56.5749158,3.59820084 57.3290014,3.66523068 58.07,3.81 C58.5968471,3.92911872 59.1096777,4.10341411 59.6,4.33 C59.66,4.33 59.74,4.33 59.72,4.46 C59.7,4.59 59.63,4.54 59.57,4.55 C59.2437342,4.63417945 58.9048117,4.65790403 58.57,4.62 C58.1586968,4.62010074 57.7478249,4.59337737 57.34,4.54 C56.4001704,4.32515872 55.4430388,4.19464077 54.48,4.15 C54.36,4.15 54.2,4.15 54.19,3.99 C54.18,3.83 54.33,3.78 54.45,3.74 C54.8350747,3.6224115 55.2381491,3.57499097 55.64,3.6 L55.82,3.61 Z M57.94,2.63 C57.3900411,2.85602232 56.7649627,2.80393246 56.26,2.49 C56.1067825,2.37977961 55.9168294,2.33318736 55.73,2.36 C55.55,2.36 55.23,2.36 55.24,2.24 C55.25,2.12 55.55,2.1 55.74,2.09 L56.44,2.09 C56.6838829,2.08116115 56.9235699,2.15518217 57.12,2.3 C57.2118057,2.37994637 57.3283345,2.42585165 57.45,2.43 C57.6296866,2.44605053 57.8004028,2.51573061 57.94,2.63 L57.94,2.63 Z M56.33,5.24 C56.5368228,5.21543062 56.7465069,5.24293017 56.94,5.32 C57.08,5.39 57.21,5.47 57.22,5.64 C57.23,5.81 57.22,5.89 57.02,5.92 C56.6039991,5.95331198 56.1860009,5.95331198 55.77,5.92 C55.5,5.92 55.52,5.65 55.5,5.47 C55.48,5.29 55.67,5.35 55.77,5.32 C55.9510929,5.26314026 56.1402301,5.23612067 56.33,5.24 L56.33,5.24 Z M9,3.82 C9.21,3.93 9.09,4.04 9,4.15 C8.69272078,4.53953314 8.35857207,4.90709672 8,5.25 C7.87,5.37 7.73,5.48 7.6,5.59 C7.32,5.83 6.98,6 6.7,6.23 C6.5585093,6.36781774 6.38222927,6.46459893 6.19,6.51 C5.93,6.51 5.88,6.73 5.82,6.94 C5.77052581,7.11045995 5.85648082,7.29096547 6.02,7.36 C6.41654289,7.62486571 6.87455142,7.78327468 7.35,7.82 C7.84,7.82 8.35,7.89 8.83,7.87 C9.15,7.87 9.28,8.01 9.29,8.33 C9.29,8.44 9.29,8.55 9.39,8.61 C9.65642527,8.84314208 9.97562304,9.00788932 10.32,9.09 C11.0492597,9.13649394 11.7807403,9.13649394 12.51,9.09 C12.8373683,9.00770991 13.1726196,8.96077474 13.51,8.95 C13.77,8.95 13.96,9.08 14,9.36 C14.0068627,9.47990188 14.0068627,9.60009812 14,9.72 C13.9906428,9.85173381 14.0396259,9.98092811 14.1339681,10.073345 C14.2283104,10.165762 14.3584871,10.2120711 14.49,10.2 L14.82,10.2 C15.34,10.55 15.82,10.09 16.38,10.2 C16.5935398,10.1045884 16.8263243,10.0600855 17.06,10.07 C17.3993621,10.0277802 17.7184483,10.2405043 17.81,10.57 C17.9,10.83 18.03,11 18.35,10.99 C18.4696679,11.0090694 18.5848734,11.0497302 18.69,11.11 C19.259514,11.3151104 19.8676853,11.3902777 20.47,11.33 C20.8359854,11.249841 21.2171278,11.2740955 21.57,11.4 C21.9675547,11.593977 22.3747511,11.7675362 22.79,11.92 C23.2391742,12.0645475 23.7013543,12.1650214 24.17,12.22 C24.4526464,12.2759145 24.745615,12.244525 25.01,12.13 C25.14,12.08 25.2,11.94 25.36,11.92 C25.649403,11.8764836 25.9052189,11.708376 26.06,11.46 C26.18,11.27 26.28,11.07 26.4,10.88 C26.62,10.54 26.62,10.55 26.97,10.77 C27.1082317,10.8443017 27.251992,10.9078237 27.4,10.96 C27.48,10.96 27.6,11.01 27.65,11.08 C27.9343878,11.3498106 28.2763119,11.5515458 28.65,11.67 C29.13,11.92 29.51,12.3 29.97,12.56 C30.2643914,12.7448857 30.5391478,12.9593297 30.79,13.2 C31.23,13.59 31.73,13.93 32.21,14.27 C33.06,14.88 33.83,15.59 34.71,16.16 C34.9068738,16.3345741 35.2031262,16.3345741 35.4,16.16 C35.04,15.98 34.95,15.6 34.67,15.38 C34.23,15.04 33.8,14.68 33.39,14.31 C32.9659975,13.9517041 32.5219461,13.6178308 32.06,13.31 L30.87,12.48 C30.5910229,12.2642956 30.2892164,12.0798583 29.97,11.93 C29.5908222,11.7205754 29.2235882,11.4902195 28.87,11.24 C28.48,11.04 28.16,10.72 27.78,10.48 C27.4,10.24 27.04,9.96 27.13,9.41 C27.1634912,8.72833878 27.0545061,8.04718164 26.81,7.41 C26.693025,7.05782668 26.4982003,6.73653673 26.24,6.47 C26.04,6.22 25.8,6.02 25.58,5.79 C25.5029743,5.68242712 25.3691463,5.63125758 25.24,5.66 C25.0732646,5.6699626 24.9116805,5.72153197 24.77,5.81 C24.7320178,5.85657911 24.6751021,5.88360775 24.615,5.88360775 C24.5548979,5.88360775 24.4979822,5.85657911 24.46,5.81 L23.95,5.18 C23.5790124,4.64984517 23.1345695,4.17509939 22.63,3.77 C22.43,3.62 22.21,3.51 22.01,3.37 C21.7073227,3.1572888 21.3684723,3.00141763 21.01,2.91 C20.93,2.91 20.83,2.91 20.78,2.83 C20.5051559,2.56600733 20.2035237,2.33140451 19.88,2.13 C19.6265378,1.92926474 19.3554326,1.75187489 19.07,1.6 C18.91,1.51 18.71,1.49 18.56,1.39 C18.3642194,1.26197652 18.142001,1.17992665 17.91,1.15 C17.5296802,1.09834274 17.1569853,1.00097198 16.8,0.86 C16.6256859,0.754587624 16.4137008,0.731587799 16.2208351,0.797162135 C16.0279694,0.862736471 15.873936,1.01018261 15.8,1.2 C15.69,1.4 15.52,1.55 15.27,1.42 C15.02,1.29 14.57,1.04 14.27,0.84 C13.8349777,0.537622365 13.3648764,0.289140238 12.87,0.1 C12.07,-0.16 12,0.17 11.93,0.67 C11.9283757,0.689967021 11.9283757,0.710032979 11.93,0.73 C11.93,0.98 11.77,1.03 11.59,0.94 C10.9070393,0.677220762 10.1954506,0.495967018 9.47,0.4 C9.35327075,0.360377258 9.22672925,0.360377258 9.11,0.4 C8.86223255,0.475100535 8.59776745,0.475100535 8.35,0.4 C8.23186404,0.381376295 8.11088778,0.395202154 8,0.44 C7.66351877,0.59369309 7.29974746,0.678686387 6.93,0.69 C6.75465403,0.688202767 6.60504153,0.816442049 6.58,0.99 C6.58,1.2 6.58,1.35 6.76,1.45 C6.99868218,1.55400662 7.22100072,1.69211359 7.42,1.86 C7.85890964,2.24844683 8.26064807,2.67696782 8.62,3.14 C8.79759089,3.33419967 8.92767224,3.56697681 9,3.82 Z M23.07,8.82 C23.21,8.82 23.18,8.94 23.16,9.03 C23.074369,9.37634027 22.8733312,9.6831874 22.59,9.9 C22.2617672,10.2160993 21.8539642,10.4372805 21.41,10.54 C21.11,10.54 20.82,10.8 20.53,10.77 C19.9403246,10.6968008 19.3558373,10.5865832 18.78,10.44 C18.65,10.44 18.61,10.31 18.65,10.15 C18.7194952,9.94634483 18.83999,9.76388128 19,9.62 C19.5037157,9.02452085 20.0666035,8.48173616 20.68,8 C20.9577905,7.8239545 21.3122095,7.8239545 21.59,8 C21.8429093,8.17631095 22.1343762,8.28946869 22.44,8.33 C22.7163562,8.40801759 22.9458373,8.60107309 23.07,8.86 L23.07,8.82 Z M9.2,1 C9.30324136,1.00616574 9.40675864,1.00616574 9.51,1 C10.2521919,0.977139813 10.982956,1.18692855 11.6,1.6 C11.8975245,1.70909124 12.1648679,1.88732013 12.38,2.12 C12.57,2.39 12.93,2.52 12.97,2.9 L13.03,2.96 C13.22,3.03 13.25,3.19 13.28,3.36 C13.2976223,3.5368217 13.3345077,3.71118926 13.39,3.88 C13.46,4.08 13.39,4.19 13.22,4.21 C12.8139913,4.32004554 12.3860087,4.32004554 11.98,4.21 C11.5697058,4.03577376 11.125166,3.95712441 10.68,3.98 C9.98817495,3.96595548 9.35276093,3.5952973 9,3 C8.90370486,2.84353813 8.79324075,2.69625266 8.67,2.56 C8.35561181,2.29355276 8.11751725,1.94848818 7.98,1.56 C7.87,1.26 7.86,1.22 8.15,1.08 C8.49077793,0.981429972 8.84822215,0.954196126 9.2,1 Z M20.55,4.64 C20.5383855,5.04562913 20.464177,5.44702949 20.33,5.83 C20.2784617,6.07126015 20.1395605,6.28495425 19.94,6.43 C19.59,6.67 19.33,6.36 19.03,6.29 C18.45,6.14 18.08,5.62 17.52,5.45 C17.3861546,5.41118561 17.3038397,5.27688236 17.33,5.14 C17.3078271,4.87045522 17.3078271,4.59954478 17.33,4.33 C17.3737634,4.16312244 17.328406,3.98547262 17.21,3.86 C16.928971,3.47293411 16.8508552,2.97448119 17,2.52 C17.0347995,2.32300163 16.9578397,2.12290637 16.8,2 C16.72,1.94 16.62,1.87 16.68,1.75 C16.74,1.63 16.84,1.62 16.96,1.6 C17.26,1.6 17.47,1.75 17.72,1.84 C18.2470762,1.96422742 18.75265,2.16645694 19.22,2.44 C19.9628154,2.94441394 20.4485353,3.74786045 20.55,4.64 Z M11.45,8.37 C11.18,8.37 10.89,8.45 10.65,8.21 C10.41,7.97 10.5,7.98 10.65,7.86 C10.9393674,7.64271624 11.2102889,7.40189716 11.46,7.14 C11.6615267,6.93034035 11.8788301,6.73643888 12.11,6.56 C12.7,6.17 13.25,5.73 13.81,5.29 C14.0563777,5.1872221 14.3336223,5.1872221 14.58,5.29 C14.6732889,5.3649817 14.7903798,5.404012 14.91,5.4 C15.23,5.45 15.55,5.5 15.91,5.57 C16.053762,5.5983476 16.1580414,5.72348287 16.16,5.87 C16.1925241,6.12769118 16.1360762,6.38876294 16,6.61 C15.8271355,6.97690707 15.597668,7.31435932 15.32,7.61 C15.08,7.81 14.79,7.88 14.55,8.06 C14.2612206,8.2732601 13.9087711,8.38251944 13.55,8.37 C12.850742,8.41273029 12.1496332,8.4160689 11.45,8.38 L11.45,8.37 Z M15.38,9.67 L15.07,9.67 C14.8867554,9.69344342 14.7067715,9.60736415 14.61,9.45 C14.52,9.29 14.69,9.21 14.76,9.1 C14.7630375,9.07676552 14.7630375,9.05323448 14.76,9.03 C14.92,8.45 15.46,8.2 15.86,7.84 C16.2663884,7.54941985 16.6387377,7.21397005 16.97,6.84 C17.0960291,6.6678052 17.2478052,6.51602915 17.42,6.39 C17.5053633,6.33545203 17.6146367,6.33545203 17.7,6.39 C18.1618065,6.529878 18.6102432,6.71059132 19.04,6.93 C19.3154115,7.07973472 19.5517684,7.29211344 19.73,7.55 C19.7660311,7.58568341 19.7863026,7.63428962 19.7863026,7.685 C19.7863026,7.73571038 19.7660311,7.78431659 19.73,7.82 C19.5321255,8.08965838 19.2924378,8.32597012 19.02,8.52 C18.6351799,8.87362915 18.1919456,9.15784048 17.71,9.36 C17.5946122,9.40142018 17.4839835,9.45505834 17.38,9.52 C17.1757697,9.63230058 16.9515737,9.70363569 16.72,9.73 C16.2728093,9.75993493 15.8237163,9.74317773 15.38,9.68 L15.38,9.67 Z M16.49,4.16 C16.5070978,4.5663361 16.2609447,4.93758343 15.88,5.08 C15.7289341,5.15660318 15.5454074,5.1239762 15.43,5 C15.3482162,4.88682943 15.2194565,4.81693135 15.08,4.81 C14.8194895,4.81592099 14.575576,4.68253077 14.44,4.46 C14.3456989,4.24586437 14.2785122,4.02078903 14.24,3.79 C14.2174118,3.60140267 14.1330214,3.42558937 14,3.29 C13.5788575,2.81784746 13.210044,2.30150856 12.9,1.75 C12.78,1.56 12.66,1.31 12.9,1.1 C13.0914316,0.964358439 13.3542709,0.994520329 13.51,1.17 C13.83,1.53 14.31,1.59 14.68,1.86 C15.1813852,2.16250388 15.6277354,2.54798813 16,3 C16.310855,3.31037655 16.486902,3.73073374 16.49,4.17 L16.49,4.16 Z M24,6.78 L24,7 C24,7.82 23.56,8.07 22.8,7.83 C22.539535,7.69666884 22.2725313,7.57651718 22,7.47 C21.6457012,7.36249248 21.3088634,7.2041787 21,7 C20.7,6.84 20.66,6.66 20.82,6.36 C20.8478683,6.30186373 20.8712693,6.24168978 20.89,6.18 C21.08,5.63 21.19,5.06 21.34,4.51 C21.49,3.96 21.99,3.78 22.27,4.11 C22.55,4.44 22.88,4.66 23.15,4.97 C23.6319887,5.45837287 23.931997,6.09721397 24,6.78 L24,6.78 Z M9.11,7.26 C8.6135625,7.30692118 8.11308829,7.23493517 7.65,7.05 C7.28,6.9 7.23,6.72 7.51,6.45 C7.92100817,6.00748678 8.38833486,5.62084959 8.9,5.3 C9.25,5.1 9.6,4.93 9.96,4.76 C10.2242172,4.67029224 10.5009857,4.62303909 10.78,4.62 C11.3664553,4.56128524 11.9586572,4.60527738 12.53,4.75 C12.71,4.75 12.73,4.89 12.69,5.06 C12.5997413,5.3056429 12.4602182,5.53024103 12.28,5.72 C11.9709086,6.20466525 11.5256397,6.58731822 11,6.82 C10.4186975,7.12776653 9.76746283,7.27937671 9.11,7.26 L9.11,7.26 Z M24.35,11.81 C24.1171169,11.8546911 23.8767201,11.7881196 23.7,11.63 C23.6257521,11.5705952 23.5349192,11.5356595 23.44,11.53 C23.04,11.45 22.89,11.24 22.93,10.87 C22.93,10.66 23.12,10.58 23.25,10.47 C23.4057021,10.3677689 23.5275223,10.2215847 23.6,10.05 C23.7,9.76 23.96,9.58 24.1,9.32 C24.15,9.22 24.26,9.21 24.37,9.24 C24.78,9.33 25.09,9.69 25.54,9.7 L25.59,9.76 C25.89,10.07 26.12,10.39 25.74,10.76 C25.7347595,10.7931274 25.7347595,10.8268726 25.74,10.86 C25.5497869,11.4538103 24.982589,11.8442726 24.36,11.81 L24.35,11.81 Z M24.46,8.29 C24.5458445,7.87172485 24.6731396,7.4630407 24.84,7.07 C24.9155619,6.82226864 25.1371529,6.64760923 25.3956815,6.63200837 C25.6542101,6.6164075 25.8951963,6.76315278 26,7 C26.2855873,7.41554187 26.4829818,7.88520445 26.58,8.38 C26.588463,8.5016401 26.6085547,8.62219029 26.64,8.74 C26.7124775,8.98525562 26.6295007,9.24999128 26.43,9.41 C26.36,9.48 26.31,9.48 26.22,9.41 C25.7737459,9.12885937 25.3015901,8.89110713 24.81,8.7 C24.7090969,8.6923503 24.6154124,8.64477061 24.5497117,8.56780705 C24.4840111,8.49084348 24.4517215,8.39085349 24.46,8.29 L24.46,8.29 Z"/>
    <path d="M4.9,3.61 C4.14508421,3.59820084 3.39099859,3.66523068 2.65,3.81 C2.12315295,3.92911872 1.61032226,4.10341411 1.12,4.33 C1.06,4.33 0.98,4.33 1,4.46 C1.02,4.59 1.09,4.54 1.15,4.55 C1.47626584,4.63417945 1.81518832,4.65790403 2.15,4.62 C2.56797647,4.62097742 2.98555823,4.59425218 3.4,4.54 C4.33982961,4.32515872 5.29696123,4.19464077 6.26,4.15 C6.38,4.15 6.54,4.15 6.55,3.99 C6.56,3.83 6.41,3.78 6.29,3.74 C5.9043126,3.6257854 5.50125039,3.5817534 5.1,3.61 L4.9,3.61 Z M2.78,2.63 C3.32995892,2.85602232 3.95503731,2.80393246 4.46,2.49 C4.61583925,2.37720705 4.8099022,2.33048819 5,2.36 C5.18,2.36 5.5,2.36 5.49,2.24 C5.48,2.12 5.18,2.1 4.99,2.09 L4.29,2.09 C4.04611715,2.08116115 3.80643005,2.15518217 3.61,2.3 C3.51819431,2.37994637 3.40166552,2.42585165 3.28,2.43 C3.0968271,2.44407285 2.92234785,2.51386454 2.78,2.63 L2.78,2.63 Z M4.39,5.24 C4.18317717,5.21543062 3.9734931,5.24293017 3.78,5.32 C3.64,5.39 3.51,5.47 3.5,5.64 C3.49,5.81 3.5,5.89 3.7,5.92 C4.11600085,5.95331198 4.53399915,5.95331198 4.95,5.92 C5.22,5.92 5.2,5.65 5.22,5.47 C5.24,5.29 5.05,5.35 4.95,5.32 C4.76890707,5.26314026 4.57976994,5.23612067 4.39,5.24 L4.39,5.24 Z"/>
  </g>
</svg>
