<svg xmlns="http://www.w3.org/2000/svg" width="59" height="17" viewBox="0 0 59 17"><g fill="#9eca8c"><path d="M50.71 3.82c-.21.11-.09.22 0 .33.31.376.643.73 1 1.06.13.12.27.23.4.34.28.24.62.41.9.64.14.138.318.235.51.28.26 0 .31.22.37.43.05.17-.036.35-.2.42-.397.265-.855.423-1.33.46-.49 0-1 .07-1.48.05-.32 0-.45.14-.46.46 0 .11 0 .22-.1.28-.266.233-.586.398-.93.48-.73.046-1.46.046-2.19 0-.327-.082-.663-.13-1-.14-.26 0-.45.13-.49.41-.007.12-.007.24 0 .36.01.132-.04.26-.134.353-.094.093-.224.14-.356.127h-.33c-.52.35-1-.11-1.56 0-.214-.095-.446-.14-.68-.13-.34-.042-.658.17-.75.5-.09.26-.22.43-.54.42-.12.02-.235.06-.34.12-.57.205-1.178.28-1.78.22-.366-.08-.747-.056-1.1.07-.398.194-.805.368-1.22.52-.45.145-.91.245-1.38.3-.283.056-.576.025-.84-.09-.13-.05-.19-.19-.35-.21-.29-.044-.545-.212-.7-.46-.12-.19-.22-.39-.34-.58-.22-.34-.22-.33-.57-.11-.138.074-.282.138-.43.19-.08 0-.2.05-.25.12-.284.27-.626.472-1 .59-.48.25-.86.63-1.32.89-.294.185-.57.4-.82.64-.44.39-.94.73-1.42 1.07-.85.61-1.62 1.32-2.5 1.89-.197.175-.493.175-.69 0 .36-.18.45-.56.73-.78.44-.34.87-.7 1.28-1.07.424-.358.868-.692 1.33-1l1.19-.83c.28-.216.58-.4.9-.55.38-.21.746-.44 1.1-.69.39-.2.71-.52 1.09-.76.38-.24.74-.52.65-1.07-.033-.682.075-1.363.32-2 .117-.352.312-.673.57-.94.2-.25.44-.45.66-.68.077-.108.21-.16.34-.13.167.01.328.062.47.15.038.047.095.074.155.074s.117-.027.155-.074l.51-.63c.347-.52.764-.992 1.24-1.4.2-.15.42-.26.62-.4.303-.213.642-.37 1-.46.08 0 .18 0 .23-.08.275-.264.576-.5.9-.7.253-.2.525-.378.81-.53.16-.09.36-.11.51-.21.196-.128.418-.21.65-.24.41-.035.813-.122 1.2-.26.174-.105.386-.128.58-.063.192.066.346.213.42.403.11.2.28.35.53.22.25-.13.7-.38 1-.58.435-.302.905-.55 1.4-.74.8-.26.87.07.94.57.002.02.002.04 0 .06 0 .25.16.3.34.21.683-.263 1.395-.444 2.12-.54.117-.04.243-.04.36 0 .248.075.512.075.76 0 .108-.028.222-.028.33 0 .34.155.707.24 1.08.25.175-.002.325.126.35.3 0 .21 0 .36-.18.46-.24.104-.46.242-.66.41-.44.388-.84.817-1.2 1.28-.183.206-.314.453-.38.72zm-14.07 5c-.14 0-.11.12-.09.21.086.346.287.653.57.87.328.316.736.537 1.18.64.3 0 .59.26.88.23.59-.073 1.174-.183 1.75-.33.13 0 .17-.13.13-.29-.068-.207-.19-.393-.35-.54C40.196 9.016 39.623 8.477 39 8c-.268-.16-.602-.16-.87 0-.253.176-.544.29-.85.33-.276.078-.506.27-.63.53l-.01-.04zM50.52 1c-.103.006-.207.006-.31 0-.742-.023-1.473.187-2.09.6-.298.11-.565.287-.78.52-.19.27-.55.4-.59.78l-.06.06c-.19.07-.22.23-.25.4-.018.177-.055.35-.11.52-.07.2 0 .31.17.33.406.11.834.11 1.24 0 .41-.174.855-.253 1.3-.23.685-.02 1.31-.39 1.66-.98.085-.17.185-.33.3-.48.314-.266.552-.612.69-1 .11-.3.12-.34-.17-.48-.328-.078-.667-.092-1-.04zM39.17 4.64c.012.406.086.807.22 1.19.052.24.19.455.39.6.35.24.61-.07.91-.14.58-.15.95-.67 1.51-.84.134-.04.216-.173.19-.31.022-.27.022-.54 0-.81-.044-.167.002-.345.12-.47.31-.373.417-.873.29-1.34-.054-.182-.01-.38.12-.52.08-.06.18-.13.12-.25s-.16-.13-.28-.15c-.3 0-.51.15-.76.24-.527.124-1.033.326-1.5.6-.743.504-1.23 1.308-1.33 2.2zm9.1 3.73c.27 0 .56.08.8-.16s.15-.23 0-.35c-.29-.217-.56-.458-.81-.72-.202-.21-.42-.404-.65-.58-.59-.39-1.14-.83-1.7-1.27-.246-.103-.524-.103-.77 0-.093.075-.21.114-.33.11-.32.05-.64.1-1 .17-.144.028-.248.153-.25.3-.033.258.024.52.16.74.173.367.402.704.68 1 .24.2.53.27.77.45.29.213.64.323 1 .31.7.043 1.4.046 2.1.01v-.01zm-3.93 1.3h.31c.183.023.363-.063.46-.22.09-.16-.08-.24-.15-.35-.003-.023-.003-.047 0-.07-.16-.58-.7-.83-1.1-1.19-.406-.29-.78-.626-1.11-1-.126-.172-.278-.324-.45-.45-.085-.055-.195-.055-.28 0-.462.14-.91.32-1.34.54-.275.15-.512.362-.69.62-.036.036-.056.084-.056.135 0 .05.02.1.056.135.198.27.438.506.71.7.39.32.828.574 1.3.75.115.04.226.095.33.16.204.112.428.184.66.21.447.06.9.074 1.35.04v-.01zm-1.11-5.5c-.017.406.23.778.61.92.153.074.337.037.45-.09.082-.113.21-.183.35-.19.26.006.504-.127.64-.35.094-.214.16-.44.2-.67.023-.176.1-.34.22-.47.428-.47.804-.988 1.12-1.54.12-.19.24-.44 0-.65-.19-.136-.454-.105-.61.07-.32.36-.8.42-1.17.69-.513.29-.973.665-1.36 1.11-.296.317-.458.736-.45 1.17zm-7.47 2.61V7c0 .82.44 1.07 1.2.83.264-.134.534-.254.81-.36.353-.098.69-.246 1-.44.3-.16.34-.34.18-.64-.028-.058-.05-.118-.07-.18-.19-.55-.3-1.12-.45-1.67-.15-.55-.65-.73-.93-.4-.28.33-.61.55-.88.86-.48.48-.783 1.107-.86 1.78zm14.85.48c.496.047.997-.025 1.46-.21.37-.15.42-.33.14-.6-.41-.443-.878-.83-1.39-1.15-.35-.2-.7-.37-1.06-.54-.264-.09-.54-.137-.82-.14-.586-.06-1.18-.015-1.75.13-.18 0-.2.14-.16.31.09.246.23.47.41.66.298.48.73.86 1.24 1.1.593.315 1.26.466 1.93.44zm-15.25 4.55c.233.045.473-.022.65-.18.074-.06.165-.094.26-.1.4-.08.55-.29.51-.66 0-.21-.19-.29-.32-.4-.167-.114-.294-.28-.36-.47-.1-.29-.36-.47-.5-.73-.05-.1-.16-.11-.27-.08-.41.09-.72.45-1.17.46l-.05.06c-.3.31-.53.63-.15 1 .005.033.005.067 0 .1.173.62.756 1.038 1.4 1zm-.11-3.52c-.086-.418-.213-.827-.38-1.22-.09-.218-.298-.365-.533-.38-.236-.015-.46.105-.577.31-.286.416-.483.885-.58 1.38-.008.122-.03.242-.06.36-.072.245.01.51.21.67.07.07.12.07.21 0 .463-.274.952-.5 1.46-.68.187-.058.3-.248.26-.44h-.01z"/><path d="M54.82 3.61c.755-.012 1.51.055 2.25.2.527.12 1.04.293 1.53.52.06 0 .14 0 .12.13-.02.13-.09.08-.15.09-.326.084-.665.108-1 .07-.41 0-.822-.027-1.23-.08-.94-.215-1.897-.345-2.86-.39-.12 0-.28 0-.29-.16-.01-.16.14-.21.26-.25.385-.118.788-.165 1.19-.14l.18.01zm2.12-.98c-.55.226-1.175.174-1.68-.14-.153-.11-.343-.157-.53-.13-.18 0-.5 0-.49-.12.01-.12.31-.14.5-.15h.7c.244-.01.484.065.68.21.092.08.208.126.33.13.18.016.35.086.49.2zm-1.61 2.61c.207-.025.417.003.61.08.14.07.27.15.28.32.01.17 0 .25-.2.28-.416.033-.834.033-1.25 0-.27 0-.25-.27-.27-.45-.02-.18.17-.12.27-.15.18-.057.37-.084.56-.08zM8 3.82c.21.11.09.22 0 .33-.307.39-.64.757-1 1.1-.13.12-.27.23-.4.34-.28.24-.62.41-.9.64-.14.138-.318.235-.51.28-.26 0-.31.22-.37.43-.05.17.036.35.2.42.397.265.855.423 1.33.46.49 0 1 .07 1.48.05.32 0 .45.14.46.46 0 .11 0 .22.1.28.266.233.586.398.93.48.73.046 1.46.046 2.19 0 .327-.082.663-.13 1-.14.26 0 .45.13.49.41.007.12.007.24 0 .36-.01.132.04.26.134.353.094.093.224.14.356.127h.33c.52.35 1-.11 1.56 0 .214-.095.446-.14.68-.13.34-.042.658.17.75.5.09.26.22.43.54.42.12.02.235.06.34.12.57.205 1.178.28 1.78.22.366-.08.747-.056 1.1.07.398.194.805.368 1.22.52.45.145.91.245 1.38.3.283.056.576.025.84-.09.13-.05.19-.19.35-.21.29-.044.545-.212.7-.46.12-.19.22-.39.34-.58.22-.34.22-.33.57-.11.138.074.282.138.43.19.08 0 .2.05.25.12.284.27.626.472 1 .59.48.25.86.63 1.32.89.294.185.57.4.82.64.44.39.94.73 1.42 1.07.85.61 1.62 1.32 2.5 1.89.197.175.493.175.69 0-.36-.18-.45-.56-.73-.78-.44-.34-.87-.7-1.28-1.07-.424-.358-.868-.692-1.33-1l-1.19-.83c-.28-.216-.58-.4-.9-.55-.38-.21-.746-.44-1.1-.69-.39-.2-.71-.52-1.09-.76-.38-.24-.74-.52-.65-1.07.033-.682-.075-1.363-.32-2-.117-.352-.312-.673-.57-.94-.2-.25-.44-.45-.66-.68-.077-.108-.21-.16-.34-.13-.167.01-.328.062-.47.15-.038.047-.095.074-.155.074s-.117-.027-.155-.074l-.51-.63c-.37-.53-.815-1.005-1.32-1.41-.2-.15-.42-.26-.62-.4-.303-.213-.642-.37-1-.46-.08 0-.18 0-.23-.08-.275-.264-.576-.5-.9-.7-.253-.2-.525-.378-.81-.53-.16-.09-.36-.11-.51-.21-.196-.128-.418-.21-.65-.24-.38-.052-.753-.15-1.11-.29-.174-.105-.386-.128-.58-.063-.192.066-.346.213-.42.403-.11.2-.28.35-.53.22-.25-.13-.7-.38-1-.58-.435-.302-.905-.55-1.4-.74-.8-.26-.87.07-.94.57-.002.02-.002.04 0 .06 0 .25-.16.3-.34.21C9.907.677 9.195.496 8.47.4c-.117-.04-.243-.04-.36 0-.248.075-.512.075-.76 0C7.232.38 7.11.395 7 .44c-.336.154-.7.24-1.07.25-.175-.002-.325.126-.35.3 0 .21 0 .36.18.46.24.104.46.242.66.41.44.388.84.817 1.2 1.28.178.194.308.427.38.68zm14.07 5c.14 0 .11.12.09.21-.086.346-.287.653-.57.87-.328.316-.736.537-1.18.64-.3 0-.59.26-.88.23-.59-.073-1.174-.183-1.75-.33-.13 0-.17-.13-.13-.29.07-.204.19-.386.35-.53.504-.595 1.067-1.138 1.68-1.62.278-.176.632-.176.91 0 .253.176.544.29.85.33.276.078.506.27.63.53v-.04zM8.2 1c.103.006.207.006.31 0 .742-.023 1.473.187 2.09.6.298.11.565.287.78.52.19.27.55.4.59.78l.06.06c.19.07.22.23.25.4.018.177.055.35.11.52.07.2 0 .31-.17.33-.406.11-.834.11-1.24 0-.41-.174-.855-.253-1.3-.23C8.988 3.966 8.353 3.595 8 3c-.096-.156-.207-.304-.33-.44-.314-.266-.552-.612-.69-1-.11-.3-.12-.34.17-.48.34-.1.698-.126 1.05-.08zm11.35 3.64c-.012.406-.086.807-.22 1.19-.052.24-.19.455-.39.6-.35.24-.61-.07-.91-.14-.58-.15-.95-.67-1.51-.84-.134-.04-.216-.173-.19-.31-.022-.27-.022-.54 0-.81.044-.167-.002-.345-.12-.47-.28-.387-.36-.886-.21-1.34.035-.197-.042-.397-.2-.52-.08-.06-.18-.13-.12-.25s.16-.13.28-.15c.3 0 .51.15.76.24.527.124 1.033.326 1.5.6.743.504 1.23 1.308 1.33 2.2zm-9.1 3.73c-.27 0-.56.08-.8-.16s-.15-.23 0-.35c.29-.217.56-.458.81-.72.202-.21.42-.404.65-.58.59-.39 1.14-.83 1.7-1.27.246-.103.524-.103.77 0 .093.075.21.114.33.11.32.05.64.1 1 .17.144.028.248.153.25.3.033.258-.024.52-.16.74-.173.367-.402.704-.68 1-.24.2-.53.27-.77.45-.29.213-.64.323-1 .31-.7.043-1.4.046-2.1.01v-.01zm3.93 1.3h-.31c-.183.023-.363-.063-.46-.22-.09-.16.08-.24.15-.35.003-.023.003-.047 0-.07.16-.58.7-.83 1.1-1.19.406-.29.78-.626 1.11-1 .126-.172.278-.324.45-.45.085-.055.195-.055.28 0 .462.14.91.32 1.34.54.275.15.512.362.69.62.036.036.056.084.056.135 0 .05-.02.1-.056.135-.198.27-.438.506-.71.7-.385.354-.828.638-1.31.84-.115.04-.226.095-.33.16-.204.112-.428.184-.66.21-.447.03-.896.013-1.34-.05v-.01zm1.11-5.51c.017.406-.23.778-.61.92-.15.077-.335.044-.45-.08-.082-.113-.21-.183-.35-.19-.26.006-.504-.127-.64-.35-.094-.214-.16-.44-.2-.67-.023-.19-.107-.364-.24-.5-.42-.472-.79-.988-1.1-1.54-.12-.19-.24-.44 0-.65.19-.136.454-.105.61.07.32.36.8.42 1.17.69.5.303.948.688 1.32 1.14.31.31.487.73.49 1.17v-.01zM23 6.78V7c0 .82-.44 1.07-1.2.83-.26-.133-.527-.253-.8-.36-.354-.108-.69-.266-1-.47-.3-.16-.34-.34-.18-.64.028-.058.05-.118.07-.18.19-.55.3-1.12.45-1.67.15-.55.65-.73.93-.4.28.33.61.55.88.86.482.488.782 1.127.85 1.81zm-14.89.48c-.496.047-.997-.025-1.46-.21-.37-.15-.42-.33-.14-.6.41-.443.878-.83 1.39-1.15.35-.2.7-.37 1.06-.54.264-.09.54-.137.82-.14.586-.06 1.18-.015 1.75.13.18 0 .2.14.16.31-.09.246-.23.47-.41.66-.31.485-.754.867-1.28 1.1-.58.308-1.233.46-1.89.44zm15.24 4.55c-.233.045-.473-.022-.65-.18-.074-.06-.165-.094-.26-.1-.4-.08-.55-.29-.51-.66 0-.21.19-.29.32-.4.156-.102.278-.248.35-.42.1-.29.36-.47.5-.73.05-.1.16-.11.27-.08.41.09.72.45 1.17.46l.05.06c.3.31.53.63.15 1-.005.033-.005.067 0 .1-.19.594-.757.984-1.38.95h-.01zm.11-3.52c.086-.418.213-.827.38-1.22.076-.248.297-.422.556-.438.258-.016.5.13.604.368.286.416.483.885.58 1.38.008.122.03.242.06.36.072.245-.01.51-.21.67-.07.07-.12.07-.21 0-.446-.28-.918-.52-1.41-.71-.1-.008-.195-.055-.26-.132-.066-.077-.098-.177-.09-.278z"/><path d="M3.9 3.61c-.755-.012-1.51.055-2.25.2-.527.12-1.04.293-1.53.52-.06 0-.14 0-.12.13.02.13.09.08.15.09.326.084.665.108 1 .07.418 0 .836-.026 1.25-.08.94-.215 1.897-.345 2.86-.39.12 0 .28 0 .29-.16.01-.16-.14-.21-.26-.25-.386-.114-.79-.158-1.19-.13h-.2zm-2.12-.98c.55.226 1.175.174 1.68-.14.156-.113.35-.16.54-.13.18 0 .5 0 .49-.12-.01-.12-.31-.14-.5-.15h-.7c-.244-.01-.484.065-.68.21-.092.08-.208.126-.33.13-.183.014-.358.084-.5.2zm1.61 2.61c-.207-.025-.417.003-.61.08-.14.07-.27.15-.28.32-.01.17 0 .25.2.28.416.033.834.033 1.25 0 .27 0 .25-.27.27-.45.02-.18-.17-.12-.27-.15-.18-.057-.37-.084-.56-.08z"/></g></svg>