<svg xmlns="http://www.w3.org/2000/svg" viewBox="0 0 45.21 44.88"><defs><style>.cls-1{fill:none;}.cls-2{fill:#43454a;}.cls-3{fill:#91cc85;}</style></defs><title>Asset 2</title><g id="Layer_2" data-name="Layer 2"><g id="Layer_1-2" data-name="Layer 1"><path class="cls-1" d="M25.08 3.86s0 .01 0 0zM5.8 11.95c0 .19.07.26 0 .42l.07-.06c-.02-.09.13-.42-.07-.36zM45.06 32.15v-.2a1.22 1.22 0 0 0 0 .2z"/><path class="cls-1" d="M15.91 4.06L16 4h-.26s.18.07.26.08c-.07 0-.17 0-.26.08s-.22-.06-.33-.06-.14.08-.17.08-.2 0-.11-.07.1 0 .16 0-.09-.11-.29 0 0 .17-.2.12c.06 0 .07-.06.12-.09h-.22v.08s-.34 0-.39.13a2.35 2.35 0 0 1-.31-.14.6.6 0 0 0-.42 0 .78.78 0 0 0-.33.06c-.18-.05-.07-.29-.27-.19s-.29.15-.21.2c-.33 0-.7.09-1 0 0 0 0 .05-.11.07a5.28 5.28 0 0 1-1.41 0c.14 0 0-.08 0-.12s-.14-.07-.18.05 0 .1.14.13a2.46 2.46 0 0 1-.89 0c.08 0 0 .05 0 .08s-.2-.12-.36-.08v.07l-.11-.07c-.06 0-.07.15-.23.08a.12.12 0 0 0 0-.07 1 1 0 0 1-.58.11l-.15-.1c-.08 0-.21.08-.07.1a1.62 1.62 0 0 1-.61-.14 3.31 3.31 0 0 1-.93.21h-.6v-.05s.09.09.06.08-.11 0-.17-.14c-.05.08.09.19.12.23s0-.05 0 0-.05 0 .05.15-.11 0-.16 0L5.6 5c-.11.17-.22-.38-.37-.21v.13c-.1.13-.13-.35-.16 0 .05.14.21.27.25.13 0 .3.25.13.25.46-.06.09 0-.26-.1-.2s.05.31 0 .45c0-.15.14 0 .16.07s-.1-.11-.1.13c.06 0 .11.25.15.06.14.08 0 .25.08.37-.09.08-.22-.24-.26 0 .09 0 .13.32.26.18 0 .1-.09.12-.15 0-.05.15.17.35 0 .4h.09s0 .11-.1.19.14.41 0 .4c0 0 0 .33.11.22s-.08-.21.05-.31c-.1.13 0 .26.06.37L5.81 8c0 .06 0 .21.07.24s-.07 0-.08 0l.08.06c0 .25-.14.06-.11.31l-.07-.19s-.06.13 0 .24.17.13.23.17-.08.06 0 .2l-.1-.18s-.12.12-.11.31.14.3.18.11c0 .09 0 .23-.09.15 0 .21.08 0 .13.15s-.11.31-.18.45l-.16-.18V10c-.11-.16-.07.09-.18 0a.6.6 0 0 0 .05.27c.16-.26.24.28.39.2.05.34-.37.23-.12.58 0-.06.16.11.11-.11 0 .22.16.14.1.4-.07-.19-.15.21-.25-.06.05 0 0-.15 0-.19s-.16 0-.15.21 0 .32.11.29 0-.21.08-.12c0 .27-.09.32.07.42 0-.17.07-.21.13-.21v.2h-.06c0 .32.11.09.1.4v.06c.38-.31.75-.62 1.09-.94.18-.16 0 .15.44-.21a50.07 50.07 0 0 1 5.81-4.55l-.09.12c.37-.26.72-.71 1.1-1 0 0-.09.13 0 .09s.65-.57.77-.74.19 0 .41-.16l.15-.24a3 3 0 0 1 .53-.54L16.08 4c.12.06-.08 0-.17.06zM5.8 9.16a.17.17 0 0 0 0-.09c0-.07.06 0 .07.06zm.11 1.11c0-.06-.05-.18 0-.24s.09.28 0 .24zM45.07 33c0 .1 0 .06 0 0s.01 0 0 0zM25.45 3.84zM45.08 32.59V32.6zM29.22 3.63zM28.3 2.86c-.08 0-.14-.07-.1 0h.1zM26.09 2.11c-.34-.26-.69-.54-1-.72A4.21 4.21 0 0 0 23 .77c.25 0 .38-.09.08-.1l-.31.07h-.05c-.2 0-.41.11-.2.12a4.24 4.24 0 0 0-1.37.41 6.5 6.5 0 0 0-1.25.87l-1.27 1c.29 0 .61.11.81 0 .08 0 .31 0 .25.07.27-.1.76.07 1.15-.06a.2.2 0 0 0-.1 0c.4.07.74 0 1.16 0 0 0-.12 0-.13.06.16.06.38-.15.47 0 .09 0 .06-.08 0-.08A26.83 26.83 0 0 0 25.06 3c.68.08 0 .28.58.14 0 0 0-.06 0 0 .21-.05.33.18.47.09-.06-.1.09-.06.1-.12.42.06.5.14.83.06v.05a1.5 1.5 0 0 1 .34-.22.58.58 0 0 0-.26-.13zM39.52 10.58s0 .07.06 0a21.89 21.89 0 0 1-.16-2.44s.09.06.13 0-.12-.29-.14-.51-.09-.37 0-.63c-.11-.19.06-.28-.07-.43l.08-.12c-.14-.08.07-.27 0-.43v-.36c0-.32 0-.5-.07-.5.09-.11 0 .31.17.13a20.27 20.27 0 0 1-.1-2.1h-.91c-.12 0-.2-.05-.23-.1a2.34 2.34 0 0 0-.49.09s-.07-.06-.13-.06-.21.13-.42.08c.08 0 .11-.07.08-.11a2.17 2.17 0 0 1-.63.12s.08 0 .07-.07c-.23.1-.42 0-.63.06l.07-.07c-.33-.07-.09.14-.38.1.07 0 0 0 .05-.07a4 4 0 0 1-1 .14 7.65 7.65 0 0 0-.9.05c-.12 0 0-.16-.27-.13 0 .13-.52.07-.33.21a3.8 3.8 0 0 0-.85 0c.12-.05-.13-.16.09-.17l-.17-.07c0-.05.17 0 .12-.05a3.6 3.6 0 0 1-.52 0 1.88 1.88 0 0 1-.7.26c.15-.05-.09-.14 0-.17l-.34.38c-.11 0 0-.1-.18-.06 0 0-.06.06-.11.09s-.45 0-.5-.08.18 0 .05-.07-.21.05-.41.06c-.13 0-.37.06-.25.13s0 0 .07 0h-.07a1 1 0 0 1-.26.06c1.61 1.17 3.2 2.41 4.77 3.63a2.15 2.15 0 0 1 .34.39c.21.13.74.54.94.63-.07 0 .09.14.19.22.32.3.46.2.81.53-.17-.09-.24-.11-.22 0a11.08 11.08 0 0 1 1.21.81c-.07 0-.17-.09-.18-.06.48.25.76.61 1.17.85l-.18-.06c.55.52.26 0 .75.46-.14-.08-.11 0-.15 0a6.16 6.16 0 0 1 .75.48 5.13 5.13 0 0 0-.02-1.04zm-5.73-7.14v-.1.1zM5.69 12.5l.15-.12v-.12c-.03.05-.13.11-.15.24zM5.62 12.56zM25.25 3.86h-.14.14z"/><path class="cls-2" d="M.94 16.79a.54.54 0 0 0 0-.37c-.09.68-.02-.2 0 .37zM.23 28.26a1.62 1.62 0 0 0 0 .26.55.55 0 0 0 0-.26zM.27 28.52a1.39 1.39 0 0 0 0 .54c0 .1-.08-.15-.09.1s.16-.12.19-.52-.08-.02-.1-.12zM.15 37.58a1.28 1.28 0 0 0 0-.2 1.37 1.37 0 0 0 0 .2zM.35 28.61z"/><path class="cls-2" d="M45.08 36.57v-.09a2.85 2.85 0 0 1-.15-.63l.1.08c.13.06 0-.74.09-.81-.09.22 0-.29-.08-.32v-.31a6.14 6.14 0 0 1-.06-.66c0-.34.12-.12.11 0a3.37 3.37 0 0 0 0-.88c0 .11 0 .15 0 0v-.08-.32-.45a1.22 1.22 0 0 1 0-.2v-.07a.24.24 0 0 0 0 .07V32.47a1.34 1.34 0 0 1 0-.26l.08.08a2.7 2.7 0 0 0-.12-.78 21.67 21.67 0 0 0 0-2.75 1.12 1.12 0 0 1 0-.16v.16s0 .12 0 0c0-.29-.08-.61 0-.63 0-.28.06-.26.06-.68 0 0-.08-.06-.07.06.12-.74-.08-1.68 0-2.56 0 .07 0 .2.07.28 0-.66-.07-1.29-.17-1.89 0 .06.07 0 .09.2a5.19 5.19 0 0 0-.1-1.21v.23s-.14-.26-.13-.56v-.94c0-.28 0 .24.07.13s.08-1 .1-1.14 0-.27-.08-.25c0-.36.07-.16.07-.41l-.24-1a.12.12 0 0 1 0-.06v.06s.11-.32.15 0a8.54 8.54 0 0 0-.24-1.63v-1.08h.06v.18-.21l-.09-.11.14.09c0 .09 0 0 .08 0s0-.06.06 0v-.03l-.37-.27-.37-.33-.78-.65c.24.37-.68-.43-.74-.32-.57-.41-.21-.3-.4-.48-.61-.4-1.13-.86-1.66-1.25l-.4-.29v1l.76.59L44 16l.11 9.73c.17.75.09 1.78.24 2.66l-.05-.06a9 9 0 0 1-.08 1.91c.06 0 0 .37.12.23.09.33-.14.6-.1 1.08 0 0 .06 0 0 .09.12 1.24-.06-.24-.15 1.33 0 2.19.14 4.43.08 6.53 0-.13.08-.19.08 0-.16.2 0 .71 0 1.08a1 1 0 0 1-.06-.3c-.07 1 0 1.76 0 2.66v.46a1.16 1.16 0 0 1 0 .2h-.68c.14-.07-.38 0-.57-.08-.62.2-1.68-.07-2.46.06-2.34 0-4.88 0-7.32.06-1.37 0-2.92-.15-4.42-.07-.28 0-.06.07-.28.09-.38 0 0-.06-.14-.08-.74.08-1.72 0-2.65 0-.11 0-.37 0-.28.09-1-.13-2.45 0-3.51-.05.37.17-.62.09-1 .13-.21 0-.23-.05-.16-.08h-2.16a7.48 7.48 0 0 1-1.08.09 10.89 10.89 0 0 0-1.61 0c.13.1-.53.18-1 .14l.16-.14c-1.64.09-4-.07-5.92.11L9 43.7c-2 .1-3.93 0-5.83.16l-.92-.05h-.8l-.3.05a4.8 4.8 0 0 0-.15-.54 1.39 1.39 0 0 1 .09-.52 12.47 12.47 0 0 0 0-2.41h.07a13.19 13.19 0 0 1-.08-2.48C1 37.68 1 36.9.9 37.25c0-.31.12-.2 0-.51L1 37c0-1.75 0-3.23-.08-4.93.12-.49 0-1.62.05-2.58a13.76 13.76 0 0 0-.12-2h.07v-2.75a5.09 5.09 0 0 0-.12-1h.07a2 2 0 0 0-.23-.82v-.81A3.65 3.65 0 0 0 1 23a11.41 11.41 0 0 1 0-1.6c0-.53 0-.93-.1-1s.06-.34.1 0a5.34 5.34 0 0 0 0-.85v.26c-.07-.19-.07-.56-.18-.48a1.67 1.67 0 0 1 0 .45 2 2 0 0 1 0-.91c.08-.19.12.44.17.14L.71 18c.06.22 0 .6-.06.5v.42H.57c0 .7-.05 1.19 0 1.91l.08-.27a5.38 5.38 0 0 1 0 1.24c0-.19-.07-.05-.11 0a1.26 1.26 0 0 1 0 .32l-.13-.19c.28.07.16 1.07.19 1.22v-.06c-.06.63.07-.11.08.31s-.15.14-.2.47a18.55 18.55 0 0 1 0 2.45c0 .57.07 1.2.13 1.71s-.14 0-.08.49c0-.06-.1 0-.14.06s0 1 .11.55v2.36c0-.26-.09-.33-.14-.11A7.17 7.17 0 0 1 .44 33c.09 0 .09-.23.17-.16a2.11 2.11 0 0 1 0 .42c-.09.09-.23.07-.23.66-.14-.16 0-1-.12-.73a4.49 4.49 0 0 1-.05-1.56c-.12-.52 0 .41-.13.31 0 .47.07.69.09 1.43.06 0 .07-.24.12.1a1.61 1.61 0 0 1-.09 1v-.32 1c-.16.13 0-.73-.12-.9l-.08.37c0 .7.13.19.09.92L0 35.45v.45c.06 0 .15-.09.14-.48.16.26 0 .36.05 1 .09.2 0-.26.08-.27s.08.36.1.67c0 .51-.1.26-.16.46v-.44c-.09-.62-.19.27-.25-.16-.05.48.05.46.08.72 0-.15.09.07.12 0 .24.83-.18.53-.13 1.33.15-.17.22 1.06.39.48a3 3 0 0 1 0 .63c-.11-.21-.08.36-.18 0V40l.02-.4c-.07.32-.14.86-.19 1 0 .42.1-.13.13.36-.05-.17-.1.13-.1.34 0-.43.15 0 .17.27 0 .43-.1.77-.12.71l-.09-.41c.08.31 0 .14 0 .46.06.09.15.29.22.39a4.19 4.19 0 0 1 0 .56l-.06-.43c0 .28 0 .31-.07.35a.13.13 0 0 0 0 .08 1.75 1.75 0 0 0 0 .41L.13 44c0 .21 0 .35-.08.15a3.58 3.58 0 0 1 .06.72h.3v.05a4.52 4.52 0 0 1 1.35 0 .43.43 0 0 0-.29-.06 4.83 4.83 0 0 1-.75 0c-.4-.1.78-.09.83-.1 0 .14.63 0 .92 0l.42.1.11-.17c.11.18.59 0 .92 0-.17.06-.15.13.09.15-.32-.13.51-.17.42-.26.6 0-.14.17 0 .26.29-.1.66.07.86-.07-.43 0 .07-.08.16-.14.54 0-.09.06.29.11.23 0 .52-.12.17-.16a6.53 6.53 0 0 1 1 0c.14.08-.66 0-.46.1.75 0 .38-.21 1.08-.23-.3 0 0-.19.32-.24.77 0-.34.05 0 .16h.31c.43.15-.91.24-.5.36H8c-.07 0-.18.12 0 .16s.78 0 .84 0h-.22a3.88 3.88 0 0 1 1.06-.11c-.3.06.11.12 0 .17.27 0 .08-.1.47-.05v.05a28 28 0 0 0 4.43-.2 7.79 7.79 0 0 0 1.4.15c-.31 0 0-.09.16-.1l.34.1a5.26 5.26 0 0 0 1.34-.09.17.17 0 0 1 .11.07c.37.07.38-.06.53-.08l.24.07.05-.07c.37 0 .86 0 .81.09.15 0 .29 0 .1-.08a12.89 12.89 0 0 0 2 0c-.31 0-.29-.06-.31-.13s.15 0 .42 0c0 0 .31.09 0 .12a27.72 27.72 0 0 0 3.25.06c.23 0 .16 0 .27-.07.71.12 1.57 0 2.33 0-.17 0 .07-.19.49-.19s.18.14.6.2a4 4 0 0 1 .76-.05 3.07 3.07 0 0 1 1 0c.25 0 .53.07.79.06s.75 0 .9-.12 0 0 .05 0v-.08h.51a1.56 1.56 0 0 1-.28.09c.55.05.19-.07.47-.11a.89.89 0 0 1 .55.05 1.83 1.83 0 0 1-.38 0c-.22.06.23 0 .24.07s.12-.09.4-.07.81 0 .75.07c.21 0 .45 0 .61-.07a2 2 0 0 1-.6-.09 2.37 2.37 0 0 1 .59 0h-.14c.14 0 .67 0 .4-.07l.37.11a3.44 3.44 0 0 1 .82-.08c0 .09-.23.18.34.2l.49-.09c.26 0 .33 0 .29.06.89 0 .91-.24 1.61-.16-.3.1 0 .11.26.14 0 0 0-.05.17-.05-.09 0-.19.07-.43 0-.07-.06.29 0 .43-.06a22.88 22.88 0 0 0 3.08.16c-.07-.12.45 0 .66-.08 0 .07.11.06.3 0H44a2.28 2.28 0 0 1 .39 0l-.25-.13a3.88 3.88 0 0 0 .9 0 2.31 2.31 0 0 1 0-1c0-.2 0-.15.06-.07s0 .35.05.47a3 3 0 0 0 0-.56v-.46a2 2 0 0 1 0-.79c-.05 0-.14.1-.18-.32a9.18 9.18 0 0 1 .15-.94 2 2 0 0 1 0-.65s0 .16.05.25a6.58 6.58 0 0 0-.07-1.28 14.66 14.66 0 0 0 .1-1.65c-.13-.31.04-.89-.12-.93zM18.34 3.15a.67.67 0 0 1 .26 0l1.27-1a6.5 6.5 0 0 1 1.25-.87 4.24 4.24 0 0 1 1.37-.44c-.21 0 0-.1.2-.12h.05l.31-.07c.3 0 .16.09-.08.1a4.21 4.21 0 0 1 2.14.62c.29.18.64.46 1 .72l1 .8a.58.58 0 0 1 .26.13 2.67 2.67 0 0 0 .82-.18c0-.07 0-.06.1 0-.15-.12-.38-.31-.7-.53-.26-.17-.36-.34-.65-.52-.33-.16-.54-.6-.78-.6L26 1c-.36-.11-.45-.38-.9-.49h.06a6.55 6.55 0 0 0-1.39-.45 2 2 0 0 0-1.17.07c-.11 0 0-.1 0-.13a4.94 4.94 0 0 0-2.68 1c-.75.61-1.46 1.22-2.07 1.79-.08 0 0 0 0-.09a5.93 5.93 0 0 1-.46.4h.92z"/><path class="cls-2" d="M45 31.95a.24.24 0 0 1 0-.07v.07zM44.2 43v-.21a1 1 0 0 0 0 .21zM5.12 13.31v-.33a24.72 24.72 0 0 0-2.78 2.36 4.24 4.24 0 0 0-1.25 1.47c1.36-1.16 2.68-2.2 4-3.22a.61.61 0 0 1 .03-.28zM5.65 12.53c0 .18-.14.19-.22.23a.44.44 0 0 0 .05.18c.09 0 .08-.07.17-.07a1.68 1.68 0 0 0 0 .27l.2-.15a.41.41 0 0 0-.08-.2c-.13.13-.03-.16-.12-.26zM20.8 43.65zM.89 19.5v.09s.01-.08 0-.09zM44.74 18.47v-.06a.12.12 0 0 0 0 .06zM45.05 28.82v-.16a1.12 1.12 0 0 0 0 .16zM45.11 32.52v.08a.22.22 0 0 0 0-.08zM45.11 25.3v.07s.02-.03 0-.07zM45.08 32.6v-.08-.37c-.01.14 0 .3 0 .45zM45.08 32.6v0s.02.01 0 0zM45.1 33v-.05zM28.32 3.73l.11.08s.09-.09.12-.07a1 1 0 0 0-.23-.01zM1 17.48c-.05 0-.11.16-.17.2.03.32.06-.08.17-.2zM.36 28.11c0-.06-.05 0-.06-.17a1.33 1.33 0 0 0 0 .36s.08-.18.06-.19zM.23 29.86a4 4 0 0 0 .1 1zM.12 33.36c0-.06 0-.16-.07-.14-.05.3.02.36.07.14zM.23 33.54c-.09-.07 0 .41-.06.42a1.29 1.29 0 0 0 .06-.42zM.08 39c-.08-.1 0 .4 0 .54a1.62 1.62 0 0 0 0-.54zM.1 41.67c0 .13 0 .29.07.14a.86.86 0 0 1 0-.21zM44.63 44.6l.4-.02-.37-.03-.03.05zM45.19 23.64s-.09 0-.06.24c-.01-.34.06.01.06-.24zM42.62 13.87l-.02.11.09-.07-.07-.04zM5.33 20a.13.13 0 0 0 0 .16c.09-.32.03.06 0-.16zM5.86 14.86c0-.08.09-.15 0-.24s.08.06.09 0-.16.06-.19.23.07-.03.1.01z"/><path class="cls-2" d="M5.09 14.43c.07.24 0 .67.15.85h-.07v1.2c0 .25.09.25.13.44h-.07a.61.61 0 0 0 .24.35v.35a.94.94 0 0 0-.22-.4c0 .27.17.53.06.69s0 .41.11.42-.05.15-.1 0a.93.93 0 0 0 .08.41v-.15s.07.24.18.2a.34.34 0 0 1 0-.2.4.4 0 0 1 0 .4c-.07.08-.13-.19-.17-.06l.2.47c-.07-.09 0-.26.05-.22L5.61 19h.08a6.74 6.74 0 0 0 0-.83l-.08.12c0-.18-.12-.37 0-.54 0 .08.07 0 .11 0a.26.26 0 0 1 0-.14l.14.08c-.18-.08-.08-.5-.11-.58 0-.28-.07.05-.08-.13s.14-.06.19-.21a3.53 3.53 0 0 1 0-1.07 4.68 4.68 0 0 0-.15-.74c0-.22.14 0 .07-.21h.14s0-.42-.12-.23a6.84 6.84 0 0 0 0-1c0 .11.1.14.14 0a1.23 1.23 0 0 1-.11-.45l-.57.43a5.58 5.58 0 0 1-.17.93zM28.43 3.81s-.02.02 0 0zM9.77 3.38zM5.77 14.82zM39.69 13.23v-.06a9.54 9.54 0 0 0-.08 3.21c0 .23-.12.1-.11.2a24.45 24.45 0 0 0 .17 2.72 1.12 1.12 0 0 0 .37.82 24.21 24.21 0 0 1 .17-4.35 12.42 12.42 0 0 1 0-1.62v-1.1l-.55-.43c-.05.21.06.38.03.61z"/><path class="cls-2" d="M5.83 13.49c.13.22 0-.18.13-.14a2.68 2.68 0 0 0-.07-.35.9.9 0 0 1-.06.49zM28.43 3.81zM25.28 3.89zM5.9 15a.26.26 0 0 0 0-.11.12.12 0 0 0 0 .11zM25.1 3.88zM5.63 12.49c0-.13.12-.18.12-.24v-.3c.15-.06 0 .27.12.36l.13-.06v-.06c0-.31-.14-.08-.1-.4h.06v-.2c-.06 0-.15 0-.13.21-.16-.11 0-.16-.07-.42-.09-.08 0 .11-.08.12s-.09-.16-.11-.29.09-.12.15-.21 0 .21 0 .19c.1.27.18-.12.25.06.06-.26-.11-.18-.1-.4.05.22-.07 0-.11.11-.25-.35.17-.24.12-.58-.15.08-.23-.46-.39-.2a.6.6 0 0 1-.07-.18c.11.09.08-.16.18 0v-.16l.13.19c.07-.14.13-.38.18-.45s-.1.06-.13-.15c.06.07.1-.06.09-.15 0 .19-.15 0-.18-.11s.09-.34.11-.31l.1.14c-.08-.13 0-.06 0-.2s-.15-.12-.23-.17 0-.2 0-.24l.07.19c0-.25.16-.06.11-.31l-.05-.04c0-.05 0-.08.08 0S5.83 8 5.81 8h.05c0-.1-.16-.23-.06-.37-.13.1 0 .13-.05.31s-.1-.18-.11-.22c.14 0 0-.27 0-.4s.07-.14.1-.19L5.65 7c.18-.05 0-.25 0-.4.06.07.13.06.15 0-.13.14-.17-.22-.26-.18 0-.26.17.06.26 0-.11-.13.06-.29-.08-.37 0 .19-.09 0-.15-.06 0-.24.06 0 .1-.13s-.13-.22-.16-.07c0-.14-.11-.29 0-.45s0 .29.1.2c0-.33-.21-.16-.25-.46 0 .13-.19 0-.25-.13 0-.34.05.14.16 0v-.13c.14-.17.25.37.37.21l-.05-.14s.12.08.16 0 0-.13-.05-.15-.17-.16-.12-.23c.06.1.12.08.17.14s0 0-.06-.08v.05h.48a3.31 3.31 0 0 0 .93-.21 1.62 1.62 0 0 0 .61.14c-.14 0 0-.09.07-.1l.15.1a1 1 0 0 0 .58-.11.12.12 0 0 1 0 .07c.16.06.17-.06.23-.08l.11.07v-.07c.16 0 .38 0 .36.08s.12 0 0-.08a2.46 2.46 0 0 0 .89 0c-.14 0-.13-.06-.14-.13s.07 0 .18-.05.14.09 0 .12a5.28 5.28 0 0 0 1.41 0c.1 0 .07 0 .11-.07.31.11.68 0 1 0-.08 0 0-.19.21-.2s.08.14.27.19a.78.78 0 0 1 .33-.06.6.6 0 0 1 .42 0 2.35 2.35 0 0 0 .35.05c0-.09.32 0 .39-.13V4.1h.22s-.06.07-.12.09c.24 0 .08-.07.2-.12s.16 0 .24 0h-.16s.1 0 .11.07 0-.09.17-.08.35 0 .33.06.2 0 .26-.08c-.09 0-.25 0-.26-.08s.23 0 .26 0h-.06c.06 0 .29 0 .17-.08l.15.1c.36-.3.79-.6 1.2-.94-.75 0-1.51 0-2.26.12a18.64 18.64 0 0 0-1.93 0c-.12 0 0 .07-.12.09s0-.06-.06-.08a5.85 5.85 0 0 1-1.15 0s-.16 0-.12.09c-.45-.12-1.06.07-1.53 0 .16.17-.27.1-.43.14s-.1-.05-.07-.08a4.4 4.4 0 0 1-.95 0c-.19 0-.24.12-.47.1s-.48 0-.7 0c.06.1-.22.19-.45.15l.07-.14c-.66.1-1.26 0-2.68.12 0 .22 0 .42.07.62l-.08.06.07.86v.64A7.12 7.12 0 0 0 4.81 7a4.92 4.92 0 0 0 0 .8 2 2 0 0 0 .2.61.33.33 0 0 1-.08.23 2.39 2.39 0 0 0 0 1h-.1a2.54 2.54 0 0 1 .11 1.07c.07.09.1.43.18.28 0 .13-.12.09 0 .22L5 11.17A16.26 16.26 0 0 0 5.08 13l.54-.42a.36.36 0 0 0 .01-.09zM25.12 3.88h.15zM28.58 3c.09.13-.13 0-.27-.11h-.1v.05l1 .71.08.06a1 1 0 0 0 .26-.06c-.13-.07.12-.14.25-.13.2 0 .21-.05.41-.06s-.1 0-.05.07.46.07.5.08.11-.05.11-.09c.16 0 .07.07.18.06l.45-.26c-.1 0 .14.11 0 .17a1.88 1.88 0 0 0 .7-.26 3.6 3.6 0 0 0 .52 0c.05.07-.09 0-.12.05l.17.07c-.22 0 0 .12-.09.17a3.8 3.8 0 0 1 .85 0c-.18-.14.35-.08.33-.21.3 0 .15.1.27.13a7.65 7.65 0 0 1 .9-.05 4 4 0 0 0 1-.14s0 .05-.05.07c.29 0 0-.17.38-.1l-.07.07c.2-.07.4 0 .63-.06l-.07.07a2.17 2.17 0 0 0 .63-.12s0 .08-.08.11c.21 0 .23-.12.42-.08s.16.06.13.06a2.34 2.34 0 0 1 .49-.09s.1.05.23.1h.91a20.27 20.27 0 0 0 .1 2.1c-.13.18-.08-.25-.17-.13.11 0 0 .18.07.5v.36c.07.16-.15.35 0 .43l-.08.12c.13.15 0 .24.07.43-.06.26.14.53 0 .63s0 .47.14.51-.1 0-.13 0a21.89 21.89 0 0 0 .16 2.44h-.06a5.13 5.13 0 0 1 0 1l.66.49c.05-1.25.12-2.5.06-3.77 0 .11-.09 0-.11-.11L40.1 8c0-.15.09-.09.1 0V5.73c-.11-.05 0-.4-.12-.43a1.92 1.92 0 0 1 .08-1.06V2.42l-5.78.13-6.11.3c.2.15.28.15.31.15zM25.26 3.87l.17-.05zM28 3.42c-.08 0-.36-.21-.59-.37a1.5 1.5 0 0 0-.32.09v-.05c-.33.09-.41 0-.83-.06 0 .06-.16 0-.1.12-.14.09-.26-.14-.47-.09 0 0 0 .06 0 0-.53.14.1-.06-.58-.14a26.83 26.83 0 0 1-2.84.15c.06 0 .09.07 0 .08-.09-.16-.31.05-.47 0 0 0 .09 0 .13-.06-.42-.06-.77.05-1.16 0a.2.2 0 0 1 .1 0c-.39.13-.88 0-1.15.06.06-.07-.17 0-.25-.07-.2.16-.52 0-.81 0l-1.34 1c.23 0 .29-.22.54-.17-.13.11 0 .11.12.14a.07.07 0 0 1 .02.02s-.08.07-.19 0S17.92 4 18 4c.28.22.9 0 1.34.13 0-.12.2 0 .28-.09 0 .13.25 0 .37 0L19.92 4c.27.07.43-.2.6-.05s0 .09-.11.12c.21.13.55-.13.72 0 0-.05 0-.13.13-.19s.44.11.41.14.15-.07.28 0-.07 0-.11.06A1.28 1.28 0 0 0 22.4 4c.11.09.48 0 .72.08.13-.12.39 0 .4-.12s.16-.15.27-.16v.1c0 .13.32 0 .36.08s.13 0 .14-.08h.13c.21 0 0-.05.29-.07s.05.12 0 .11a.66.66 0 0 0 .38 0s-.07 0 0 0h.34l-.17.05a.27.27 0 0 1 .12 0v.08c.09 0 .34-.1.33-.13A4.13 4.13 0 0 0 27 3.78c-.11 0-.14.07-.08 0s.26-.09.27 0 .11.05.3.06v-.07a2.58 2.58 0 0 0 .89 0l-.42-.29c.04-.03.04.01.04-.06z"/><path class="cls-2" d="M25.5 3.83h.07s.03-.02-.07 0zM29.62 3.63s0 .01 0 0zM29.62 3.63h.07c-.1-.05-.07-.02-.07 0zM18.34 3.15h-.92c-.41.34-.84.63-1.2.94.06-.07.22-.07.36-.08s-.1.19.15.2l.27-.1c.11 0 .14 0 .13.06a.48.48 0 0 0 .16 0l1.34-1a.67.67 0 0 0-.29-.02zM5.46 13a.44.44 0 0 1-.05-.18c.08 0 .19 0 .22-.23l-.55.41v.33a.61.61 0 0 0 0 .28l.57-.43a1.68 1.68 0 0 1 0-.27c-.11-.01-.11.09-.19.09zM39.53 11.54a.61.61 0 0 0 .09.3l.09.12c0 .11-.1.1-.13.18s0 .41.1.46 0 0-.08 0l.55.43v-1zM5.73 12.69a.34.34 0 0 1 0-.19c.08.11 0 .39.11.28a.41.41 0 0 1 .08.2 2 2 0 0 1 0-.25c-.13 0-.13.11-.19-.04zM29.16 3.71h.16l-.08-.06a.11.11 0 0 1-.08.06zM28.58 3s-.11 0-.25-.11c.12.06.34.22.25.11zM28.23 2.92v-.05a2.67 2.67 0 0 1-.82.18c.23.16.51.41.59.37s0 0-.07 0l.42.29a1 1 0 0 1 .23 0s-.08 0-.12.07a3.88 3.88 0 0 0 .78-.18zM5.93 12.34l.07-.09-.08.06s.01.02.01.03zM5.85 12.4zM5.31 19.68c.05 0 .11-.07.16-.09s-.1.03-.16.09zM5.8 15v.08s.05 0 .06.07S5.81 15 5.8 15zM5.88 14.27c0-.15-.06-.4-.11-.42zM5.95 12.74s0 .07.07.06-.02-.15-.07-.06z"/><path class="cls-2" d="M5.83 12.67c.09 0 0-.18.05-.18a.28.28 0 0 0-.05.18zM5.91 10c-.06.06 0 .18 0 .24s-.04-.14 0-.24zM5.8 9.07a.17.17 0 0 1 0 .09h.06c0-.09-.04-.16-.06-.09zM20.06 4.08l.12-.03-.1-.03-.02.06zM29 3.82c.14 0 0 .06.1.05s.07-.09-.1-.05zM33.79 3.44h.04l-.03-.1-.01.1zM.73 44c-.14.15.14 0-.08.12A.1.1 0 0 1 .73 44zM44.31 43.65c-.68-.23-1.17-1-1.84-1.34-.07 0 .11-.1-.06-.19a6.64 6.64 0 0 1-2-1.79h.07c-.11-.13-.35-.15-.47-.28s.07 0 .06 0-.26-.17-.36-.17 0-.11 0-.2h-.14c-.36 0-.5-.44-.86-.6h.06a15.22 15.22 0 0 1-1.66-1.19s.1 0 .09-.09-.27-.06-.42-.16c0-.13-.3-.13-.42-.31-.19 0-.14-.2-.32-.18v-.13c-.15.07-.13-.2-.27-.23-.12-.05-.12-.15-.22-.2-.23-.14-.29-.3-.36-.21 0-.13.22.14.2-.06a20.72 20.72 0 0 1-2.09-1.64c0-.1-.09-.15-.08-.2s-.27-.2-.36-.21 0-.08 0-.11-.21 0-.31-.17h.12a1.54 1.54 0 0 1-.47-.26h.09c-.21 0-.26-.24-.43-.31h.09c-.16-.24-.15.05-.3-.14h.08c-.24-.05-.49-.31-.69-.42a5.32 5.32 0 0 0-.59-.46c-.05-.08.13-.1-.08-.25-.08.11-.36-.24-.34 0a2.64 2.64 0 0 0-.52-.47c.11 0 0-.19.17-.08l-.05-.15s.1.1.11 0a2.5 2.5 0 0 1-.35-.25 1.4 1.4 0 0 1-.61-.2c.13 0 0-.16.12-.12l-.45-.05c-.07-.05.05-.09-.07-.15s-.07 0-.12 0-.31-.22-.25-.34.13.07.08 0-.16-.08-.29-.18c-.07-.09-.28-.17-.24 0s0-.08.09 0a.75.75 0 0 1-.4-.21h.11a2.83 2.83 0 0 1-.65-.33h.15c-.19-.27-.58-.34-.71-.6v.07s-.05-.17-.15-.21-.11-.07-.19-.12 0 0 .07 0A5 5 0 0 1 25 28h-.28l.06-.06c0-.07-.22-.09-.21-.15-.18 0 .57.17.35.15 0-.09-.31 0-.23-.09-.14 0-.29 0-.4-.14s.15-.07 0-.1-.07 0-.24 0H24c0 .07-.17 0-.12.05 0-.07-.29 0-.25-.15v-.09c-.09 0-.16.08-.24.12 0 .16-.21 0-.32.07-.18-.07-.46 0-.55-.1a1 1 0 0 1-.42.11s.07 0 .08-.06-.13 0-.21 0-.21 0-.34-.07-.06.15-.06.2c-.17-.11-.35.2-.54.14 0 0 .16-.15 0-.14s-.21.19-.42.23l.1.09c-.12 0-.23.2-.28.08 0 .07-.23.09-.14.19-.35.08-.61.54-.94.52 0 0-.14.12-.08.15s.06-.12.12-.1a.07.07 0 0 0 0 .08c-.11.05-.18.1-.16 0-.24.11-.06.33-.34.5h-.12l-.08.18c-.17.12-.17 0-.23-.08s-.18.17-.18.25h-.17c.13 0 0 .1-.06.15v-.05s-.05.12-.14.12.16 0 .23-.07-.09.12-.12.2c0-.08-.18.07-.25.12s0 .13-.06.15-.13.1-.11 0 .09 0 .11-.09-.12 0-.19.09.13.11-.06.2v-.13l-.17.09v.06s-.2.2-.17.3-.19.09-.26.14a.43.43 0 0 0-.24.25.55.55 0 0 0-.18.22c-.15.05-.23-.19-.29 0s-.09.26 0 .26c-.24.14-.4.44-.67.51v.12c-.33.24-.59.62-.94.71.07-.1 0-.06-.07-.1s-.14 0-.08.13.07.08.17 0a1.71 1.71 0 0 1-.58.46c.07 0 0 0 0 .08s-.21 0-.28.12v.06h-.1c0 .05 0 .15-.1.18a.12.12 0 0 0-.08 0c-.07.13-.16.33-.31.39H13c0 .05-.09.17 0 .11-.24.12-.37.22-.49.21a3.79 3.79 0 0 1-1.09 1.19c-.14.05 0 .11-.09.15s-.15 0-.1-.13c-.19.09-.14.23-.22.33s.05-.1.09 0-.24.14-.2.24-.08-.08-.09-.13l-.06.12c-.19 0 .12-.38-.09-.39l-.08.08c-.15 0 .15-.28-.09-.13-.06.12 0 .3.07.26-.18.19.07.26-.15.43-.1 0 .16-.15.06-.18s-.17.2-.27.25c.12-.05.11.1.06.16s0-.13-.15 0c0 .07-.1.22 0 .15 0 .15-.18.1-.19.25-.11 0 0-.3-.18-.19.08 0-.12.27 0 .29-.08 0-.13 0-.12-.1s-.12.32-.26.2v.1h-.18c-.08.07-.18.32-.26.2s-.21.19-.07.2.09-.17.24-.12c-.15 0-.16.15-.2.23s-.13.12-.11.18 0-.06-.07 0v.1c-.13.17-.13-.08-.27.07l.08-.15s-.12 0-.18.1 0 .2 0 .26-.09 0-.13.1l.06-.17s-.16 0-.27.07-.11.27 0 .2c-.06.05-.17.09-.16 0-.12.13.07 0 0 .18s-.27.07-.41.09v-.2l.01-.06c0-.16-.1 0-.11-.14a.42.42 0 0 0-.14.18c.27 0 0 .33.12.41-.19.22-.38-.17-.45.21.06 0 0 .18.14 0-.15.1 0 .2-.2.28.08-.15-.23 0-.12-.23 0 0 .12-.05.14-.09s-.09-.13-.23 0-.19.19-.12.23.12-.12.13 0c-.15.17-.27.09-.24.27a.14.14 0 0 1 .22 0l-.1.13v-.07c-.23.14 0 .13-.19.28H6.1c0-.12.31-.21.17-.3-.13.1-.12.2-.27.27l.07-.1s-.23-.09-.33.16 0 .07 0 .11c-.19.19-.21.28-.34.4-.05-.11-.24.19-.17 0 .11 0 .4-.26.4-.4-.16 0 .17-.12.12-.27-.16.14-.25 0-.33 0a.32.32 0 0 0-.09.13c0 .08.09 0 .15.09a1 1 0 0 0-.39.47c-.09 0-.12-.06-.06-.13a4.74 4.74 0 0 1-.66.54c.22 0-.21.22 0 .23s.29-.07.27 0 0 0-.09 0-.22 0-.22.19c.17-.2-.07-.16-.11-.28-.1.17 0-.06-.18.05a3.31 3.31 0 0 1-.39.5c-.27.09-.5.42-.68.58s-.15-.11-.26 0 .17 0 0 .13c0 .07-.37.21-.31.39v-.15l-.07.1s-.09 0-.06-.1c-.17 0-.22.2-.33.3H2c-.16.22-.35.27-.52.46v-.06l-.09.13c0-.08-.16 0-.18.07l.18-.4c.11 0 0 .15.07.16s.25-.15.23-.24-.07.07-.1.13 0-.15 0-.25-.11.05-.09.08a.66.66 0 0 1 .22-.27c-.05.1.09 0 .08.06s0-.2.2-.3.23-.29.42-.4a.75.75 0 0 1-.12.38c.14-.05.12-.1.25-.15a.51.51 0 0 1 .08-.36h.05c.1-.13 0-.21.21-.33s.58-.44.79-.61h.05c0-.21.35-.37.46-.55.31-.17.53-.54.75-.56a13.1 13.1 0 0 1 1.31-1.22v.15c0-.13.09 0 .17-.09-.15 0 0-.18.07-.28a1.77 1.77 0 0 0 .63-.64h.05c.11-.27.41-.37.67-.56a.25.25 0 0 0 .2-.05 1.47 1.47 0 0 1 .28-.47 3.43 3.43 0 0 1 .56-.38c.42-.57 1-.95 1.51-1.48h.09A18.83 18.83 0 0 1 12 33.95v.15c.17-.09.3-.3.2-.35.17-.09.31-.35.48-.34s.14-.2.24-.32a3.26 3.26 0 0 0 .68-.56l-.07.05s0 .1.1 0 .4-.29.19-.33c.36-.17.63-.64 1-.78-.05 0 0-.08 0-.13a4.05 4.05 0 0 0 .74-.61c.06 0 0 .12.09 0s0 0 0-.13a12.93 12.93 0 0 1 1.27-1c.62-.64 1.35-1.2 2-1.76.15-.3.65-.34.76-.63.08 0 .26-.13.24 0 .18-.2.66-.24 1-.45a.17.17 0 0 0-.08 0 6.12 6.12 0 0 1 1-.21s-.1 0-.11.07c.15 0 .33-.19.43 0 .08 0 .05-.09 0-.08a7.41 7.41 0 0 1 2.58.33c.54.34-.08.26.42.37 0 0 .06 0 0 0 .19 0 .16.3.31.3h.14c.28.27.28.4.54.51h-.05c.34.09.57.39.89.44l4.06 3.24c1.28 1.13 2.61 2.15 3.87 3.34a1.35 1.35 0 0 0 .62.63s-.05 0 0 0 .25.19.35.14c.48.43.95.79 1.45 1.21-.09-.06-.19 0-.09.05h.15c.08 0 .18.06.14 0 1.33 1 2.42 2.22 3.68 3.25a8.61 8.61 0 0 0 1 .86 16.82 16.82 0 0 0 2.65 2.47.9.9 0 0 1-.56-.03zM.91 43.79c.07 0 .2-.05.16.08-.07-.03-.14-.03-.16-.08z"/><path class="cls-2" d="M4.23 41.75h.07s0 .1-.08.1.01-.07.01-.1zM5 41.14s-.11.22-.2.3zM5.84 40.71c.09 0 .09 0 0 .08s0-.05 0-.08zM5.82 40.58a.21.21 0 0 1 .18-.05s-.14.13-.18.05zM7.44 39.4s.09-.13.16-.12-.14.21-.16.12zM8.09 38.75l.06-.05v.08zM20.85 27.92l-.07.06v-.05zM27.08 29.73c.1 0 0 .08 0 .1s.09-.03 0-.1zM30.28 32.11l-.02-.02.08-.07-.06.09zM.91 16.31c-.08 0 0 .1-.07 0s.07-.04.07 0zM17.08 30c-.37 0-.45-.38-.77-.43 0 0 .1-.11 0-.13-.34 0-.59-.38-.73-.72 0-.06-.18 0-.21-.07s0 0 .05-.05-.12 0-.18 0 0-.09 0-.14h-.09c-.22.1-.19-.18-.37-.18a2.36 2.36 0 0 1-.7-.38.23.23 0 0 0 .09-.1.18.18 0 0 1-.22 0c0-.1-.15 0-.18-.1-.11 0 0-.1-.15 0v-.09c-.11.09 0-.11-.1-.09-.06 0 0-.07-.08-.08-.1 0-.1-.14-.17 0 0-.09.1 0 .14-.1a3.08 3.08 0 0 1-.84-.58v-.12s-.11-.07-.17 0 0-.06 0-.07-.13.05-.15 0a.12.12 0 0 0 .09-.07c-.1 0-.15 0-.22-.05s0 0 .06 0-.09-.1-.18-.1h.06c0-.13-.11.08-.15 0s0 0 .06 0c-.14 0-.22-.08-.31-.11-.08 0-.13-.14-.24-.16s.11-.11 0-.16-.16-.07-.21.08c0-.07-.12-.19-.19-.19s.07-.15.13-.11v-.09h.06s-.14 0-.15-.08-.24.1-.33 0c.07 0 .07-.13.11-.12l-.27.1s.06-.08 0-.09-.05 0-.08 0-.13-.07-.06-.17.06 0 .06 0h-.27s0-.07.05 0a.17.17 0 0 1-.19 0l.08-.05a.64.64 0 0 1-.32 0s.1-.06.09 0c0-.14-.27-.07-.27-.23v-.05h-.09a.45.45 0 0 1-.34-.22.19.19 0 0 1-.16 0l.06-.05c0-.05-.08-.06 0-.11-.11 0 .24.09.12.09s-.17 0-.09-.05-.15 0-.14-.1.11-.05.07-.08 0 0-.11 0h.16c-.05.06-.05-.06-.08 0s-.12 0 0-.14l.07-.07s-.11 0-.17.06c-.1.12-.06-.07-.17 0 0-.09-.14-.13-.11-.23s-.15 0-.18-.06 0 0 .06 0h-.08v-.2l-.15.11c.06-.15-.19 0-.15-.18s.11 0 .1-.06-.15 0-.17-.09L8 23.11c0-.08-.14 0-.05-.12s0-.1-.12 0c0-.17-.3-.17-.22-.4h-.09s.07 0 0 0h-.05s0-.08.06-.13-.21.1-.28 0 0-.06 0-.07h-.11c0-.07 0-.12.1-.19s-.08-.05-.14 0v-.12c0 .09-.06 0-.09 0s0 0-.06-.06a.13.13 0 0 0 0 .12h-.11v-.12h-.09v-.07s0 .05 0 0S7 22 6.9 22s-.1.14-.12 0a.37.37 0 0 0 .09 0v-.08l-.09.08s-.1-.05-.17 0 0-.09 0-.12c0-.06-.06-.07-.13-.06a.11.11 0 0 0-.11 0c0-.08.17-.24.06-.2s-.16 0-.18.1c0-.11-.22-.09-.22-.24h-.07s-.31-.14-.31-.34c.06 0 .05-.06.08-.09s0-.08-.07 0-.07.08-.05.13-.2-.12-.2-.2 0 0-.06 0 0-.14 0-.14v-.08s-.11.1-.11 0a.23.23 0 0 0 0-.07h-.2v-.11s-.1 0-.08.06c0-.11-.08-.16 0-.24a.67.67 0 0 1-.6-.24c0-.07-.08.05-.08 0s0-.11.11-.13-.13 0-.18 0 .06 0 0 .05 0-.11-.12 0 .07-.09.11-.12h-.1c0-.13.24-.08.28-.23 0-.11.16 0 .11-.12s-.19.1-.19.16-.19.16-.27.08.07 0 .11 0-.11 0-.12-.08-.09.11-.12.11.09-.05 0-.11-.13 0-.11.1 0-.08-.13 0 .2-.12.17-.2c0 .08-.16 0-.21.16 0 0 0-.1.09-.12s-.19.05-.09-.09l-.07.06v-.12s-.18 0-.09-.09-.09-.06-.12 0 .1 0 0 .11c0-.11-.07 0-.12 0h-.1a.07.07 0 0 0 0-.07h-.07c-.09 0 .08-.12 0-.16h.09v-.08H3c-.05 0 0-.08 0 0h.1s.05-.12 0-.16-.16 0-.14.11A.07.07 0 0 1 3 19c-.07 0 0 .07-.12.07s0-.16 0-.24l.12-.02c.1 0 0-.08.12-.14s-.06 0-.1 0c0 .18-.22.12-.3.25-.11 0 .19-.33-.05-.22 0 0-.13.1 0 .11s-.14.09-.16 0 .05-.16.18-.18v.06s.1-.12.05-.16-.09-.05-.13 0 .06 0 0 .09 0-.14-.14 0v.15h-.16c0-.1-.09.06-.16 0v-.12c.08-.06.08.13.17 0s-.11 0-.13-.07h.06s.11-.2 0-.16 0 0-.09.08-.15 0-.21-.06-.08-.08.05-.13c0 .07.1.16.2.1s0 .07.16 0c-.06-.06 0-.16.08-.24s-.05 0-.07 0 0 .08-.09.15a.21.21 0 0 0-.24-.06c0-.05.07-.11.1-.09a.7.7 0 0 1-.24-.22c0 .15-.11 0-.15.07a.17.17 0 0 1-.07.19v-.08s0-.14-.08-.07c.1 0 .12-.12.21-.19-.09 0 .05-.06 0-.1a.69.69 0 0 1-.27-.05c0-.14-.19-.16-.26-.22s.1-.15.08-.2-.05.13-.08 0-.07-.17-.2 0l.19-.3h-.06s0-.08.08-.08-.1-.06-.14-.1v.08c-.12 0-.12-.12-.21-.16l.06-.06H.9c.06 0 0-.12 0-.09h.24c0 .06-.1 0-.12.12s.06.11.12.06 0 0-.07 0 .1-.05.16-.09a.14.14 0 0 1 .14 0c-.06 0 0 .07-.06.08s.13-.06.17 0 .15 0 .2.11a.47.47 0 0 1-.24.08c0 .07 0 0 .06.11s.15-.11.23-.1v.06c.07 0 .14-.07.19 0a2.22 2.22 0 0 0 .26.28v.06c.14-.08.18.08.29.08s.26.13.24.27a2 2 0 0 1 .57.38l-.1.05c.08 0 0 .06 0 .08s.11 0 .18-.07c0 .13.19.15.31.16v.06c.16 0 .17.12.25.22s0 .1 0 .11.15 0 .26 0a.56.56 0 0 1 .15.22c.31 0 .45.3.72.4v.08c.32 0 .46.37.7.45l-.11.1c0 .08.15.08.2 0 0 .08.18.06.14.18s.11 0 .17 0a.49.49 0 0 0 .25.23s-.07.06-.05.09.12.15.19 0c0 .17.31.16.34.35h.09s.14.24.27.25-.08 0 0 .08 0 0 .09 0c.22.07.27.34.43.45a4.68 4.68 0 0 1 .81.61c.17 0 .11.27.3.17 0 0 .06.07 0 .11.13 0 .13.22.3.21 0 .14.2.13.26.27s0 0-.07 0 .19 0 .1.11.07 0 .05-.06a2.76 2.76 0 0 0 .74.52c.1.22-.17.22 0 .24s0 .21.05.17.06 0 .1-.07c.06.14 0 .22.15.23.19 0 .25.12.44.05.54.41 1.1.76 1.62 1.17s1 .8 1.47 1.3c0 .21 0 .21.21.28s.1.07.18 0c.17.17.37.3.56.46 0 0-.11 0-.07.07h.09s.1 0 .1-.06c.55.33.88.91 1.37 1.29a1.27 1.27 0 0 0 .41.32 2.55 2.55 0 0 0 .95 1s-.61.11-.8.03zM1 16.36c0 .05 0 .11-.09.14a.88.88 0 0 1 .09-.14z"/><path class="cls-2" d="M1.74 17.76h-.05s.03.02.05 0zM2 18h-.17zM2.14 18.42c0 .05 0 .07-.06 0s.03.01.06 0zM2.23 18.35v.08s-.06-.02 0-.08zM2.72 19s.07 0 .05.06-.11-.06-.05-.06zM3 19.12h-.06zM8.1 23.12l-.04-.01.03-.03.01.04zM10.27 24.94c.05 0 0 .05 0 .06s.04 0 0-.06zM11.6 25.72h-.01l.07-.08-.06.08zM28.22 30.09c0 .07.09 0 0 .06s-.04-.06 0-.06zM44.46 15.75c0 .37-.45.4-.55.71 0 0-.09-.12-.12 0-.07.34-.48.53-.83.64-.07 0 0 .17-.1.2s0 0 0-.06-.07.11 0 .18-.08-.06-.13-.06v.1c.07.24-.21.16-.24.35v-.05a2.47 2.47 0 0 1-.49.65.23.23 0 0 0-.08-.1c.06.08 0 .16 0 .22s0 .15-.13.16c0 .12-.11 0-.06.14h-.08c.08.13-.12 0-.11.09 0 .06-.08 0-.1.07-.05.1-.15.08-.07.16-.09 0 0-.1-.08-.16a3.22 3.22 0 0 1-.71.76h-.12s-.08.1-.07.16-.05 0-.07 0 0 .14-.05.15a.11.11 0 0 0-.05-.1c0 .1-.05.15-.09.21s0 0 0-.07-.12.08-.13.17v-.06c-.13 0 .07.12 0 .15s0 0 0-.07c0 .15-.12.21-.15.3-.06.07-.16.11-.2.22s-.1-.13-.15 0-.09.15.05.22c-.08 0-.21.09-.22.16s-.14-.09-.09-.15h-.09s.05 0 0-.06-.07.13-.1.14.06.25 0 .34c0-.07-.12-.09-.11-.13l.05.28s-.07-.07-.09 0 0 .05 0 .09-.09.12-.18 0 0-.06 0-.07 0 .08-.07.12a.08.08 0 0 0 0 .15s-.06 0 0-.05a.17.17 0 0 1-.06.19v-.09a.66.66 0 0 1-.09.31v-.09c-.15 0-.11.26-.27.24 0 0 .06.06.05 0s-.11 0-.11 0v.08s-.13.28-.28.31a.19.19 0 0 1 0 .16v-.07c-.05 0-.07.07-.12 0 0 .12.13-.23.11-.11s0 .18-.06.08 0 .15-.12.13 0-.12-.07-.08 0 0 0 .11v.05c0 .06-.06 0 0 .09s-.07.11-.15 0l-.06-.08v.17c.1.12-.07 0 0 .17s-.15.13-.24.08 0 .15-.09.17 0 0 0-.06 0 0-.06.08-.12 0-.2 0 .06.12.09.17c-.14-.08-.06.19-.2.13s0-.11 0-.11 0 .16-.12.16l.1.08c-.08 0 0 .14-.13 0 0 .05-.1 0 0 .12-.18 0-.22.28-.43.17 0 0-.05 0 0 .09s0-.07 0 0v.06s-.08 0-.12-.08.06.23-.06.27-.05-.05-.07 0v.11c-.07 0-.11-.06-.17-.12s-.07.07 0 .13h-.11c.08 0 0 .06 0 .09s-.05 0-.06.05a.13.13 0 0 0 .12 0v.11h-.13v.09h-.07s.05 0 0 0-.09-.07-.09 0 .12.12 0 .13a.37.37 0 0 0 0-.09h-.08v.06c0 .08-.07.09 0 .17s-.09 0-.13 0c-.06 0-.09.05-.08.12a.11.11 0 0 0 0 .11c-.08 0-.21-.21-.19-.09s0 .17.08.19c-.12 0-.12.21-.28.18v.08S34 26 33.76 26c0-.05 0-.06-.08-.09s-.08 0 0 .07.07.08.12.07-.15.19-.24.17 0 0 0 .07-.13-.05-.15 0v.06h-.07s.08.12 0 .11h-.06c0 .08 0 .2-.08.2h-.1v.09c-.12 0-.17.06-.25 0a.69.69 0 0 1-.33.57c-.07 0 0 .09 0 .08s-.1-.05-.11-.13 0 .13 0 .18 0-.06.05 0-.12 0-.06.12a.28.28 0 0 1-.1-.12v.07c-.12-.05 0-.25-.18-.32-.1-.05 0-.17-.1-.12s.07.21.13.21.13.21 0 .28.05-.07 0-.12 0 .1-.1.11.1.1.09.14 0-.1-.1-.05 0 .13.08.12-.08 0 0 .13c-.08-.05-.08-.21-.18-.19.07.06 0 .16.13.23 0 0-.09 0-.11-.11s0 .2-.11.08v.08h-.11s0 .18-.11.08-.08.08 0 .13 0-.1.12 0c-.1-.05-.05.07-.06.12s0 .05 0 .1a.07.07 0 0 0-.06-.05v.08c0 .09-.11-.09-.15 0v-.09h-.08l.11.2c0 .05-.07 0-.05 0v-.11s-.11-.07-.16 0 0 .17.09.16a.07.07 0 0 1-.1 0c0 .07.06.05 0 .13s-.16 0-.24 0v-.13c0-.11-.07 0-.12-.14s0 .06 0 .09c.17.07.08.23.21.33-.06.11-.3-.23-.23 0 0 0 .08.14.1.06s.07.15 0 .15-.15-.07-.15-.2h.06s-.1-.12-.15-.07-.07.08 0 .14 0-.05.08 0-.15 0-.07.13c0 0 .1 0 .14.06v.07-.05c-.1 0 0 .1 0 .15l-.11-.06c0-.09.14-.06 0-.17s0 .11-.09.12 0 0 0-.05-.18-.13-.17 0 0 .05.07.1 0 .15-.09.2-.1.07-.12-.07c.07 0 .18-.08.13-.18s.07 0 0-.16c-.06.05-.15-.05-.22-.11s0 .05 0 .07.07 0 .13.11a.22.22 0 0 0-.1.24c-.05 0-.1-.08-.08-.11a.74.74 0 0 1-.26.21c.14.06-.07.1 0 .16a.17.17 0 0 1 .18.1l-.07-.06s-.13 0-.09.07c0-.1-.1-.14-.16-.23 0 .09 0-.06-.1 0a.71.71 0 0 1-.09.26c-.14 0-.19.17-.26.23s-.13-.12-.18-.11.12.07 0 .09-.18 0-.08.2l-.16-.36v.06s-.07 0-.07-.09-.08.09-.12.13h.08c0 .11-.14.1-.19.19v-.06.07c0-.07-.11-.07-.09 0v-.24c.06 0 0 .1.1.14s.12 0 .08-.11 0 0 0 .07 0-.11-.07-.18-.05 0 0 0a.14.14 0 0 1 .06-.14c0 .06.06 0 .07.07s0-.13 0-.16.06-.15.14-.18a.46.46 0 0 1 0 .25h.12s-.09-.17-.06-.25l.05.05v-.19a2.33 2.33 0 0 0 .32-.23l.05.05c-.06-.15.11-.17.13-.28s.18-.25.31-.2a2.05 2.05 0 0 1 .47-.52v.1c0-.09.06 0 .08 0s0-.12 0-.19c.14 0 .18-.17.21-.29l.05.05c0-.17.15-.16.26-.22s.09 0 .11 0 0-.15 0-.27a.58.58 0 0 1 .24-.12c.09-.3.37-.41.51-.66h.07c.09-.31.44-.42.56-.64l.08.12c.08 0 .1-.14 0-.2.08 0 .09-.17.2-.12s0-.11.06-.17a.51.51 0 0 0 .27-.22s0 .08.08.06.17-.1 0-.19c.18 0 .21-.29.41-.29v-.09s.26-.11.29-.24 0 .08.07 0 0 0 0-.09c.1-.21.38-.22.51-.37a4.89 4.89 0 0 1 .74-.73c0-.17.28-.07.22-.28 0 0 .09-.05.11 0 0-.13.24-.1.26-.27s.16-.18.31-.22 0 0 0 .07 0-.19.13-.09 0-.08 0-.06a2.89 2.89 0 0 0 .64-.67c.23-.07.19.2.24 0 0 0 0-.05 0 0s.2.07.18 0 0-.06-.05-.11c.15 0 .23 0 .26-.12 0-.2.16-.23.12-.43.5-.48.93-1 1.42-1.46s1-.91 1.53-1.29c.21 0 .22 0 .31-.17s.08-.09 0-.18c.2-.15.35-.33.55-.5 0 0 0 .12.06.08v-.09-.11a17.24 17.24 0 0 1 1.5-1.2 1.33 1.33 0 0 0 .38-.37 2.66 2.66 0 0 0 1.17-.81.53.53 0 0 1-.06.73zM28.29 30c.05 0 .11 0 .13.1s-.1-.04-.13-.1z"/><path class="cls-2" d="M29.81 29.46v.05s.01-.02 0-.05zM30.12 29.23v.16zM30.53 29.15c.05 0 .06 0 0 .06s.01-.04 0-.06zM30.47 29h.08s-.03.12-.08 0zM31.15 28.64s0-.07.06 0-.02.07-.06 0zM31.37 28.34v.06zM36.16 23.81l-.01.04-.03-.04h.04zM38.32 21.89c0-.05.05 0 .06 0s-.03-.04-.06 0zM39.32 20.66l-.01.01-.07-.08.08.07z"/><path class="cls-3" d="M15.15 13.39c.62.54 1.2 1.11 1.75 1.7s1.1 1.18 1.62 1.79a44.07 44.07 0 0 1 3 3.78l-1.78.17a41.21 41.21 0 0 1 2.6-4.29 43.21 43.21 0 0 1 3-4A26.41 26.41 0 0 1 28.84 9a16.26 16.26 0 0 1 4.25-2.56.1.1 0 0 1 .13.06.1.1 0 0 1 0 .13 17.2 17.2 0 0 0-3.83 2.93 31.88 31.88 0 0 0-3.08 3.71 41.36 41.36 0 0 0-2.57 4.09c-.78 1.4-1.46 2.89-2.09 4.31a1 1 0 0 1-1.76.2 44.07 44.07 0 0 1-2.62-4c-.41-.69-.8-1.4-1.17-2.12s-.73-1.45-1-2.21a.1.1 0 0 1 .16-.12z"/></g></g></svg>